/* XPM */
static char *_0327acc0eca4138b36205b05984a8e7AjoZhIQIvfM3xIta[] = {
/* columns rows colors chars-per-pixel */
"50 50 48 1 ",
"  c #1C5003",
". c #245805",
"X c #285C07",
"o c #2A5E09",
"O c #2B5F0A",
"+ c #2C600B",
"@ c #2E610D",
"# c #2F630E",
"$ c #30640F",
"% c #2F6211",
"& c #336712",
"* c #346713",
"= c #326614",
"- c #346813",
"; c #346814",
": c #356914",
"> c #376B16",
", c #386C17",
"< c #376B18",
"1 c #386C18",
"2 c #3B6F19",
"3 c #3B6F1B",
"4 c #3B701B",
"5 c #3C701B",
"6 c #3F731C",
"7 c #3F731E",
"8 c #40731F",
"9 c #40741F",
"0 c #407420",
"q c #427624",
"w c #437823",
"e c #447823",
"r c #447824",
"t c #477B26",
"y c #477B27",
"u c #487C27",
"i c #487C28",
"p c #4A7E28",
"a c #4B7F2A",
"s c #4C802B",
"d c #4D812C",
"f c #50842F",
"g c #528631",
"h c #538732",
"j c #548833",
"k c #558934",
"l c #588C37",
"z c #5C903B",
/* pixels */
"u7ut9p0990e7t7=770729$7@77$st9992990e55&5>22,w95$5",
"e05200e52>22t<>2,t2,,&-,5wu,,,s99*,5e9,9227>u,,5>e",
"$0ut,5t7499@470p@itt,9s95e5,,559e5e9,>79002t95s0t2",
"f,>05t5044>7272ddt7O7wt7>9-5-997u599d9070p095597>>",
"u0,2>0uu0< &77>,p@2&>y045u9,e5eu5X,-7>>09u@j->7d72",
"ee9ek0ue2p@t9tu427>>201%579ugut,e0g>7&pd&,t,202>77",
">52e5e9u>22&0>-527-7t@dt,$9@>,w29&ue07>4295>t0,02q",
",9e9,,59t27pt>9e70t>22&2295t7-72e9eeeq70u,0d&>9927",
"7,7>2575>922,eu9>22&7e9t98,t&>697&e9e9t27>>6&077t0",
"t2995u,-&9&77@52pi027707-t9ut294,>05>52>020,7>0q02",
"&,u5>&99<>yp9t590y05tt>7455s>774d2*uupd27w0p+ij<22",
"7t,97>uu@222749ut00&7>7>9795,097to705j>t5f07>>0023",
">&>92,s527qp>p%5d07p0.,g>@&4e20p,5>9t>k7t95$su@&p3",
"7@95@&t57>p0t72222t&2p7o&70t057&99>9e007&997.>t921",
"u7,,u9,et2@do302>7t>peue70<p502@9u897>7t7222>-0070",
"9,995.9922t3p0qttu>te2,95w022u&&,9>007p707t>072770",
"2>0$9=209p950>qp2@9u&-e>,955@600t-s,p92208&p&32002",
"259d,7>p90u0,7t>077te5u-e5s06177>9&,5272q7t7>>t>&>",
"t002&70<9,2&7&27-s<u,5u>,f>d2976u&&7@20,27>2p32>@7",
",s557u0>90>7>t200k9w9,-eu92@e44r,9e,770$2p772pt0>6",
"02e92222,&95t2%7sgs557eu2d>2>0&2qq05tt00&<<00g>002",
"ut00>2p<u52,t2&02>04955s>0>7077tdte5>77p<>&tpp2yo0",
"95t,2ses50et&>07o20207e,>qt>032p2>&>200222pp7>0&t0",
"5585e9fue7&>7te2>77450,92t00tp0u<yp2p2p777207<27>0",
"$9975,950u>t22ep20>700o227>7p29tt,-&u92d507>>s>9>2",
"55&9t-5u,22>0081>>&@223t07t07<d,tt5t,p2590>t6,@70t",
",>979uu50u70927tp75077t>>2>77702>X03u9&7e90>>0pe>4",
">09esp5p07t4t7704072p0&303>>0&>,0>9797t0>e0&179t0w",
"p2@55,$,0p0@>0t7720722t09>,s&77ut72ttszt>99e9770>e",
"d,e2,&s7tp>>27>202tt2&d002t 2s5u0>od>77t45ufep20>,",
"&>e029,56p0>t>t07t06>0pp70>out-up7&72-$>s995dee$75",
"90975,&90>+<2&>7tt07p2047&99,72977>777,2$52uu$2e5,",
"p&70&>tt734,959,>t>uu-tu@0t4>6i22077p7207>0dtpptt>",
"tu7$tt7700>p99u,>29259et>-99p77o3t700td2>2,55t02>0",
"7509@7>29>0te99,5,49t7-02>,2o407t>p0d>&f7d5fq72t>2",
",7e7q7&7057de7ue9,t,>77wt29270002w%7727900t7e2&000",
"d200,o<pus@$d5,9d97p0po>20202&t2>2@7t07tu5e,$ot2t0",
"@tp&&2<p>e@$9,0s.7>@t0p2&0t7327t@@>>p7wd7995>2t370",
",72>>&774-,,@p,>>24<>7p@t2>27077>d22;0>r$2w-@p>727",
"2722p3&25ue94002>7d@320p00270p2t>>00r4>2us,u,000t0",
"t&5>77tt5u4707k>>>2t>>0202e&777e>t0y707>097>9pt907",
">7&407>29506&727tt2&7>t<729>92t4&p7p&ta>59755u&022",
">0<>7@&&e9@202t7te79>&&2s2eu&,&,p7202>2052tt7t>220",
"022977229,6>tt7p$,>u2od02299t79>00dt2>&059e2e070>>",
"97e7>7tu>729t0,t727uu2w0>t0@7@7u00050072t&0toXe&7>",
"7095e7>-&>je@pj07@>u7X4@220@50t2>09$737>77772t570p",
"u-99>>5u9tu,4,e5ew00s-t4t<2t5,e09-$,2a@a775>kw@22p",
",gs,>99&7&97e559,j7t>92-&05g578e92-7242&7>7&t0t>&2",
"2u>72720t0>054e2722p7>>20tp072u99e2$599,985*8p95$q",
"077777702>>7s&-59tt72qd07y37725095e5e909,57t9t2et0"
};
