/* XPM */
static char *_dbc8b5936664857a02d56daceb8b29bRAdmWuvMDOMuvR6m[] = {
/* columns rows colors chars-per-pixel */
"50 50 236 2 ",
"   c #9E2F02",
".  c #96340F",
"X  c #9D3A1D",
"o  c #A73D06",
"O  c #B43700",
"+  c #A23C18",
"@  c #813C2C",
"#  c #963D24",
"$  c #CE3E0E",
"%  c #D23F02",
"&  c #A7430B",
"*  c #BA4508",
"=  c #AC5F09",
"-  c #B9550A",
";  c #AC4714",
":  c #B64719",
">  c #B8571B",
",  c #854032",
"<  c #A94927",
"1  c #B44B2A",
"2  c #AE5628",
"3  c #B7512A",
"4  c #BD5D2D",
"5  c #AB4F36",
"6  c #AA563C",
"7  c #B65833",
"8  c #AF6F2D",
"9  c #C24105",
"0  c #CC4404",
"q  c #C54D04",
"w  c #D34405",
"e  c #D54D04",
"r  c #D84B05",
"t  c #D5450D",
"y  c #DB4D0B",
"u  c #CA5409",
"i  c #D95606",
"p  c #D5540C",
"a  c #C64814",
"s  c #CC4D1D",
"d  c #D94E15",
"f  c #D44E1A",
"g  c #CA5A17",
"h  c #CC5319",
"j  c #DD5413",
"k  c #DB5B14",
"l  c #D35119",
"z  c #DD531B",
"x  c #D35A18",
"c  c #DC5B1E",
"v  c #E25709",
"b  c #E45D0A",
"n  c #F05D0F",
"m  c #E24F18",
"M  c #E55B16",
"N  c #E35B1B",
"B  c #C6600D",
"V  c #D96709",
"C  c #CB6412",
"Z  c #DA6315",
"A  c #DB6717",
"S  c #D2621D",
"D  c #D46C1C",
"F  c #DC721C",
"G  c #E76508",
"H  c #ED720A",
"J  c #F3760C",
"K  c #E4671B",
"L  c #EB691C",
"P  c #F26D17",
"I  c #E77218",
"U  c #F37C1D",
"Y  c #C74D25",
"T  c #D44C29",
"R  c #C75A26",
"E  c #CD5C2D",
"W  c #DB5B23",
"Q  c #D45C2A",
"!  c #C75835",
"~  c #D65B36",
"^  c #E25B27",
"/  c #C96728",
"(  c #D96123",
")  c #DA6B23",
"_  c #D66729",
"`  c #C47727",
"'  c #D3762E",
"]  c #CA6838",
"[  c #DC643C",
"{  c #D66938",
"}  c #D77638",
"|  c #DB743C",
" . c #E36324",
".. c #E5642C",
"X. c #E96929",
"o. c #F26C28",
"O. c #EA7627",
"+. c #F37828",
"@. c #E76A35",
"#. c #EB6C3A",
"$. c #E47335",
"%. c #EC7433",
"&. c #E17B33",
"*. c #E87839",
"=. c #F27438",
"-. c #A86041",
";. c #D15D40",
":. c #DD6F42",
">. c #DA7648",
",. c #E77846",
"<. c #EC7848",
"1. c #E97857",
"2. c #FC8E0E",
"3. c #E9851A",
"4. c #F58615",
"5. c #F4851B",
"6. c #FA961C",
"7. c #F9A908",
"8. c #FCA719",
"9. c #DC8029",
"0. c #EE842C",
"q. c #EC8929",
"w. c #F98925",
"e. c #FB9929",
"r. c #E78237",
"t. c #F98636",
"y. c #FA9B36",
"u. c #F1933A",
"i. c #FBA92B",
"p. c #FEBD2B",
"a. c #FDAB36",
"s. c #FDC529",
"d. c #FCC037",
"f. c #B98869",
"g. c #D88646",
"h. c #DE905E",
"j. c #E38D45",
"k. c #E6854B",
"l. c #EA8E4D",
"z. c #F88A49",
"x. c #E2974F",
"c. c #E58756",
"v. c #F78B53",
"b. c #EC9A54",
"n. c #FA9659",
"m. c #F8A845",
"M. c #FBB845",
"N. c #F8A758",
"B. c #FBB453",
"V. c #FFBD55",
"C. c #FBB25D",
"Z. c #C9977A",
"A. c #D49273",
"S. c #E4856C",
"D. c #F68E61",
"F. c #E79769",
"G. c #FA966B",
"H. c #F69577",
"J. c #DDA678",
"K. c #E7A86D",
"L. c #F9AB67",
"P. c #F7B567",
"I. c #FCBC62",
"U. c #FDBC6C",
"Y. c #E9AB77",
"T. c #FCAA77",
"R. c #FBA47C",
"E. c #E2B47C",
"W. c #F6BC72",
"Q. c #F7B879",
"!. c #FDBC7D",
"~. c #FDC44C",
"^. c #FDD84C",
"/. c #FBC659",
"(. c #FDDB58",
"). c #FCC86D",
"_. c #FBD569",
"`. c #E6C07F",
"'. c #FEC273",
"]. c #FBC37C",
"[. c #FACA79",
"{. c #FAD577",
"}. c #FAE57E",
"|. c #D0A693",
" X c #ECB886",
".X c #F5BB83",
"XX c #001B7A",
"oX c #F1BA9B",
"OX c #DEBAAF",
"+X c #E8B6AD",
"@X c #F5B6A7",
"#X c #FCC384",
"$X c #FACB86",
"%X c #FAC589",
"&X c #FED383",
"*X c #FED78A",
"=X c #FBCC93",
"-X c #F8CA9B",
";X c #FFD592",
":X c #FFDC96",
">X c #FCD49D",
",X c #FFE898",
"<X c #EEC9AB",
"1X c #FED3A3",
"2X c #FDDDA6",
"3X c #F8D0AD",
"4X c #FEDCAB",
"5X c #F9D5B1",
"6X c #F3DABC",
"7X c #FCE2A8",
"8X c #FDE4B4",
"9X c #FEE3BB",
"0X c #FFEABE",
"qX c #FFF4BF",
"wX c #F8D9CA",
"eX c #FDE7C8",
"rX c #FFEBCB",
"tX c #FFF7C7",
"yX c #FEF2CC",
"uX c #FFEBD3",
"iX c #F7E6D8",
"pX c #FFF4D3",
"aX c #FEFAD5",
"sX c #FEF3DC",
"dX c #FFF9DF",
"fX c #001B7A",
"gX c #F6E9E3",
"hX c #F1EDEA",
"jX c #FCF3E4",
"kX c #FFFDE2",
"lX c #FCF3EC",
"zX c #FFFBEB",
"xX c #001B7A",
"cX c #FFF7F3",
"vX c #FFFBF3",
"bX c #001B7A",
/* pixels */
"bXbXbXfXfXfXbXbXbXfXfXfXxXbXbXbXfXfXfXbXbXbXfXfXfXbXbXbXfXfXfXbXbXbXfXfXfXxXbXbXbXfXfXfXbXbXbXfXfXfX",
"bXbXbXfXfXfXbXbXbXfXfXfXxXbXbXbXfXfXfXbXbXbXfXfXfXbXbXbXfXfXfXbXbXbXfXfXfXxXbXbXbXfXfXfXbXbXbXfXfXfX",
"bXbXbXfXfXfXbXbXbXfXfXfXxXbXbXbXfXfXfXbXbXbXfXfXfXbXbXbXfXfXfXbXbXbXfXfXfXxXbXbXbXfXfXfXbXbXbXfXfXfX",
"fXfXfXbXbXbXfXfXfXbXbXbXxXfXfXfXbXbXbXfXfXfXbXbXbXfXfXfXbXbXbXfXfXfXbXbXbXxXfXfXfXbXbXbXfXfXfXbXbXbX",
"fXfXfXbXbXbXfXfXfXbXbXbXxXfXfXfXbXbXbXfXfXfXbXbXbXfXfXfXbXbXbXfXfXfXbXbXbXxXfXfXfXbXbXbXfXfXfXbXbXbX",
"fXfXfXbXbXbXfXfXfXbXbXbXxXfXfXfXbXbXbXfXfXfXbXbXbXfXfXfXbXbXbXfXfXfXbXbXbXxXfXfXfXbXbXbXfXfXfXbXbXbX",
"bXbXbXfXfXfXbXbXbXfXfXfXxXbXbXbXfXfXfXbXbXbXfXfXfXbXbXbXfXfXfXbXbXbXfXfXfXxXbXbXbXfXfXfXbXbXbXfXfXfX",
"bXbXbXfXfXfXbXbXbXfXfXfXxXbXbXbXfXfXfXbXbXbXfXfXfXbXbXbXfXfXfXbXbXbXfXfXfXxXbXbXbXfXfXfXbXbXbXfXfXfX",
"bXbXbXfXfXfXbXbXbXfXfXfXxXbXbXbXfXfXfXbXbXbXfXfXfXbXbXbXfXfXfXbXbXbXfXfXfXxXbXbXbXfXfXfXbXbXbXfXfXfX",
"fXfXfXbXbXbXfXfXfXbXbXbXxXfXfXfXbXbXbXfXfXfXbXbXxXP.5XeXbXbXbXfXfXfXbXbXbXxXfXfXfXbXbXbXfXfXfXbXbXbX",
"fXfXfXbXbXbXfXfXfXbXbXbXxXfXfXfXbXbXbXfXfXfXbXbXl.R &._ R 7 vXfXfXfXbXbXbXxXfXfXfXbXbXbXfXfXfXbXbXbX",
"fXfXfXbXbXbXfXfXfXbXbXbXxXfXfXfXbXbXbXfXfXfXbXcX+ ) 4 < h.7X!.-XfXfXbXbXbXxXfXfXfXbXbXbXfXfXfXbXbXbX",
"xXxXxXxXxXxXxXxXxXxXxXxXxXxXxXxXxXxXxXxXxXxXiX6 2 5 ] ] @ , < D %X3XcXxXxXxXxXxXxXxXxXxXxXxXxXxXxXxX",
"bXbXbXfXfXfXbXbXbXfXfXfXxXbXbXbXfXfXfXbXbXbXiXX g.c._ . . # / E ] !.>X5XfXxXbXbXbXfXfXfXbXbXbXfXfXfX",
"bXbXbXfXfXfXbXbXbXfXfXfXxXbXbXbXfXfXfXbXbXO.h g l.T.j.N.C S >.4 =.w.B.'.-XlXbXbXbXfXfXfXbXbXbXfXfXfX",
"bXbXbXfXfXfXbXbXbXfXfXfXxXbXbXbXfXfXfXbX#.[ [ a [ } .XN.u.g.x.h.3 3 _ +.N.#XrXbXbXfXfXfXbXbXbXfXfXfX",
"fXfXfXbXbXbXfXfXfXbXbXbXxXfXfXfXbXbXbXS.S.;.@.#.:.T.kX8XQ.L.E.F.< 2 > E O.&.].9XhXbXbXbXfXfXfXbXbXbX",
"fXfXfXbXbXbXfXfXfXbXbXbXxXfXfXfXbXbX@XY X.H.s :.X.0XvXzXzXsX9XK.] ] :.] R R 4..X1XuXbXbXfXfXfXbXbXbX",
"fXfXfXbXbXbXfXfXfXbXbXbXxXfXfXfXbXwX1.z ..l Y S e.tXaXzXbXvXsXuX#X%XL.' > / y.C.#X!.4XbXfXfXfXbXbXbX",
"bXbXbXfXfXfXbXbXbXfXfXfXxXbXbXbXhXk.A @.<.e._.&X7X:X&X2.Q.u.=X`.M.aXsX3Xb.h k U U.].=X#XbXbXbXfXfXfX",
"bXbXbXfXfXfXbXbXbXfXfXfXxXbXbXbXiXF.U.{.}.tX^.i.5.b n P k X.e i N.aXdXpXP.<.X 5 k a.U.2X>XbXbXfXfXfX",
"bXbXbXfXfXfXbXbXbXfXfXfXxXbXbXbX+XS.y.7X_.^.s.4.L v v ^ Y =.@.X.e q.*XqX8XK.& 3 q.c w.4X'.XXbXfXfXfX",
"fXfXfXbXbXbXfXfXfXbXbXbXxXfXiXA.S.q.U._.(.,Xi.8.o.n M m ^ m $ T K j V./.yX1XC.x.K I e.I.%XXX.XbXbXbX",
"fXfXfXbXbXbXfXfXfXbXbXbXxXiX,.r.t.F J 2.J 3.*X~.o.y % y n $ % t T ~ ;X_.qX>Xj.| * Y > 5.:X8X].%XbXbX",
"fXfXfXbXbXbXfXfXfXbXbXbXxX} 3.G.z.x r ^ l 0 L 4.e.o.N z W r r w X.u.kXaXyX'.F > 4 X : * t.u.=XP.!.bX",
"bXbXbXfXfXfXbXbXbXfXfXiX5XN.W z y T t y j s M p &X>X..M +.y e j 0.$XeXt.$.Z q S :   o < ; 9.[.B.C.6X",
"bXbXbXfXfXfXbXbXbXfXfXfX&Xi.h E [ t P L ^ H e +.~.(./.M.p.).[.7X7XpX$.<.:.h ; { . o ! *.e.'.U.1X*XhX",
"bXbXbXfXfXfXbXbXbXfXfX7Xa.6._ % j i t w b M b ^ U.U 0.n.T.O.3.{.F.c.H.:.[ R ! ! ,.k S O.B / W.W.fXfX",
"fXfXfXbXbXbXfXfXfXxXxXcX&X).V l e % b r d f Q U I G.t G k f ..<.yXL.H.k.[ :.=.#.] & ' x.K.Q.fXbXbXbX",
"fXfXfXbXbXbXfXfXfX X*.j.yXB.$XN.Z $.W c p W I.+.+.V p t I Q >.b v.c.D.H.1.H.%.t.l.oX3XE.iXfXfXxXbXbX",
"fXfXfXbXbXbXfXhXh.>.:.*.&.s.,XkXkX&X).;X0XyX7X0.D. .a ^ #.W z N z..Xv.<.v.@X8 l.A. X-XbXfXfXfXbXbXbX",
"bXbXbXfXfXfXlX:.E g u r.F s.d.V.H J e H 4.g.eX,.c.W G.v.<.#.r P G L.C.N.jXrX3XvXbXfXfXfXbXbXbXfXfXfX",
"bXbXbXfXfXwX{ { h x V _ i 8.).) 1 ,.1.^ R.& - T.c.Z x v #.o.L.y.;X=XI.rXpXgXbXbXbXfXfXfXbXbXbXfXfXfX",
"bXbXbXfXgXs > g p h ) } '.;XV } 1 k _ H.Q ] * g 1.( %.O.O..Xl.2 -.|.wXhXfXxXbXbXbXfXfXfXbXbXbXfXfXfX",
"fXfXfXcX/ ; ] u ) S ' #X8X2XXX@X| k h p e u * O V C -XM.rXZ.gXhXfXfXbXbXbXxXfXfXfXbXbXbXfXfXfXbXbXbX",
"fXfXfX} ] 7 / g D m.9X9XpX5Xk V q O 9 ( T q * I 8 E.6X6XbXbXbXfXfXfXbXbXbXxXfXfXfXbXbXbXfXfXfXbXbXbX",
"fXfXfXuX].a.8XB.P.~.).%X_ m.u u a O & x E { } Y.bXhXfXfXbXbXbXfXfXfXbXbXbXxXfXfXfXbXbXbXfXfXfXbXbXbX",
"xXxXOXM.:X:XeX).7.7.M.P.` = - F C S g.wXlXxXxXxXxXxXxXxXxXxXxXxXxXxXxXxXxXxXxXxXxXxXxXxXxXxXxXxXxXxX",
"bXjX%X/.`.).~.$X-XE.8 f.<XJ.sXvXfXfXfXbXbXbXfXfXhXbXbXbXfXfXfXbXbXbXfXfXfXxXbXbXbXfXfXfXbXbXbXfXfXfX",
"bXjX[./.).g.8 f.iXfXfXfXxXbXbXbXfXfXfXbXbXbXfXfXfXbXbXbXfXfXfXbXbXbXfXfXfXxXbXbXbXfXfXfXbXbXbXfXfXfX",
"bXvXOXf.|.wXxXbXxXfXfXfXxXbXbXbXfXfXfXbXbXbXfXfXfXbXbXbXfXfXfXbXbXbXfXfXfXxXbXbXbXfXfXfXbXbXbXfXfXfX",
"fXfXfXbXbXbXfXfXfXbXbXbXxXfXfXfXbXbXbXfXfXfXbXbXbXfXfXfXbXbXbXfXfXfXbXbXbXxXfXfXfXbXbXbXfXfXfXbXbXbX",
"fXfXfXbXbXbXfXfXfXbXbXbXxXfXfXfXbXbXbXfXfXfXbXbXbXfXfXfXbXbXbXfXfXfXbXbXbXxXfXfXfXbXbXbXfXfXfXbXbXbX",
"fXfXfXbXbXbXfXfXfXbXbXbXxXfXfXfXbXbXbXfXfXfXbXbXbXfXfXfXbXbXbXfXfXfXbXbXbXxXfXfXfXbXbXbXfXfXfXbXbXbX",
"bXbXbXfXfXfXbXbXbXfXfXfXxXbXbXbXfXfXfXbXbXbXfXfXfXbXbXbXfXfXfXbXbXbXfXfXfXxXbXbXbXfXfXfXbXbXbXfXfXfX",
"bXbXbXfXfXfXbXbXbXfXfXfXxXbXbXbXfXfXfXbXbXbXfXfXfXbXbXbXfXfXfXbXbXbXfXfXfXxXbXbXbXfXfXfXbXbXbXfXfXfX",
"bXbXbXfXfXfXbXbXbXfXfXfXxXbXbXbXfXfXfXbXbXbXfXfXfXbXbXbXfXfXfXbXbXbXfXfXfXxXbXbXbXfXfXfXbXbXbXfXfXfX",
"fXfXfXbXbXbXfXfXfXbXbXbXxXfXfXfXbXbXbXfXfXfXbXbXbXfXfXfXbXbXbXfXfXfXbXbXbXxXfXfXfXbXbXbXfXfXfXbXbXbX",
"fXfXfXbXbXbXfXfXfXbXbXbXxXfXfXfXbXbXbXfXfXfXbXbXbXfXfXfXbXbXbXfXfXfXbXbXbXxXfXfXfXbXbXbXfXfXfXbXbXbX",
"fXfXfXbXbXbXfXfXfXbXbXbXxXfXfXfXbXbXbXfXfXfXbXbXbXfXfXfXbXbXbXfXfXfXbXbXbXxXfXfXfXbXbXbXfXfXfXbXbXbX"
};
