/* XPM */
static char *_e778af5b00c44cbfdcb900e1f25a56e2NBchme0PQInv61T[] = {
/* columns rows colors chars-per-pixel */
"50 48 26 1 ",
"  c None",
". c #980000",
"X c #A00000",
"o c #CE0000",
"O c #D90000",
"+ c #DD0000",
"@ c #DE0000",
"# c #DE0101",
"$ c #DE0202",
"% c #DF0A0A",
"& c #E00D0D",
"* c #E01010",
"= c #E11717",
"- c #E21E1E",
"; c #E32323",
": c #BB4B4B",
"> c #E74848",
", c #ED7474",
"< c #F19191",
"1 c #F9D0D0",
"2 c #FBE2E2",
"3 c #FDECEC",
"4 c #FDF5F5",
"5 c #FCF8F8",
"6 c #FFFEFE",
"7 c white",
/* pixels */
"                                                  ",
"                                                  ",
"                        ##                        ",
"                        %>                        ",
"                        77                        ",
"                       #77#                       ",
"                       #77%                       ",
"                       7777                       ",
"                      #7777#                      ",
"                      #7#.7#                      ",
"                      77#.77                      ",
"                     #77#.77#                     ",
"                     #7##..7#                     ",
"                     77##..77                     ",
"                    #77##..77#                    ",
"                    #7###...7#                    ",
"                    77###...77                    ",
"                   #77###...77#                   ",
"####################7####....7####################",
"  #777777777777777777####....777777777777777777#  ",
"   #77777777777777777####....77777777777777777#   ",
"    #777##...........####....###########..777#    ",
"      #77<###.........###...#########...:77#      ",
"       #777#####.......##..#######.....777#       ",
"        #177#######....X#.o####.......772#        ",
"          #777########..#.##........577#          ",
"           #777##########..........777#           ",
"             #77######..#.##......77*#            ",
"              #777#.....#.#####.777#              ",
"               #77.....##..#####77#               ",
"               #74....###...####37#               ",
"               ;7....####....####7,               ",
"               77....####....####77               ",
"              #77...#####.....###77#              ",
"              #7...#####77.....###7-              ",
"              77...####7777....O##77              ",
"             #77..###777##777...##77#             ",
"             #7..###777#  #777...##7#             ",
"             77.###77=#     &77...#77             ",
"            #77.#777#        #777.#77#            ",
"            #7.#777#          #777.#7#            ",
"            77#77#              #77.77            ",
"           #7777#                #7777#           ",
"           #777#                  #777#           ",
"           77#                      #77           ",
"          #7#                        #7#          ",
"          ##                          ##          ",
"                                                  "
};
