/* XPM */
static char *eced203472284ec3e7de6b156b4425958WoQap0WGzvTeZ5Q[] = {
/* columns rows colors chars-per-pixel */
"50 48 178 2 ",
"   c #984400",
".  c #9D4A01",
"X  c #A14F02",
"o  c #A55403",
"O  c #AB5B05",
"+  c #AB5C08",
"@  c #AF6106",
"#  c #AC600F",
"$  c #B26503",
"%  c #B56803",
"&  c #BA6F02",
"*  c #BD7302",
"=  c #B9700B",
"-  c #AC621B",
";  c #BE7C15",
":  c #AD6520",
">  c #BA7721",
",  c #B57434",
"<  c #B77739",
"1  c #BA7C3C",
"2  c #C17C01",
"3  c #C58201",
"4  c #C98701",
"5  c #CA8902",
"6  c #C5860D",
"7  c #D19302",
"8  c #D69A01",
"9  c #D99E00",
"0  c #D59A0C",
"q  c #C68717",
"w  c #DCA401",
"e  c #DFA902",
"r  c #DBA60F",
"t  c #E0AB01",
"y  c #E1AF0A",
"u  c #E5B501",
"i  c #E7B901",
"p  c #E9BD01",
"a  c #E5BA17",
"s  c #C58A25",
"d  c #D19C22",
"f  c #C9943C",
"g  c #D19D31",
"h  c #DDB92C",
"j  c #D3A233",
"k  c #E3BC2B",
"l  c #E2B937",
"z  c #ECC301",
"x  c #EFC901",
"c  c #EAC20E",
"v  c #EFCC0E",
"b  c #F2C601",
"n  c #F1CB01",
"m  c #FACF02",
"M  c #F4D301",
"N  c #FCD002",
"B  c #F7D901",
"V  c #F9DD02",
"C  c #FBD009",
"Z  c #ECC617",
"A  c #F3D21E",
"S  c #FCE303",
"D  c #FFE805",
"F  c #FFE80A",
"G  c #FFE811",
"H  c #FEE71D",
"J  c #EAC323",
"K  c #EAC72D",
"L  c #F4D728",
"P  c #E5C133",
"I  c #E7C63E",
"U  c #E9C93A",
"Y  c #F0D039",
"T  c #FEE722",
"R  c #FEE72E",
"E  c #FCE433",
"W  c #FDE63C",
"Q  c #C79346",
"!  c #C08C56",
"~  c #C99E5A",
"^  c #D6A845",
"/  c #DEB548",
"(  c #D8AC56",
")  c #DBB155",
"_  c #DAB755",
"`  c #DFB85B",
"'  c #E1BC4C",
"]  c #C39360",
"[  c #C59867",
"{  c #DEB762",
"}  c #DAB865",
"|  c #CAA773",
" . c #CBAB74",
".. c #CAA679",
"X. c #CBAA7A",
"o. c #D7B579",
"O. c #DCBB78",
"+. c #EED148",
"@. c #F6DB4C",
"#. c #E6C550",
"$. c #EACD53",
"%. c #E9CD5C",
"&. c #F5DC52",
"*. c #FDE646",
"=. c #FBE453",
"-. c #E7C963",
";. c #F4DB62",
":. c #F6DE69",
">. c #E3C376",
",. c #ECCF70",
"<. c #E4C579",
"1. c #EDD176",
"2. c #EFD877",
"3. c #FBE565",
"4. c #FBE56B",
"5. c #FAE574",
"6. c #FAE578",
"7. c #BFB8AF",
"8. c #BCBDBE",
"9. c #D5B583",
"0. c #D7B986",
"q. c #C6B39B",
"w. c #C0B6A0",
"e. c #C6B9AB",
"r. c #D9C489",
"t. c #D6C799",
"y. c #E5C780",
"u. c #E6CA86",
"i. c #E7CD8C",
"p. c #EDD58C",
"a. c #F1DB80",
"s. c #E4C891",
"d. c #E9D196",
"f. c #ECD69B",
"g. c #F2DD96",
"h. c #FAE785",
"j. c #F9E588",
"k. c #FAE78A",
"l. c #FAE997",
"z. c #F5E298",
"x. c #FAE99B",
"c. c #CECBBF",
"v. c #D7D1B5",
"b. c #EFDBA6",
"n. c #E6D5AD",
"m. c #EDDEB0",
"M. c #F3E1A7",
"N. c #FAEAA3",
"B. c #F6E5AC",
"V. c #FAEBAB",
"C. c #FAECB4",
"Z. c #FBEFBE",
"A. c #C4C5C7",
"S. c #C6C7C9",
"D. c #CBCBCD",
"F. c #CECED0",
"G. c #D2D2D3",
"H. c #D7D7D8",
"J. c #DBDBDC",
"K. c #FBF0C3",
"L. c #FCF3CA",
"P. c #FDF5D3",
"I. c #FBF4DB",
"U. c #DFDFE0",
"Y. c #E3E3E3",
"T. c #E7E7E8",
"R. c #EEEEEE",
"E. c #F0EFEF",
"W. c #FCF8E7",
"Q. c #FBF7EA",
"!. c #EFEFF0",
"~. c #F5F4F4",
"^. c #F8F7F4",
"/. c #F8F8F7",
"(. c #FBFBFB",
"). c gray99",
"_. c #FDFDFD",
"`. c white",
/* pixels */
"`.`.R.R.`.`.R.R.`.`.R.R.~.`.`.R.R.`.`.R.R.`.`.R.R.`.`.R.R.`.`.R.R.`.`.R.R.~.`.`.R.R.`.`.R.R.`.`.R.R.",
"`.`.R.R.`.`.R.R.`.`.R.R.~.`.`.R.R.`.`.R.R.`.`.R.R.`.`.R.R.`.`.R.R.`.`.R.~.~.`.`.R.R.`.`.R.R.`.`.R.R.",
"R.R.`.`.R.R.`.`.R.R.`.`.~.R.R.`.`.R.R.`.`.R.R.`.`.T.R.`.`.R.R.`.`.R.R.`.`.~.R.R.`.`.R.R.`.`.R.R.`.`.",
"R.R.`.`.R.R.`.`.R.R.`.`.(.R.R.`.`.R.R.`.`.R.R.(.D Y.T.`.`.R.R.`.`.R.R.`.`.~.R.R.`.`.R.R.`.`.R.R.`.`.",
"`.`.R.R.`.`.R.R.`.`.R.R.~.`.`.R.R.`.`.R.R.`.`.R.D n.R.R.R.`.`.R.R.`.`.R.!.~.`.`.R.R.`.`.R.R.`.`.R.R.",
"`.`.R.R.`.`.R.R.`.`.R.R.~.`.`.R.R.`.`.R.R.`.(.D D p H.T.R.`.`.R.R.`.`.R.R.~.`.`.R.R.`.`.R.R.`.`.R.R.",
"R.R.`.`.R.R.`.`.R.R.`.`.(.R.R.`.`.R.R.`.`.R.R.D D i r.R.`.R.R.`.`.R.R.`.`.~.R.R.`.`.R.R.`.`.R.R.`.`.",
"R.R.`.`.R.R.`.`.R.R.`.`.~.R.R.`.`.R.R.`.`.R.B D R i z J.(.R.R.`.`.R.R.`.`.~.R.R.`.`.R.R.`.`.R.R.`.`.",
"`.`.R.R.`.`.R.R.`.`.R.R.~.`.`.R.R.`.`.R.!./.D G E u t t.Y.`.`.R.R.`.`.R.R.~.`.`.R.R.`.`.R.R.`.`.R.R.",
"`.`.R.R.`.`.R.R.`.`.R.R.~.`.`.R.R.`.`.R.T.S D T R e t p D.^.`.R.R.`.`.R.R.~.`.`.R.R.`.`.R.R.`.`.R.R.",
"~.~.`.(.~.~.(.(.R.~.(.(.~.~.~.(.(.~.~.(.~.D D R =.u t w v.Y.R.(.(.~.~.(.(.~.~.~.(.(.~.!.(.(.~.~.(.(.",
"R.R.`.`.R.R.`.`.R.R.`.`.~.R.R.`.`.R.R.`.N D H R =.t t 9 p D.R.`.`.R.R.`.`.~.R.R.`.`.R.R.`.`.R.R.`.`.",
"R.R.`.`.R.R.`.`.R.R.`.`.~.R.R.`.`.R.R.(.D D R *.5.u e 9 9 c.Y.(.`.R.R.`.`.~.~.R.`.`.R.R.`.`.R.R.`.`.",
"`.`.R.R.`.`.R.R.`.`.R.R.~.`.`.R.R.`.).v F R *.=.5.t w 9 8 p J.R.R.`.`.R.R.~.`.`.R.R.`.`.R.R.`.`.R.R.",
"`.`.R.R.`.`.R.R.`.`.R.R.~.`.`.R.R.`.~.D D R *.4.h.t w 9 8 5 G.Y.E.`.`.R.R.~.`.`.R.R.`.`.R.R.`.`.R.R.",
"R.R.`.`.R.R.`.`.R.R.`.`.(.R.R.`.`.T.L D T E =.4.l.t w 8 7 5 i J.~.R.T.`.`.~.R.R.`.`.R.R.`.`.R.R.`.`.",
"R.R.`.`.R.R.`.`.R.E.(.(.~.Y.T.2.Z x m T R W 3.k.V.t 9 8 5 4 * z z U Y.~./.R.R.T.(.(.R.R.`.`.R.R.`.`.",
"`.`.R.R.`.~.Y.T.b.c n 7 7 t i m m m N T E =.3.k.C.t 9 8 7 4 z p u u e e r j z c %.R.R.~.Y.T.`.`.R.R.",
"`.`.R.R.2   o O O & 3 4 9 u z N N N m z =.4.h.l.P.t 9 8 7 z z p a k k j / ^ ) ) _ { <.i.d.Z ~.`.R.R.",
"R.R.`.(.J.4 7 O O & 3 7 9 u b m N m m m n 3.l.N.P.t 8 7 w J K P I / #.%.{ <.o.y.d.f.;   h H.Y.R.`.`.",
"R.R.`.`.Y.D.7 7 w t 7 7 e p m N N N m m b @.x.K.Q.9 9 7 +.I +.$.-.,.,.u.u.d.m.o       _ S.T.T.R.`.`.",
"`.`.R.R.(.~.D.9 w u p x n M N N N N m z z b V.L./.w 7 +.;.1.5.p.p.g.M.a..           } D.H.T.`.`.R.R.",
"`.`.R.R.`.(.Y.D.t u z n V S D D D N m z b i u P.`.9 :.h.g.x.z.B.' o . .            .D.T.R.R.`.`.R.R.",
"R.R.`.`.R.R.`.~.G.z z M V D D D D S S D z b u y I.7 V.C.L.0 & % O + o           X.F.H.R.(.`.R.R.`.`.",
"R.R.`.`.R.R.`.`.Y.D.x V S D D V D S S D V M M u L.L.7 4 3 & O @ O o           | D.R.R.R.`.`.R.R.`.`.",
"`.`.R.R.`.`.R.R.`.E.D.S D D D V V S V S B B A `.n z e 4 3 & & $ X o         w.D.H.T.`.`.R.R.`.`.R.R.",
"`.`.R.R.`.`.R.R.`.`.Y.D.V D D S S S V L V.L.Q.J x M.i u u w $ O o .       q.D.R.T.R.`.`.R.R.`.`.R.R.",
"R.R.`.`.R.R.`.`.R.R.`.~.G.M D D L &.5.z.C.I.`.z x u.l u e w 7 7 7 .     7.S.H.R.`.`.R.R.`.`.R.R.`.`.",
"R.R.`.`.R.R.`.`.R.R.`.`.R.D.m C W ;.k.V.P.(.x z z >.u.e w 9 7 7 5 3 3 7.D.Y.R.R.`.`.R.R.`.`.R.R.`.`.",
"`.`.R.R.`.`.R.R.`.`.R.R.~.!.m E =.5.x.C.^.z x z z l >.d.w 7 7 4 3 3 3 8.F.~.`.`.R.R.`.`.R.R.`.`.R.R.",
"`.`.R.R.`.`.R.R.`.`.R.R.~.(.+.+.5.h.C.P.I.x z i z g ) o.9.9 5 5 3 3 3 q H.~.`.`.R.R.`.`.R.R.`.`.R.R.",
"R.R.`.`.R.R.`.`.R.R.`.`.~.n.E =.6.x.Z.I.x z z i u 7 g ( O.5 4 5 3 3 3 3 J.~.R.R.`.`.R.R.`.`.R.R.`.`.",
"R.R.`.`.R.R.`.`.R.R.`.`.~.2 =.5.l.C.P.n x z p u u 3 6 f ~ X.4 4 2 4 2 4 H.E.!.!.`.`.R.R.`.`.R.R.`.`.",
"(.~.~.~.~.(.~.~.~.(.~.~.~.d =.6.V.K.U x z p i i i 3 * q Q  .0.2 4 2 2 4 S.R././.~.~././.~.~.~.(.~.~.",
"`.`.R.R.`.`.R.R.`.`.R.R.~.&.6.x.C.W.x x z z u e e 3 * * 2 1 | > 3 3 4 2 8.T.`.`.R.R.`.`.R.R.`.`.R.R.",
"`.`.R.R.`.`.R.R.`.`.R.R.R.4.6.x.Z.x x z i p u e e * * % @ = < ..3 4 2 4 8.Y.(.`.R.R.`.`.R.R.`.`.R.R.",
"R.R.`.`.R.R.`.`.R.R.`.`.~.1.x.C.M x z z i i e 9 8.4 & $ O + , ! ..3 3 3 s U.R.R.`.`.R.R.`.`.R.R.`.`.",
"R.R.`.`.R.R.`.`.R.R.`.(.s.k.N.V.x x z z u e ~ D.H.D.A.2 O O # , ! [ 3 3 3 H.T.R.`.`.R.R.`.`.R.R.`.`.",
"`.`.R.R.`.`.R.R.`.`.R.R.3 l.K.x x x z p f S.H.H.Y.~.R.D.e.% X : , ! 2 3 3 G.^.`.R.R.`.`.R.R.`.`.R.R.",
"`.`.R.R.`.`.R.R.`.`.R.R.` C.M x z z s 8.A.T.^.R.R.`.`.R.U.J.q.o - , ! 3 3 D.~.`.R.R.`.`.R.R.`.`.R.R.",
"R.R.`.`.R.R.`.`.R.R.`.(.N.U n n 2 8.8.T.~.T.R.`.`.R.R.`.`.Y.Y.J.X.: , ] 3 A.Y.R.`.`.R.R.`.`.R.R.`.`.",
"R.R.`.`.R.R.`.`.R.R.`.~.K.M 3 8.D.H.Y.`.`.R.R.`.`.R.R.`.`.R.R.~.T.D.6 < > q.H.T.`.`.R.R.`.`.R.R.`.`.",
"`.`.R.R.`.`.R.R.`.`.R.R.* D.D.H.Y.`.`.R.R.`.`.R.R.`.`.R.R.`.`.R.T./.T.D.6 q T.`.R.R.`.`.R.R.`.`.R.R.",
"`.`.R.R.`.`.R.R.`.`.R.T.U.Y.R.R.R.`.`.R.R.`.`.R.R.`.`.R.R.`.`.R.R.`.`.Y.H.J.R.`.R.R.`.`.R.R.`.`.R.R.",
"R.R.`.`.R.R.`.`.R.R.`.`.~.T.R.`.`.R.R.`.`.R.R.`.`.R.R.`.`.R.R.`.`.R.R.`.(.~.T.R.`.`.R.R.`.`.R.R.`.`.",
"R.R.`.`.R.R.`.`.R.R.`.`.^.R.R.`.`.R.R.`.`.R.R.`.`.R.R.`.`.R.R.`.`.R.R.`.`.(.R.R.`.`.R.R.`.`.R.R.`.`.",
"`.`.R.R.`.`.R.R.`.`.R.R.~.`.`.R.R.`.`.R.R.`.`.R.R.`.`.R.R.`.`.R.R.`.`.R.R.~.`.`.R.R.`.`.R.R.`.`.R.R.",
"`.`.R.R.`.`.R.R.`.`.R.R.~.`.`.R.R.`.`.R.R.`.`.R.R.`.`.R.R.`.`.R.R.`.`.R.R.~.`.`.R.R.`.`.R.R.`.`.R.R."
};
