/* XPM */
static char *de88de85525d47edc340f3a1d220ced6kTxex0G3CKtQXOi1[] = {
/* columns rows colors chars-per-pixel */
"40 40 199 2 ",
"   c None",
".  c #583206",
"X  c #682F03",
"o  c #6C2F0F",
"O  c #612D02",
"+  c #683205",
"@  c #763F03",
"#  c #7B3C0A",
"$  c #733501",
"%  c #7B4802",
"&  c #714206",
"*  c #765013",
"=  c #844400",
"-  c #8A4C03",
";  c #81470E",
":  c #894C0B",
">  c #8D5400",
",  c #8D5A0D",
"<  c #935404",
"1  c #93580B",
"2  c #9E5F0F",
"3  c #9E5C04",
"4  c #804219",
"5  c #925212",
"6  c #955B16",
"7  c #9F5C10",
"8  c #B35F03",
"9  c #A05C12",
"0  c #996102",
"q  c #9A6801",
"w  c #9C610F",
"e  c #9E6511",
"r  c #9C631A",
"t  c #AB6504",
"y  c #A3630B",
"u  c #A6690F",
"i  c #AF6D09",
"p  c #AA6808",
"a  c #BB6F08",
"s  c #A07102",
"d  c #B07107",
"f  c #B4740D",
"g  c #BA760D",
"h  c #B77A0E",
"j  c #BB7F0E",
"k  c #B67D02",
"l  c #AC6D15",
"z  c #A76F1F",
"x  c #AB6611",
"c  c #AF7210",
"v  c #AB741C",
"b  c #B37613",
"n  c #BC7710",
"m  c #B57914",
"M  c #B7791D",
"N  c #BB7E1C",
"B  c #BD7F14",
"V  c #8C6930",
"C  c #A26C25",
"Z  c #BF7D28",
"A  c #C57B0D",
"S  c #B68007",
"D  c #BC810B",
"F  c #BF8515",
"G  c #BF801E",
"H  c #B38316",
"J  c #BC8222",
"K  c #C88107",
"L  c #CD8F00",
"P  c #C2810A",
"I  c #C5880B",
"U  c #CB8C0F",
"Y  c #C9850E",
"T  c #CB940D",
"R  c #C5930B",
"E  c #D2970F",
"W  c #D39A08",
"Q  c #D99C0E",
"!  c #CD8410",
"~  c #CA8E14",
"^  c #C3831D",
"/  c #C28818",
"(  c #CB8C1B",
")  c #C18313",
"_  c #D08211",
"`  c #D88C16",
"'  c #CE9315",
"]  c #CE941A",
"[  c #C59F19",
"{  c #C2901C",
"}  c #D29412",
"|  c #DB9511",
" . c #D4931D",
".. c #D99A1A",
"X. c #E49D12",
"o. c #E1951E",
"O. c #CDA00E",
"+. c #D6AB12",
"@. c #DCA41C",
"#. c #D0A81B",
"$. c #DAA417",
"%. c #F2B70B",
"&. c #E3A513",
"*. c #E8A714",
"=. c #EAA81A",
"-. c #E6A61C",
";. c #E5BA10",
":. c #E3B01F",
">. c #E5BE19",
",. c #F1B514",
"<. c #CC8B23",
"1. c #CB8B2B",
"2. c #D18E23",
"3. c #C9992E",
"4. c #D49A23",
"5. c #DB9D25",
"6. c #D7942B",
"7. c #D39B29",
"8. c #D19222",
"9. c #C0883A",
"0. c #C69435",
"q. c #CD9431",
"w. c #E09834",
"e. c #D3A323",
"r. c #DAA32B",
"t. c #DDAC29",
"y. c #D4AE32",
"u. c #D9A835",
"i. c #DDB736",
"p. c #DEB138",
"a. c #DFBD38",
"s. c #DBBE31",
"d. c #E4A428",
"f. c #ECA12F",
"g. c #E8AC26",
"h. c #F0A82C",
"j. c #EFB026",
"k. c #E5B32A",
"l. c #E3BB2E",
"z. c #E4B522",
"x. c #F7BE25",
"c. c #F8B925",
"v. c #F5B32A",
"b. c #ECAF39",
"n. c #E9AE33",
"m. c #E9BE37",
"M. c #E7B73C",
"N. c #EFB639",
"B. c #E8BD39",
"V. c #E0B533",
"C. c #F7B539",
"Z. c #F8B63C",
"A. c #F4B638",
"S. c #E4C120",
"D. c #EBC72D",
"F. c #F3C727",
"G. c #F8C728",
"H. c #EAC731",
"J. c #E5C03D",
"K. c #EEC33C",
"L. c #E6C639",
"P. c #F4C435",
"I. c #F6CC36",
"U. c #F2C23B",
"Y. c #F7C73A",
"T. c #EED43E",
"R. c #BA9862",
"E. c #D59842",
"W. c #DEA647",
"Q. c #D2AA46",
"!. c #F0B844",
"~. c #F9BB44",
"^. c #EBBB53",
"/. c #E5C242",
"(. c #E2CB47",
"). c #E3CC4C",
"_. c #EBCE49",
"`. c #EBCA45",
"'. c #FAC240",
"]. c #FBCE40",
"[. c #F7CC4B",
"{. c #F4C943",
"}. c #EDD04B",
"|. c #F3D846",
" X c #F4D44D",
".X c #F2D748",
"XX c #F2CD5F",
"oX c #F8CA52",
"OX c #ECD351",
"+X c #F1D755",
"@X c #F5DE5E",
"#X c #F5E25C",
"$X c #F6F058",
"%X c #FFCB64",
"&X c #F3C965",
"*X c #FEF267",
"=X c #FFF56F",
"-X c #F9EC7F",
";X c #FFFAE0",
/* pixels */
"                                                                                ",
"                                                                                ",
"                                                                                ",
"                                                                                ",
"                                                                                ",
"                                        4                                       ",
"                                        =                                       ",
"                                      (.o                                       ",
"                                      $X!.&                                     ",
"                                      .XC A.                                    ",
"                                    ).H.: v                                     ",
"                                    i.@X> : R.                                  ",
"                                  #X}.B.9 5 @                                   ",
"                                  J.g.i.= l 3                                   ",
"                                s.3.*XK.C O 0..                                 ",
"                2.l D m 7.4.h f M.`.s.T.% # q.3  .h.A <.( n. .t t.              ",
"              I.!.u.g 6.w.( 4.~ ' T.l. X- Z q _ A o.@._ ! a | %X|               ",
"                l.I.+.oXA f.p 5.i @. Xe.1 ; d.-.` b.Y.o.N.k ,.'                 ",
"                  |.k.>.@.P.8.1.r.1 F _.x &XA K Z.C.A L ) d k                   ",
"                    S.F.:.I Q } O.4.7.).+ 8 5.w W g - -.x.,.                    ",
"                        R T &X^.+.:.{.K.E ] K.' s n A l                         ",
"                          ] T.u.p.-X+Xc 9.q.0.y U.Q.J                           ",
"                            t./.J.=X1 r m : 5 # u 1                             ",
"                          Q.y.e.}.'.M + v.Y.9 b N v ;X                          ",
"                          /.e.).Y.y c > &.} =.1.Z.m ^                           ",
"                          D..X#.<.6 p ^ U F...x.n G M                           ",
"                          _.|.0 J y 2 / 4.U =.G.F e u                           ",
"                        P.OXX.' { 6 *     ' ! $.%.f ( D                         ",
"                        [ [.j.c <.            *.*.t.g ;.                        ",
"                        m.p 7.I                 | X.$.q.                        ",
"                      U.% w                       y.n.P m                       ",
"                      k.^                             &.6                       ",
"                      V                                                         ",
"                                                                                ",
"                                                                                ",
"                                                                                ",
"                                                                                ",
"                                                                                ",
"                                                                                ",
"                                                                                "
};
