/* XPM */
static char *_92f7992d5fa4c8d80ef0a78d5a8d98dAyzC9JiEvBWBID7M[] = {
/* columns rows colors chars-per-pixel */
"50 50 165 2 ",
"   c #010202",
".  c #090007",
"X  c #040608",
"o  c #05090B",
"O  c #0A0C0C",
"+  c #130103",
"@  c #1E0000",
"#  c #000313",
"$  c #030F14",
"%  c #001017",
"&  c #0F1112",
"*  c #0F1219",
"=  c #121314",
"-  c #131719",
";  c #1C1D1F",
":  c #350000",
">  c #01012B",
",  c #001D22",
"<  c #161E20",
"1  c #000235",
"2  c #00003C",
"3  c #1E2323",
"4  c #14252A",
"5  c #1A2C32",
"6  c #232526",
"7  c #252728",
"8  c #252A2B",
"9  c #2B2C2D",
"0  c #2B3031",
"q  c #283539",
"w  c #393D3E",
"e  c #460000",
"r  c #137500",
"t  c #000040",
"y  c #000854",
"u  c #00125D",
"i  c #1D2A49",
"p  c #001060",
"a  c #001C65",
"s  c #02226D",
"d  c #022275",
"f  c #294145",
"g  c #3D4245",
"h  c #35484C",
"j  c #434646",
"k  c #484B4D",
"l  c #5A4951",
"z  c #4C5151",
"x  c #515454",
"c  c #55595A",
"v  c #496A4F",
"b  c #5A6164",
"n  c #5F696B",
"m  c #636768",
"M  c #6B6E6E",
"N  c #656F73",
"B  c #696F71",
"V  c #757676",
"C  c #777778",
"Z  c #757B7D",
"A  c #7D7D7D",
"S  c #910102",
"D  c #D20000",
"F  c #DA0000",
"G  c #E30001",
"H  c #ED0000",
"J  c #ED000B",
"K  c #EA080E",
"L  c #F40000",
"P  c #F70008",
"I  c #EF0F18",
"U  c #F40012",
"Y  c #FC0011",
"T  c #CB0324",
"R  c #D52F47",
"E  c #F42A4A",
"W  c #F7304E",
"Q  c #FF3957",
"!  c #8C645C",
"~  c #8A6B74",
"^  c #A66971",
"/  c #E9445C",
"(  c #FF415F",
")  c #FF4765",
"_  c #198F00",
"`  c #1DA500",
"'  c #1EAA00",
"]  c #1FB200",
"[  c #458061",
"{  c #639B77",
"}  c #7EAA76",
"|  c #77E05F",
" . c #7ECA75",
".. c #FFFF09",
"X. c #FAF712",
"o. c #FFFF14",
"O. c #FFFF1C",
"+. c #C2DA34",
"@. c #FFFF22",
"#. c #FFFF2C",
"$. c #A3AB55",
"%. c #88D279",
"&. c #87F06E",
"*. c #87F968",
"=. c #95FF77",
"-. c #9AFF7F",
";. c #516790",
":. c #657D83",
">. c #717D80",
",. c #5369A9",
"<. c #4162B3",
"1. c #4A69B4",
"2. c #4669B8",
"3. c #4C6BBA",
"4. c #576EB2",
"5. c #5872BA",
"6. c #6178B2",
"7. c #4D6EC2",
"8. c #5473C2",
"9. c #728686",
"0. c #7E8181",
"q. c #789B82",
"w. c #6E8196",
"e. c #848484",
"r. c #8B8B8B",
"t. c #838E92",
"y. c #8B8F90",
"u. c #939393",
"i. c #929798",
"p. c #949D9F",
"a. c #9A9A9A",
"s. c #84B381",
"d. c #99A4A7",
"f. c #9EA4A5",
"g. c #A3A3A4",
"h. c #A7A8A7",
"j. c #A6ABAC",
"k. c #ABABAB",
"l. c #AAB1B2",
"z. c #B4B4B4",
"x. c #B6B7B8",
"c. c #BCBCBC",
"v. c #C0BEBE",
"b. c #95D888",
"n. c #9DF386",
"m. c #A4EF8D",
"M. c #A3FF86",
"N. c #ABFF8F",
"B. c #AFFF96",
"V. c #B2FA97",
"C. c #BDC3C4",
"Z. c #C2C2C2",
"A. c #C6C9CA",
"S. c #CACACB",
"D. c #D4D3D3",
"F. c #D7D9DA",
"G. c #DCDDDD",
"H. c #DEE1E1",
"J. c #E2E2E2",
"K. c #E8E7E7",
"L. c #E7E9E9",
"P. c #ECECEC",
"I. c #EEF0F1",
"U. c #F0F0F0",
"Y. c #FFFFFF",
/* pixels */
"Y.U.Y.U.Y.Y.U.Y.U.Y.U.Y.U.Y.U.U.Y.U.Y.U.Y.U.Y.U.Y.Y.U.Y.U.Y.U.Y.U.Y.U.U.Y.U.Y.U.Y.U.Y.U.Y.Y.U.Y.U.Y.",
"Y.U.Y.U.Y.Y.U.Y.U.Y.U.Y.U.Y.I.U.Y.U.Y.U.Y.U.Y.U.Y.Y.U.Y.U.Y.U.Y.U.Y.U.I.Y.U.Y.U.Y.U.Y.U.Y.Y.U.Y.U.Y.",
"U.Y.U.Y.U.U.Y.U.Y.U.Y.U.Y.U.Y.Y.U.Y.U.Y.U.Y.U.Y.U.P.Y.U.Y.U.Y.U.Y.U.Y.Y.U.Y.U.Y.U.Y.U.Y.U.U.Y.U.Y.U.",
"Y.U.Y.U.Y.Y.U.Y.U.Y.U.Y.U.Y.U.U.Y.U.Y.U.Y.U.Y.U.Y.Y.U.Y.U.Y.U.Y.U.Y.U.U.Y.U.Y.U.Y.U.Y.U.Y.Y.U.Y.U.Y.",
"Y.U.Y.U.Y.Y.U.Y.U.Y.U.Y.U.Y.U.U.Y.U.Y.U.Y.P.U.J.P.P.K.U.P.Y.U.Y.U.Y.U.U.Y.U.Y.U.Y.U.Y.U.Y.Y.U.Y.U.Y.",
"U.Y.U.Y.U.U.Y.U.Y.P.Y.U.Y.U.Y.Y.U.Y.P.Y.J.J.Z.Z.l.k.C.Z.J.J.Y.U.Y.U.Y.Y.U.Y.U.Y.U.Y.U.Y.U.U.Y.U.Y.U.",
"I.Y.U.Y.U.U.Y.U.Y.U.Y.U.Y.U.Y.Y.U.Y.L.K.c.h.r.e.A A ~ t.h.c.K.L.Y.P.Y.Y.U.Y.U.Y.P.Y.U.Y.U.U.Y.U.Y.U.",
"Y.U.Y.U.Y.Y.U.Y.U.Y.U.Y.U.Y.U.U.Y.K.G.h.r.a.V h.h.h.h.M m r.h.G.K.Y.U.U.Y.U.Y.U.Y.U.Y.U.Y.Y.U.Y.U.Y.",
"U.Y.U.Y.U.Y.U.U.Y.U.Y.U.Y.U.Y.U.U.D.g.u.0.h.a.g h.O 9 k.k.V m g.F.U.Y.U.U.Y.U.Y.U.Y.U.Y.Y.U.Y.U.Y.U.",
"U.Y.P.Y.U.U.Y.U.Y.U.Y.U.Y.U.Y.Y.D.h.h.c.i.z.z.k.k.  z.0 g k.c.x k.D.Y.Y.U.Y.U.Y.U.Y.U.Y.P.U.Y.U.Y.P.",
"Y.U.Y.U.Y.Y.U.Y.U.Y.U.Y.U.Y.U.J.x.a.Z.z.v.c.7 Z.z.x.;   r.k.6 Z.c z.J.U.Y.U.Y.U.Y.U.Y.U.Y.Y.U.Y.U.Y.",
"Y.U.Y.U.Y.Y.U.Y.U.Y.U.Y.U.Y.K.Z.r.A.Z.v.v.z.    v.z Z Z.Z.m c.Z.Z.r.v.K.Y.U.Y.U.Y.U.Y.U.Y.Y.U.Y.U.Y.",
"U.Y.U.Y.U.U.Y.U.Y.U.Y.U.Y.P.K.a.m g.Z.    X A.Z.D.D.Z.Z.Z.S.S.Z.z.6 f.K.P.Y.U.Y.U.Y.U.Y.P.U.Y.U.Y.U.",
"U.Y.U.Y.U.I.Y.U.Y.U.Y.U.Y.P.A.u.A.A.- D.A.4 j + S S + j A.M ; O A.A.c A.P.Y.U.Y.U.Y.U.Y.U.U.Y.U.Y.U.",
"Y.U.Y.U.Y.Y.U.Y.U.Y.U.Y.I.P.a.r.6 F.m S.D.o F D 1 1 D F o D.D.D.g.D.B a.P.U.Y.U.Y.U.Y.U.Y.Y.U.Y.U.Y.",
"U.Y.U.Y.U.U.Y.U.Y.U.Y.U.Y.A.e.F.J.y.X G.- F F F y y F F F * F.G.G.F.D.C S.Y.U.Y.U.Y.U.Y.U.U.Y.U.Y.U.",
"U.Y.U.Y.U.U.Y.U.Y.U.Y.U.Y.k.B J.J.L.H.$ G G G p u u u G G G % J.J.K.n & l.U.U.Y.U.Y.U.Y.U.U.Y.U.Y.U.",
"Y.U.Y.U.Y.Y.U.Y.U.Y.U.Y.G.f.U.d.4 w U.P J J a a a a a a P J P Y.P.% U.U.f.J.Y.U.Y.U.Y.U.Y.Y.U.Y.U.Y.",
"Y.U.Y.U.Y.Y.U.Y.U.Y.U.Y.S.r.I.>.I.Y., U Y s s s d s s s s Y U , U.J.U.U.r.D.Y.U.Y.U.Y.U.Y.Y.U.Y.U.Y.",
"U.Y.U.Y.U.U.Y.U.Y.U.Y.U.S.y.Y.Y.5 Y.T i d d d d d d d d d d i T Y.5 Y.Y.0 S.P.Y.U.Y.U.Y.U.U.Y.U.Y.I.",
"Y.U.Y.U.Y.Y.U.Y.U.Y.U.Y.z.N 5 j.q L.............................P.Y.>.Y.4 z.Y.U.Y.U.Y.U.Y.Y.P.Y.U.Y.",
"Y.U.Y.P.Y.Y.U.Y.U.Y.U.U.h.Z.C.p.Y.f o.o.o.o.o.o.X.v o.o.o.o.o.o.f d.Y.Y.j.h.U.U.Y.U.Y.U.Y.Y.U.Y.U.Y.",
"U.Y.U.Y.U.I.Y.U.Y.U.Y.J.g.U.A.h Y.l o.O.O.O.O.O.[ | O.O.O.O.O.o.l Y.f H.U.g.J.Y.U.Y.U.Y.U.U.Y.U.Y.U.",
"U.Y.U.Y.U.U.Y.U.Y.U.Y.J.a.Y.Y.Y.Y.R +.@.@.@.@.@.*.*.@.@.@.@.@.+.R Y.l.t.Y.a.J.Y.U.Y.U.Y.U.U.Y.U.Y.U.",
"Y.U.Y.U.Y.Y.U.Y.U.Y.U.P.u.Y.Y.Y.Y.E ! #.#.#.#.@.&.&.#.#.#.#.#.! E Y.Y.Y.Y.y.P.U.Y.U.Y.P.Y.Y.U.Y.U.Y.",
"U.Y.U.Y.U.U.Y.U.Y.U.Y.J.i.Y.9.d.Y.W E #.#.{ #.@.=. .#.#.$.#.#.E W Y.Y.Y.Y.a.J.Y.U.Y.U.Y.U.U.Y.U.Y.U.",
"U.Y.U.Y.U.U.Y.U.Y.U.Y.K.a.K.Y.I.Y./ Q <.<.%.;.<.-.%.<.;.n.<.<.Q / Y.d.8 J.a.J.Y.U.Y.U.Y.U.U.Y.U.Y.U.",
"Y.U.Y.U.Y.Y.U.Y.U.Y.U.U.a.F.S.k Y.~ Q 2.2.} M.1.M.M.1.n.M.2.2.Q ~ Y.P.G.F.a.U.U.Y.U.Y.U.Y.Y.U.Y.U.Y.",
"Y.U.Y.U.Y.Y.U.Y.U.Y.U.U.h.i.U.U.F.:.Q ^ s.,.7.m.,.,.q.3.7.b.^ ( :.J.  b 0.h.U.U.Y.U.Y.U.Y.Y.U.Y.U.Y.",
"U.Y.U.Y.U.U.Y.U.Y.U.Y.L.c.O w G.m l.I ) 8.b.9.8.m.b.8.4.N.5.) K l.  C.J.  c.P.Y.U.Y.U.Y.U.U.Y.U.Y.U.",
"U.Y.U.Y.U.U.Y.U.Y.U.Y.L.S.6 J.Z S.J.P G > V.V.w.5.5.6.B.V.> F L J.F.f.z.= S.P.Y.U.Y.U.Y.U.U.Y.U.Y.U.",
"Y.I.Y.U.Y.Y.U.Y.U.Y.U.Y.D.r.J.L.G.J.  G L > ' ' > > ` ] # H G   H.X Z.J.A D.Y.U.Y.U.Y.U.Y.Y.U.Y.U.Y.",
"U.Y.U.Y.U.U.Y.U.Y.U.Y.U.L.u.L.9 I.J.L.G G 1 r ' o # ' _ 1 G G K.  V U.J.u.K.U.Y.U.Y.U.Y.U.U.Y.U.Y.U.",
"U.Y.U.Y.U.U.Y.U.Y.P.Y.U.Y.h.X J.A J.J.  G L 2 t 1 2 2 2 L G   J.P.P.g.X h.Y.U.Y.U.Y.U.Y.U.P.Y.U.Y.U.",
"Y.U.Y.U.Y.Y.U.Y.U.Y.U.Y.P.D.M J.K.O J.J.: G . 2 1 2 2 . G : J.J.* J.3 m D.P.Y.U.Y.U.Y.U.Y.Y.U.Y.U.Y.",
"Y.U.Y.U.Y.Y.U.Y.U.Y.U.Y.U.K.a.y.  G.J.J.L.@ G 2 2 2 t G @ K.G.J.J.+ { u.P.P.Y.U.Y.U.Y.U.Y.Y.U.Y.U.Y.",
"U.Y.U.Y.U.P.Y.U.Y.U.Y.U.Y.K.Z.j G.J.K.< J.J.& e > 2 e & J.H.; L.J.G.9 Z.P.Y.U.Y.U.Y.U.Y.U.U.Y.U.Y.U.",
"Y.U.Y.U.Y.Y.U.Y.U.Y.U.Y.U.Y.F.u.w J.c   J.J.J.J.U.U.J.J.J.J.  c J.9 u.F.Y.U.Y.U.Y.U.Y.U.Y.Y.U.Y.U.Y.",
"Y.U.Y.U.Y.Y.U.Y.U.Y.U.Y.U.Y.K.c.e.K.G.g.G.J.  G.P.a.F.b G.J.f.J.J.~ C.L.Y.U.Y.U.Y.U.Y.U.Y.Y.U.Y.U.Y.",
"U.Y.U.Y.U.U.Y.U.Y.U.Y.U.Y.U.Y.P.h.6 K.J.J.G.A - X J.P.  J.J.G.K.; h.P.Y.I.Y.U.Y.U.Y.U.Y.U.U.Y.U.Y.U.",
"U.Y.U.Y.U.U.Y.U.Y.U.Y.U.Y.U.Y.Y.S.h.O P.J.J.P.F.7 F.S.; J.J.P.O h.S.Y.Y.U.Y.U.Y.U.Y.U.Y.U.U.Y.U.Y.U.",
"Y.U.Y.U.Y.Y.U.Y.U.Y.U.Y.U.Y.U.P.Y.S.g.9 h.J.J.{ K.7 J.K.J.g.7 g.S.Y.P.U.Y.U.Y.U.Y.U.Y.U.Y.Y.U.Y.U.Y.",
"U.Y.U.Y.U.U.Y.U.Y.U.Y.U.Y.U.Y.Y.U.U.S.k.C   i.I.J.J.P.y.  V l.S.U.U.Y.Y.U.Y.U.Y.U.Y.U.Y.U.U.Y.U.Y.U.",
"U.Y.U.Y.P.U.Y.U.Y.U.Y.U.Y.U.Y.Y.U.Y.P.J.x.g.~ k = = j A g.x.J.L.Y.U.Y.Y.U.Y.U.Y.P.Y.U.Y.P.U.Y.U.Y.U.",
"Y.U.Y.U.Y.Y.U.Y.U.Y.U.Y.U.Y.U.U.Y.U.Y.P.P.D.S.l.z.z.z.S.D.P.P.Y.U.Y.U.U.Y.U.Y.U.Y.U.Y.U.Y.Y.U.Y.U.Y.",
"Y.U.Y.U.Y.Y.U.Y.U.Y.U.Y.U.Y.U.U.Y.U.Y.U.Y.P.U.G.K.K.G.U.L.Y.U.Y.U.Y.U.U.Y.U.Y.U.Y.U.Y.U.Y.Y.U.Y.U.Y.",
"U.Y.U.Y.U.U.Y.U.Y.U.Y.U.Y.P.Y.Y.U.Y.U.Y.U.Y.U.Y.U.P.Y.U.Y.U.Y.U.Y.I.Y.Y.U.Y.U.Y.U.Y.U.Y.U.U.Y.U.Y.U.",
"U.Y.U.Y.U.U.Y.U.Y.U.Y.U.Y.U.Y.Y.U.Y.U.Y.U.Y.U.Y.U.U.Y.U.Y.U.Y.U.Y.U.Y.Y.U.Y.U.Y.U.Y.U.Y.U.U.Y.U.Y.U.",
"Y.U.Y.U.Y.Y.U.Y.U.Y.U.Y.U.Y.U.U.Y.U.Y.U.Y.U.Y.U.Y.Y.U.Y.U.Y.U.Y.U.Y.U.U.Y.U.Y.U.Y.U.Y.U.Y.Y.U.Y.U.Y.",
"U.Y.U.Y.U.I.Y.U.Y.U.Y.U.Y.U.Y.Y.U.Y.U.Y.U.Y.U.Y.P.U.Y.U.Y.U.Y.U.Y.U.Y.Y.U.Y.U.Y.U.Y.U.Y.U.U.Y.P.Y.U."
};
