/* XPM */
static char *_4a923ad8bb54d4ff487904c704e98dbHlUWbKOJggImvY4s[] = {
/* columns rows colors chars-per-pixel */
"50 50 170 2 ",
"   c #050404",
".  c #0B0504",
"X  c #0B0A06",
"o  c #06060A",
"O  c #0A0709",
"+  c #070A0A",
"@  c #0C0B0B",
"#  c #110D0D",
"$  c #11110D",
"%  c #0D0C12",
"&  c #120E11",
"*  c #0E1114",
"=  c #141313",
"-  c #1A1615",
";  c #131A16",
":  c #1A1915",
">  c #151419",
",  c #19161C",
"<  c #1B1B1B",
"1  c #201A16",
"2  c #221D1C",
"3  c #1D211D",
"4  c #23221D",
"5  c #2A251F",
"6  c #1C1C21",
"7  c #221E23",
"8  c #1E2222",
"9  c #1D2329",
"0  c #232323",
"q  c #2A2525",
"w  c #262A26",
"e  c #292925",
"r  c #242429",
"t  c #29262C",
"y  c #262A2D",
"u  c #2B2B2B",
"i  c #382722",
"p  c #332C2A",
"a  c #31322E",
"s  c #272831",
"d  c #2B2B31",
"f  c #2E2F38",
"g  c #312E34",
"h  c #2F3134",
"j  c #323234",
"k  c #3B3030",
"l  c #323937",
"z  c #383836",
"x  c #34343A",
"c  c #353939",
"v  c #3C3B3A",
"b  c #433A35",
"n  c #493C36",
"m  c #3D403D",
"M  c #43413C",
"N  c #4C413D",
"B  c #51443E",
"V  c #3B3541",
"C  c #363A42",
"Z  c #3A3A42",
"A  c #434343",
"S  c #4A4544",
"D  c #474A44",
"F  c #494A44",
"G  c #42404A",
"H  c #4B4B4B",
"J  c #4F514E",
"K  c #5D5047",
"L  c #57504A",
"P  c #59544E",
"I  c #444A50",
"U  c #4C4C54",
"Y  c #4C5253",
"T  c #545552",
"R  c #5B5652",
"E  c #5D5E57",
"W  c #5B5B5A",
"Q  c #625955",
"!  c #645956",
"~  c #5D625F",
"^  c #64625B",
"/  c #6B615C",
"(  c #6D685E",
")  c #72655F",
"_  c #5F5E63",
"`  c #5E6465",
"'  c #636463",
"]  c #616965",
"[  c #6D6A66",
"{  c #606669",
"}  c #676C6C",
"|  c #6C6B6B",
" . c #706E69",
".. c #72746D",
"X. c #666B72",
"o. c #6C7270",
"O. c #737673",
"+. c #7D7475",
"@. c #777873",
"#. c #797A76",
"$. c #77767C",
"%. c #777978",
"&. c #7A7A7A",
"*. c #837D7C",
"=. c #82827E",
"-. c #7B8486",
";. c #848583",
":. c #8A8786",
">. c #878986",
",. c #898987",
"<. c #8D8D8E",
"1. c #908B86",
"2. c #918D8C",
"3. c #93948F",
"4. c #8D9391",
"5. c #979795",
"6. c #9A9A9C",
"7. c #AF9C91",
"8. c #A09D9C",
"9. c #9FA49E",
"0. c #A6A19D",
"q. c #ADA69E",
"w. c #939CA6",
"e. c #9FA1A0",
"r. c #9FA5AC",
"t. c #A5A4A4",
"y. c #A7A6A9",
"u. c #A7A9A8",
"i. c #AEACAC",
"p. c #B1ACA5",
"a. c #A6B0AE",
"s. c #A8B0AC",
"d. c #A7B1B7",
"f. c #ACB0B4",
"g. c #B6B6B6",
"h. c #BDBDBC",
"j. c #C2BCBC",
"k. c #B3C0BF",
"l. c #CDC0BD",
"z. c gray77",
"x. c #CDC8C6",
"c. c #CDCDCE",
"v. c #D1D1CF",
"b. c #CED4D2",
"n. c #CFD5DC",
"m. c #D4D4D4",
"M. c #001B7A",
"N. c #001B7A",
"B. c #001B7A",
"V. c #001B7A",
"C. c #001B7A",
"Z. c #001B7A",
"A. c #001B7A",
"S. c #001B7A",
"D. c #001B7A",
"F. c #001B7A",
"G. c #001B7A",
"H. c #001B7A",
"J. c #001B7A",
"K. c #001B7A",
"L. c #001B7A",
"P. c #001B7A",
"I. c #001B7A",
"U. c #F6F6F9",
"Y. c #F6F9F8",
"T. c #FBFBFB",
"R. c #FAFDFE",
"E. c #001B7A",
"W. c #FCFDFC",
"Q. c #001B7A",
/* pixels */
"Q.D.Q.K.G.Q.D.Q.D.K.E.D.I.D.I.Y.H.Q.Z.Q.D.I.Y.D.Q.D.Q.D.K.Q.D.I.D.I.I.D.Q.Z.Q.D.K.Y.D.Q.D.E.H.D.Q.D.",
"D.Q.H.K.I.D.T.D.Q.K.D.T.D.Q.H.Y.E.D.E.D.Q.K.K.T.D.E.G.I.Y.D.T.D.E.F.K.Q.D.Q.D.Q.K.K.I.D.L.K.Y.Q.D.Q.",
"K.K.Y.K.K.K.K.K.K.K.H.K.K.K.K.I.D.K.K.K.K.K.Y.K.K.H.K.Y.K.K.I.A.K.L.K.K.K.K.K.K.K.Y.K.Y.K.K.K.K.K.K.",
"I.K.I.Y.K.K.K.I.K.K.K.K.T.K.K.K.K.K.K.I.K.I.Y.K.I.H.I.D.F.F.-.o.{ T.I.D.K.K.I.K.U.I.K.I.K.I.K.J.K.D.",
"G.E.D.K.Q.D.Q.D.I.K.K.Q.D.I.K.K.Q.D.I.K.I.G.G.E.D.Q.D.P.m.] ..9.a.a.Z.T.J.P.D.E.K.H.T.D.Q.D.I.Q.K.Q.",
"Q.D.T.I.D.Q.Z.Q.K.Y.T.A.Q.D.T.K.D.Q.A.Q.D.K.I.D.Q.Z.E.K.4.  i N @ a Q.D.Q.D.Q.G.H.I.D.Q.A.I.K.K.Q.G.",
"D.Q.K.F.Q.A.Q.D.I.K.D.Q.Z.Q.D.K.I.D.Q.D.Q.K.D.Q.A.Q.J.P.} 0 ( p.! 7 J.K.D.Q.D.I.K.D.Q.D.Q.D.K.E.D.Q.",
"I.D.T.K.D.T.D.I.D.K.Y.D.T.K.T.K.D.D.D.I.D.I.K.K.K.K.Z.N.$.; D O.w ; J.F.T.D.K.K.K.Z.D.I.K.K.K.G.I.D.",
"Y.K.D.I.K.L.K.K.K.K.K.K.I.D.T.K.G.K.K.I.K.K.J.K.} g x V U f & g * 0 C.D.Y.K.I.K.K.x.G.T.H.K.Y.K.K.K.",
"A.Q.K.K.K.J.E.K.T.Y.D.T.H.L.K.K.I.D.Q.Z.Q.D.$.  W r h d G G > , 6 f w.n.S.P.A.E.P.x.T.0.T.K.Y.T.D.Q.",
"Q.D.I.K.D.Q.D.Q.H.K.L.D.Q.D.T.K.D.Q.F.Q.Z.t.o.a e.#.O.w 9 r % j r U r.d.c i.D.Z.K.1.L R D.T.K.G.I.K.",
"A.Q.K.D.L.Z.Q.D.K.K.D.Q.Z.Q.G.I.T.D.Q.Z.u H z u.= } + ` X.C V j r 6 V d.k.O 3 E l.q.b . Q.G.G.I.D.Q.",
"Q.D.I.I.D.Q.A.Q.H.K.Q.D.Q.D.Q.K.K.Q.D.I.d m 0 L w X < c ` U y > g 7 r C f.v b D.=.*.[ $ Z.Y.K.D.Q.D.",
"J.L.D.K.Q.D.T.D.I.K.D.Q.D.I.K.K.K.K.I.K.X N 4 $ 2 X T x 9 9 s 6 t 7 & 6 7 k . :.8.v +.@ M.K.I.T.H.Y.",
"G.T.K.K.L.D.K.K.I.K.K.K.Y.K.K.K.I.J.Q.r X ! B ) ! . A c y I x r d , 9 ;.Y X 5 H.v ' | h G.K.I.I.K.I.",
"Q.D.K.I.K.T.D.T.K.K.Y.G.Q.K.Y.K.K.T.g.0 . K 7.:.b X r 6 s f h , t , r -.y # : P  .T u ' D.I.Y.D.I.K.",
"D.Q.K.K.E.D.Q.D.I.K.D.Q.A.Q.D.K.I.G.> @ ( ^ ( n . = , r s f Z y r , 6 r.@ % 4 5 1 $ | Z.Q.K.K.Q.D.T.",
"Q.D.Y.K.K.I.A.E.K.K.Y.D.Q.K.I.K.G.A.r O.3.5.*.[ o % ; c Z s s d = r > -.8 = M ^ / 4 L K.D.I.K.D.Q.D.",
"D.Q.K.K.I.D.K.K.Q.K.D.I.K.T.H.D.I.j <.0 @.=.T =.= @ @ = = = < @ = % $ Y ; o a : : @ K.M.I.K.K.T.D.E.",
"K.K.T.K.Y.K.Y.T.K.K.K.G.K.K.K.Y.K.r < v m [ a X = % @ o = W % = X X o ` ~ - 2 - @ : K.Y.F.I.L.K.K.K.",
"E.D.K.I.D.E.G.I.K.K.Q.D.Q.D.I.Y.j t O m T ^ : X + = ; q T D o @ # X @ l A j L.2.D.K.D.E.G.T.G.D.T.D.",
"D.I.K.K.T.D.Q.D.L.K.D.Q.Z.Q.G.K.r % @ q T ..z X + O e 0 a } = - , # - &.% b D.P.K.D.Q.Z.E.G.K.I.D.Q.",
"I.K.T.K.K.L.D.Q.K.K.K.Z.Q.G.T.7 V % % 0 @.5 5 # @ o e 0 - = # - u @ $ A 8 <.I.K.I.T.G.T.D.E.G.D.K.J.",
"A.Q.G.K.L.D.Q.G.L.K.D.Q.D.Q.K.t r + + < a 4 : j.X @ < @ % - # , < O = = % <.Z.Q.K.G.T.D.E.K.I.E.D.Q.",
"T.K.K.E.D.Q.D.I.K.K.L.D.Q.K.x 6 + @ O ; - 2 n i . # e % < ; + 6 > + 7 = + &.Q.K.G.Q.D.Q.H.K.Y.K.I.D.",
"K.D.D.J.K.K.K.K.K.K.Q.K.E.I.& x o X O @ u >.  . @ - 0 $ - + o > > u O @ @ W K.K.H.K.K.K.K.K.H.Y.T.K.",
"D.Q.K.K.I.D.T.D.I.K.D.T.S.t 6 o % + @ O >   u # O 8 = % = O o , r o @ @ @ W D.I.K.F.I.D.I.K.K.I.D.Q.",
"Q.D.I.E.D.Q.A.Q.G.K.Q.A.c.r x % % @ @ O @ ; a.O   : - @ % # o < m ; X @ = ,.Q.D.K.Q.D.Q.A.I.K.K.Q.G.",
"A.Q.D.H.Q.D.Q.Z.T.U.D.T.6 6 o % % @ @ @ O = & O O > % @ @ $ X 8 @ # O @ e T.Z.Q.H.D.E.D.Q.D.I.T.D.Q.",
"Q.D.I.K.D.Q.D.E.H.H.Q.j q 6 > & > % % @ @   & ' $ ; @ X X % @ 0 + X @ = ' D.Q.D.K.T.D.E.G.I.K.D.E.G.",
"K.K.Y.K.I.D.Q.K.K.D._ y , % > > = & $ = # @ # # O @ @ @ @ @ = 3 = + $ : D.K.G.L.K.K.I.K.I.K.K.K.D.I.",
"D.Q.K.J.Q.D.I.K.I.w.u , % , > , > - = # . @ @ O   $ @ = = O 7 ; X = $ $ v.K.D.Q.I.G.T.Z.Q.Y.K.I.D.Q.",
"Q.D.I.I.J.Q.Z.D.y.t u j > , , , , = 2 & # # # @ O $ @ = + $ u $ + & X w W Z.Q.D.K.I.D.Q.D.T.K.G.T.K.",
"Z.Q.D.K.L.D.Q.M.< 6 6 , > < 7 i.7 ' I.c.A.S 3 @ O @ @ ' 3 | z - $ < ~ F ' I.Z.Q.K.J.Q.Z.Q.D.K.I.D.Q.",
"Q.D.E.Y.F.Q.Z.% > , r o 2 , q S A I.D.K.A.I.P 0 W v = 5 4 T.= - 3 M X q m D.Q.D.K.Q.D.Q.D.I.I.D.I.G.",
"A.Q.D.K.L.Z.  @ = > , + g K.A.Q.I.D.E.D.Q.D.K.#.a w : @ - K.X 4 ; $ $ N Z.Q.Z.Q.K.D.T.D.I.K.K.Q.D.Q.",
"K.K.D.K.K.Z.= = = <   ,.I.K.I.K.I.K.K.K.K.K.K.O a - $ < : B.- 4 e $ = < D.K.K.K.K.Y.K.K.K.K.Y.K.I.K.",
"Q.D.Q.K.Z.W = = = < h.K.K.H.I.E.D.Q.D.Q.D.I.K.% H < $ = u K.p q v # - K.T.K.T.D.K.K.K.I.K.I.G.D.I.D.",
"D.Q.K.G.I.  - = @ - K.Q.D.Q.G.I.K.D.T.D.Q.D.K.@ = < 0 4 @.K.e q q 2 H I.D.Q.D.T.Y.D.Q.D.Q.G.K.I.D.E.",
"Q.D.K.I.D.o = = @ = A.Z.Q.A.Q.K.D.Q.Z.Q.D.K.Q.> O ; = = v.E.D.: q : D.D.Q.A.Q.D.K.E.D.Q.D.T.K.D.Q.H.",
"D.Q.D.I.Q.= @ < u O W Q.D.T.D.J.Q.D.Q.D.Q.K.Y.S @ $ < ! L.K.t.0 : 2 -.E.D.E.D.Q.K.H.K.K.E.D.Q.Q.K.I.",
"Q.G.T.I.J.I.Z.6.y 3 O D.T.K.K.K.K.I.D.Q.K.L.K.t.= = ; 5.K.K.2 - - q j ' Q.K.Q.J.I.I.Y.K.K.I.K.G.I.J.",
"K.K.K.K.K.K.K.K.K.K.O K.L.K.K.K.K.Y.K.K.K.K.K.>.= - ; K.K.K.q = # < z : e V.Z.D.D.D.K.K.K.K.K.K.K.K.",
"D.Q.H.K.Q.D.Q.D.K.K.D.  I.T.H.K.I.A.Q.D.Q.K.K.%.< 8 S K.T.H.z.T   - = < q e q > K.D.Q.D.Q.K.K.Q.K.K.",
"Q.D.I.I.D.Q.Z.T.D.K.Q.D.I.D.T.F.D.Q.D.Q.D.K.J.% = < 0 D.K.Q.D.Q.D.I.K.K.K.h.^ b.K.Q.D.Q.Z.Q.K.H.Q.D.",
"D.Q.K.K.Q.D.Q.D.I.K.D.Q.A.Q.D.K.I.Z.Q.D.Q.K.B.- ; - 6 >.K.Z.Q.Z.Q.D.K.I.D.Q.D.E.K.D.Q.D.Q.D.K.Q.D.T.",
"E.D.Q.K.K.T.D.Q.G.K.I.Z.Q.D.Q.K.D.Q.A.Q.D.I.h.= = = @ D D.I.Z.Q.D.Q.Y.D.Q.Z.Q.G.I.I.K.I.D.Q.D.D.I.K.",
"Y.K.K.Y.K.I.K.K.Y.K.K.K.K.K.L.K.I.K.K.I.Y.K.D.K.D.D.K.Q.K.H.K.G.K.K.K.K.I.K.K.K.K.Y.K.I.K.K.K.K.I.K.",
"H.K.K.K.I.K.K.K.Y.K.K.K.K.L.K.K.I.K.I.K.K.K.K.I.K.K.K.L.K.H.K.K.K.K.K.Y.K.K.K.K.K.K.I.K.Y.K.K.K.H.E.",
"Q.A.I.K.D.Q.D.Q.D.K.Q.D.Q.D.Q.K.D.Q.A.Q.A.L.Y.D.Q.D.Q.F.D.Q.D.Q.D.Q.I.D.Q.D.Q.D.K.I.A.Q.D.T.H.D.E.H."
};
