/* XPM */
static char *_dd650a332d04fb4b625b5bec612cdf9EDlPddKL8wpzOk1S[] = {
/* columns rows colors chars-per-pixel */
"50 50 44 1 ",
"  c black",
". c #070707",
"X c gray10",
"o c gray11",
"O c #202020",
"+ c #2A2A2A",
"@ c #353535",
"# c #4B4A4A",
"$ c #4C4C4C",
"% c gray33",
"& c #686565",
"* c gray43",
"= c #E3272E",
"- c #E2282E",
"; c #E32C33",
": c #E42E35",
"> c #E43037",
", c #E5363C",
"< c #E53B41",
"1 c #E63C42",
"2 c #E63F45",
"3 c #E7454B",
"4 c #DE787C",
"5 c gray51",
"6 c #8D8D8D",
"7 c gray59",
"8 c #A89697",
"9 c #B2B2B2",
"0 c gray72",
"q c #D1B4B5",
"w c #E5B2B4",
"e c #DDBFC0",
"r c #E6E6E6",
"t c #E9E9E9",
"y c #ECEAEA",
"u c gray93",
"i c #F1E4E5",
"p c #F5E8E9",
"a c #F1F1F1",
"s c #F5F0F0",
"d c #F6F6F6",
"f c #F8F2F2",
"g c #FBFBFB",
"h c white",
/* pixels */
"hrrhrhtrhrhhrhruhrhrrhrhhrhrhhrhrrhrharhrhhrhrrhrh",
"tggtgtggtgttgtgdtgtggtgttgtgttgtggtgtagtgttgtggtgt",
"rhhrhrghrhrrhrhdrhr hrhrrhrhrraqhhrhrahrhrrhrhhrhr",
"hrrhrhtrhrhhrhruhrhh          h rrhrharhrhhrhrrhrh",
"rhhrhrhhrhrrhrhdrh hhh      hhh hhrhrahrhrrhrhhrhr",
"rhhrhrghrhrrhrhgrh hhh      hhh hhrhrahrhrrhrhhrhr",
"hrrhrhtrhrhhrhrthX hhh      hhh  rhrharhrhhrhrrhrh",
"rhhrhrghrhrrhrhgr  h @  +h   h   hrhtahrhrrhrhhrhr",
"rhhrhrghrhrrhrhd   h 8   h   hh   rhrahrhrrhrhhrhr",
"hrrhrhtrhrhhrhru   h     h   5h   *rharhrhhrhrrhrh",
"rhhrhrhhrhrrhrh    h     h    h    hrahrhrrhrhhrhr",
"rhhrhrghrhrrhrhd   h h  oh   h9    hrahrhrrhrhhrhr",
"hrrhrhrrhrhhrhru   h h Xhh   h    hrharhrhhrhrrhrh",
"rhhrhrhhrhrrhrhd   h     h   h    rhrahrhrrhrhhrhr",
"rhhrhrghrhrrhrhdr  hhh      hhh   rhrahrhrrhrhhrhr",
"hrrhrhtrhrhhrhruh  hhh      hhh  uhrharhrhhrhrrhrh",
"rhhrhrghrhrrhrhdr  hhh      hhh  hrhrahrhrrhrhhrhr",
"rhhrhrhhrhrrhrhdr  hhhiy12h<hhh  hrhrahrhrrhrhhrhr",
"hrrhrhtrhrhhrhruh  hhh222222hhh  rhrhathrhhrhrrhrh",
"rhhrhrghrhrrhrhdr  hhp222;222hh  grhrahrhrrhrhhrhr",
"udaaaaddadaadaada  hh:222h222hh   adaadadaaaadaada",
"hrrhrhtrhrhhrhruh  hhh2221222hh   hrharhrhhrhrrhrh",
"rhhrhrghrhrrhrhd&  hhh2=22222hh   rhrahrhrrhrhhrhr",
"hrrhrhtrhrhhrhru   hhh2222222hh   hrharhrhhrhrrhrh",
"hrrhrhtrhrhhrhru   hhh22222h2hh   hrharhrhhrhrrhrh",
"rhhrhrhhrhrrhrhd   hh2>2222h2hh   rhrahrhrrhrhhrhr",
"hrrhrhrrhrhhrhru   hh2>2222h2hh   %rharhrhhrhrrhrh",
"hrrhrhtrhrhhrhru   hh22h222h2hh    rharhrhhrhrrhrh",
"rhhrhrhhrhrrhrhd   hh22h:2hf2hh    hrahrhrrhrhhrhr",
"hrrhrhrrhrhhrhrh   hh42hhhh22hh    rharhrhhrhrrhrh",
"hrrhrhtrhrhhrhr0   hhh22hh32whh    rharhrhhrhrrhrh",
"rhhrhrhhrhrrhrh7   hhhh2222-hhh    hrahrhrrhrhhrhr",
"hrrhrhtrhrhhrhra   hhh 9,2h hhh    rharhrhhrhrrhrh",
"hrrhrhtrhrhhrhru   hhh   d  hhh    rharhrhhrhrrhrh",
"rhhrhrhhrhrrhrhd   hhh      hhh    hrahrhrrhrhhrhr",
"hrrhrhrrhrhhrhru   hh  h  g h h   0rharhrhhrhrrhrh",
"hrrhrhrrhrhhrhru   hh   h  6 hh   hrharhrhhrhrrhrh",
"rhhrhrhhrhrrhrhd   hh   hs hh h   rhrahrhrrhrhhrhr",
"hrrhrhrrhrhhrhruh  hh  hhh hhhh   hrharhrhhrhrrhrh",
"hrrhrhtrhrhhrhruh  hh   h# h hh  rhrharhrhhrhrrhrh",
"rhhrhrghrhrrhrhdrh hh  @    $%h  hrhrahrhrrhrhhrhr",
"hrrhrhtrhrhhrhruhr hhh      hhh rrhrharhrhhrhrrhrh",
"uddududduduudugaudu hh      hhOudguduaduduududdudu",
"rhhrhrghrhrrhrhdrhrh e      h hrhhrhtahrhrrhrhhrhr",
"hrrhrhtrhrhhrhruhrhrrh      hhrhrrhrharhrhhrhrrhrh",
"rhhrhrhhrhrrhrhdrhrhhrh.   hrrhrhhrhrahrhrrhrhhrhr",
"rhhrhrhhrhrrhrhdrhrhhrhr  rhrrhrhhrhrahrhrrhrhhrhr",
"hrrhrhrrhrhhrhruhrhrrhrhh hrhhrhrrhrharhrhhrhrrhrh",
"rhhrhrhhrhrrhrhdrhrhhrhrrhrhrrhrhhrhrahrhrrhrhhrhr",
"rhhrhrghrhrrhrhdrhrhhrhrrhrhrrhrhhrhrahrhrrhrhhrhr"
};
