/* XPM */
static char *fe7d0a4cff0a4aead74cab4f7b852c68VoKuUuNDrA6tgFVh[] = {
/* columns rows colors chars-per-pixel */
"50 50 251 2 ",
"   c #890307",
".  c #9A0305",
"X  c #990B17",
"o  c #8F1014",
"O  c #96161D",
"+  c #A20204",
"@  c #AB0302",
"#  c #A90908",
"$  c #B30202",
"%  c #BB0303",
"&  c #B60C04",
"*  c #AB1908",
"=  c #B91809",
"-  c #B91B0B",
";  c #AA0B14",
":  c #BB0D13",
">  c #A91717",
",  c #B81917",
"<  c #943B1A",
"1  c #B92608",
"2  c #B12E0E",
"3  c #BB2314",
"4  c #B92619",
"5  c #B73B17",
"6  c #9B0F20",
"7  c #9B1522",
"8  c #A71825",
"9  c #B61C23",
"0  c #A72529",
"q  c #BA2426",
"w  c #B93728",
"e  c #B82B35",
"r  c #B1343B",
"t  c #C60A04",
"y  c #C31302",
"u  c #C31A03",
"i  c #C71906",
"p  c #C11A16",
"a  c #C72808",
"s  c #D12D03",
"d  c #CC3504",
"f  c #C63808",
"g  c #D53B03",
"h  c #D2360A",
"j  c #C82915",
"k  c #C5241B",
"l  c #C93317",
"z  c #D33A18",
"x  c #C52725",
"c  c #CC3221",
"v  c #CB3928",
"b  c #D23D25",
"n  c #C12E38",
"m  c #C83639",
"M  c #A74C19",
"N  c #B3581A",
"B  c #BF6318",
"V  c #914832",
"C  c #AF4E2D",
"Z  c #CB4609",
"A  c #D34304",
"S  c #D64808",
"D  c #CA570E",
"F  c #DC5403",
"G  c #DB5D04",
"H  c #D45609",
"J  c #C64416",
"K  c #D54B1A",
"L  c #D85717",
"P  c #E15905",
"I  c #DA6A07",
"U  c #DC620C",
"Y  c #DB7908",
"T  c #C56919",
"R  c #D86518",
"E  c #C97012",
"W  c #DB7614",
"Q  c #E46903",
"!  c #E37404",
"~  c #E97B05",
"^  c #E16D1D",
"/  c #E17C15",
"(  c #CD4528",
")  c #D34428",
"_  c #D55423",
"`  c #CD5031",
"'  c #D55B37",
"]  c #D96A23",
"[  c #CD7827",
"{  c #CD7230",
"}  c #E06A29",
"|  c #E47827",
" . c #E4793A",
".. c #BE3E48",
"X. c #BD4347",
"o. c #BF7044",
"O. c #BB5868",
"+. c #CD4B4A",
"@. c #CC555A",
"#. c #D45458",
"$. c #D16E48",
"%. c #DD6458",
"&. c #C85563",
"*. c #DA7072",
"=. c #E16962",
"-. c #DC8216",
";. c #E88607",
":. c #ED8A04",
">. c #F68501",
",. c #F38A02",
"<. c #EE9607",
"1. c #F69704",
"2. c #F19B02",
"3. c #E98817",
"4. c #EA971B",
"5. c #F29C18",
"6. c #F3A303",
"7. c #F8A705",
"8. c #FCAB02",
"9. c #FDB402",
"0. c #FEBB03",
"q. c #FCB80D",
"w. c #EFA31D",
"e. c #F4A919",
"r. c #FBB81A",
"t. c #DC8927",
"y. c #D58436",
"u. c #E38B22",
"i. c #E68628",
"p. c #E99827",
"a. c #F19C24",
"s. c #E78A36",
"d. c #E89534",
"f. c #EB953C",
"g. c #F09E32",
"h. c #ECA32E",
"j. c #F3A825",
"k. c #F8B527",
"l. c #ECA73A",
"z. c #F2A937",
"x. c #F9B836",
"c. c #FEC506",
"v. c #FFCC05",
"b. c #FECB15",
"n. c #FFD01E",
"m. c #FEC927",
"M. c #FDC32D",
"N. c #FED022",
"B. c #FDC434",
"V. c #FDC83A",
"C. c #B8826E",
"Z. c #D48747",
"A. c #D9904E",
"S. c #E89848",
"D. c #E78854",
"F. c #E59A59",
"G. c #EDAA47",
"H. c #F4AD4A",
"J. c #F2B243",
"K. c #F3B44A",
"L. c #F7BB4B",
"P. c #ECAD55",
"I. c #E7A358",
"U. c #F2B354",
"Y. c #F4BA55",
"T. c #F1B158",
"R. c #F3BB5B",
"E. c #DF9676",
"W. c #E68F6C",
"Q. c #E89466",
"!. c #E7A763",
"~. c #EFBA63",
"^. c #EDB26B",
"/. c #EEBC6C",
"(. c #F3BC63",
"). c #F2BA6B",
"_. c #E6AA78",
"`. c #EDB776",
"'. c #F1B977",
"]. c #FCC54A",
"[. c #FED44A",
"{. c #FAC252",
"}. c #FDCB52",
"|. c #FAC45C",
" X c #FCCC5B",
".X c #FED659",
"XX c #FBCB63",
"oX c #F9C66B",
"OX c #FED56A",
"+X c #EDC27E",
"@X c #F2C474",
"#X c #FACC75",
"$X c #F6C87B",
"%X c #FDD677",
"&X c #FDD974",
"*X c #D57384",
"=X c #DB8886",
"-X c #E2888D",
";X c #DCB194",
":X c #ECB889",
">X c #E9B997",
",X c #E5BEA3",
"<X c #F1ABB0",
"1X c #EEC789",
"2X c #F4C886",
"3X c #F9CC83",
"4X c #F5CD8B",
"5X c #FBD384",
"6X c #FCD88B",
"7X c #EFC998",
"8X c #F5CB96",
"9X c #F1CD94",
"0X c #FAD594",
"qX c #FCDC93",
"wX c #F4D19B",
"eX c #F9D498",
"rX c #FBDB9B",
"tX c #FDE19F",
"yX c #ECCAA7",
"uX c #F0C9AD",
"iX c #F2D3A4",
"pX c #F9D4A4",
"aX c #FADBA3",
"sX c #F2D5AC",
"dX c #F5D9AD",
"fX c #F9DCAC",
"gX c #E9C7B6",
"hX c #EED3B8",
"jX c #F2D8B5",
"kX c #F5DBB4",
"lX c #F9DEB3",
"zX c #FCE0A1",
"xX c #FBE2AE",
"cX c #FBE3B3",
"vX c #F9E3BB",
"bX c #F9E4BD",
"nX c #E9B3C9",
"mX c #F2DCC2",
"MX c #EED7D1",
"NX c #F6E1C2",
"BX c #F9E6C3",
"VX c #F8E8C9",
"CX c #EAE2DD",
"ZX c #F5E6D4",
"AX c #F9EED4",
"SX c #E9E4E2",
"DX c #001B7A",
"FX c #F2EAE8",
"GX c #001B7A",
"HX c #F8F1F2",
"JX c #001B7A",
/* pixels */
"JXDXJXJXDXJXDXJXDXDXJXDXJXDXJXJXDXJXDXJXDXGXJXDXJXDXJXGXGXJXDXJXDXJXJXDXJXDXJXJXDXJXDXJXDXDXJXDXJXDX",
"DXJXDXDXJXDXJXDXJXJXDXJXDXJXDXDXJXDXJXDXJXGXDXJXDXJXDXJXJXDXJXDXJXDXDXJXDXJXDXDXJXDXJXDXJXJXDXJXDXJX",
"JXDXJXJXDXJXDXJXDXGXJXDXJXDXJXJXDXJXDXJXDXJXJXDXJXDXJXGXGXJXDXJXDXJXJXDXJXDXJXJXDXJXDXJXDXDXJXDXJXDX",
"GXJXGXGXGXGXJXGXGXJXGXHXGXJXGXGXJXGXJXGXJXGXGXGXGXGXGXGXGXGXGXGXJXGXGXGXGXJXGXGXGXGXJXGXJXGXGXJXGXGX",
"DXJXDXDXJXDXJXDXJXJXDXJXDXJXDXDXJXDXJXDXJXGX$.F.A.Z.;XmXJXDXJXDXJXDXDXJXDXJXDXDXJXDXJXDXJXJXDXJXDXJX",
"JXDXJXJXDXJXDXJXDXDXJXDXJXDXJXJXDX_.{ t.h.9XBXfXVX4X@X4.p.4.t.E DXJXJXDXJXDXJXJXDXJXDXJXDXDXJXDXJXDX",
"DXJXDXDXJXDXJXDXJXJXDXJXDXJXSX+XY.AXxX:X9X4Xj.K.R.iXz.kXk.#Xj.8.u.a.V JXDXJXDXDXJXDXJXDXJXJXDXJXDXJX",
"JXDXJXJXDXJXDXJXDXDXJXDXJXZ.{ @X9X_.yXE.M Q F '.4.l.gXjXsXwXx.iXk.5.k.z.hXDXJXJXDXJXDXJXDXGXJXDXJXDX",
"DXJXDXDXJXDXJXDXJXJXDX$.z.G.u.U.iXl.R i.~ ;.1.8.9X<.e.7X7XsX5.e.9.qXsXrX2X7XFXDXJXDXJXDXJXJXDXJXDXJX",
"JXDXJXJXDXJXDXJXDXGX@X].x.fXiXP.h.u.1 0 # 2 hX8.0.tXoXZ * # ; 0 pX].5.m.$Xj.<.gXDXJXDXJXDXDXJXDXJXDX",
"DXJXGXGXJXDXJXDXJXl.@X5XxXpXx.:.-.Y 2 @.q d 1 c.c.fXz.$ , h l - ,XvX].3XrX0Xx.L.[ DXJXDXJXJXDXJXGXJX",
"DXJXDXDXJXDXJXDXG.kXzXkX .S.^.8.<.M D o +.%.' hX5X5X> S S a 5 l k.XX(. Xm.fX:X2.K.l.JXDXJXJXDXJXDXJX",
"JXDXJXJXDXJXDX~./.l.XXS.] *.:X7.9.P.= m K nX*X-.XXZXI n A t R 3.k.5Xq.Y.oX<.f.z.<.w.;XJXDXDXJXDXJXDX",
"DXJXDXDXJXDXZXwXx.B.:XW.O X 9 & G  X' . %./ =.5XVXAXaX= =X% I @.k.}.$Xo f I.x.x.G ;.4XDXJXJXDXJXDXJX",
"JXDXJXJXDXJXJ.x.lXu.s.{ - 8 G *.K &XAXZXl f.#XVX}..Xb.rXQ & vXv.AX8.# - a 7 5 k.h.I K.P.DXDXJXDXJXDX",
"DXJXDXDXJXI.Y.T.3X@X@X6 3 j )  .4 XXv.cXb.9.1. .. H w &X%Xv.B.c.AX>.X m Q x ` ;.8.a.!.|.JXJXDXJXDXJX",
"JXDXJXJXDX(.Y.yX`.0.OX2 x k 4 y n OXv.cXxX5X}.K j $ @ E.wXXX1.8.8.1.@ ( l n $ $.S.2XG 4XB GXJXDXJXDX",
"DXJXDXDXJXJ.iXs.L.&XvX1X> e w e wXOX[.tXx.b.( H z W K ; oXtXF.9.9.B., $ c z U pX7.:Xa.] J.JXDXJXDXJX",
"DXJXDXDXV (.] g.$X}.XXq.k.k.;.OXeXA = { %X8XS Z  ._ c K v.AX0X0.0X.Xz.d i ~ BX8.oXiX0XsXd.!.DXJXDXJX",
"JXDXJXJXG.@Xg.6.z.k Z g 9.}.v.cXj / D v $.aXM.y =.g e | m.cX_ A > J &XM.H.OX[.xXmXgXwXwXW p.JXDXJXDX",
"DXJXDXDXh.l.| 3.*X% K + 5 5.9.1.) l h s , xXrXeXz Q F.c.c.S v G K K Z &X9.aX9.b.OX5.w.9XZ R.DXJXDXJX",
"JXDXJXJX9Xf.W.Q j x S n ; ^.B.jXs | ;.% e qXlXc.XXaXtXxXOXv Q g MXs @ 6XbXY.9X#X7.iXK.k.,X9XgXDXJXDX",
"DXJXDXC.(.U.<.A d m Q l * 1.0XlX>.} F <XfXbXe.Z.lXy.8XlXpX' Q t +.% @ aX].% s x u 5 lXL.:X1XA.JXDXJX",
"JXDXJX[ (.@Xu.`.1 j k X ] R.qX0XvXV.lX.X6Xr.# u +.| & 6Xs.3Xd.g @ *.:.BX* - : a q H `.6X3.G.W DXJXDX",
"DXJXDXA.1X4.$XQ i.* E u.e.1.M.@X: 3 %XVX6X* x % % +.L kXiXx.B./ S L.V..X+ +.t c S 3 T.V.f e.3.JXDXJX",
"DXJXDXZ.wXQ.7Xk.h.}.#Xx.v.n.5   + - - 7XkXJ : b l m nXH.AXBXb.].}.C sXV.(.i U h a 9 7XmXL.|.-.JXDXJX",
"JXDXJX,X1XW `.3.4 a = (.N.].8 $ j #.-X> ZX Xu l A p i pX|.ZX:XeXa h % #.b.-XA d = >X~ XXq. Xl.DXJXDX",
"DXJXDXCXl.H W.o 7 w p a 4.k.& #.) t y 8 m.OXr.j X.$.mXrXB. .).S.@ <XK $ F OXeXq.fX0X6X9Xs.kX< JXDXJX",
"JXDXJXHXp.@XI O.O ` x d H {., f F A j i.cX6XkXlXb.rX, , Z :.wXR L S m h I VX[.cX3X{.aXS.F ^.y.DXJXDX",
"DXJXDXDXp.>XY > 9 4 9 ( 1 B.dX. F = 5 P.bXVXfXNXsXE j x 4 > jXqXj h P s.%X X:.5XJ.5XsXQ , T.SXJXDXJX",
"JXDXJXJXt.S.D.M 7 > , + '.V.0XOXq.aX8.p P ,.U.iXM ' q T 3 . U.6XM.3.@Xj.a + ; , 4XmX:X$.J 2XJXDXJXDX",
"DXJXDXDXFXk.A 2.F.@.q ;.0X8.dX1.e.m.` $ A K k 6X4 8 &.@.1 a 9.6XM.m.M.( Q f ..> %.:Xj E.|.3XDXJXDXJX",
"DXJXDXDXJXJ.! G (.0.V.#X-., % y 8.7.*.t z b i lX:XO ; K h = 9.0..XkXk.t l 5 , * O f.| ] 8XT DXJXDXJX",
"JXDXJXJXDXR.k.Q a.6XA.kX$ #.s t A fXG i +.Q ) rXkX>X8 ( /.>.:.8.9.%XH.w 4 = ..> r | G D.U.FXJXDXJXDX",
"DXJXDXDXJXDX7.6.j.6.yX>Xs t b L + 3X%X- # - ! .Xq.<.z.>.6.5.* X . Z. X^.a X 0 e ^.R uX7XG.JXDXJXDXJX",
"JXDXJXJXDXJX{ K.7.! 7X~.c G y h * k.e.aXpX0X#XY f R ,.r.x.> $ % Z   4X}.P.Y -.Y Y 7XU.L.DXDXJXDXJXDX",
"DXJXDXDXJXDXJX .@Xh.:.H 0 r 1 & | dX<.e.R.,.- 0 1 f d bXk.  G ' : I O.#Xm.s.s.sXsXVX/ yXJXJXDXJXDXJX",
"JXDXJXJXDXJXDXJXT 6.7.8.3.D.Z.2XaXW 7X:.^.O 1 : k a t rXV.+ @ Q t f X G.l.R.iXjXp.|.~.JXDXGXJXDXJXDX",
"DXJXDXDXJXDXJXDXJXN fXe.:.u.~.R rX6X:X8XdXZ a , = l a {.b._.d @ - j  .^ ).mXdX4X).t.JXDXJXJXDXJXDXJX",
"DXJXDXDXJXDXJXDXJXJXM 6.e.e.I R S.jXVXm.jXF.# f . @.0 W &XtXw.%.C ! g K /.wXT { t.DXJXDXJXJXDXJXDXJX",
"JXDXJXJXDXJXDXJXDXDXJXN t.w.8.;.R R p. XwX{.sX  0 U :.] uXE.:X>X] R `.`.U.7Xd.I.DXJXDXJXDXDXJXDXJXDX",
"DXJXDXDXJXDXJXDXJXJXDXJXV y.@Xj.z.;.Q.`.U.e.M.<.;.p.;.4.;.G s L ~ P.1X1XbXK.yXDXJXDXJXDXJXJXDXJXDXJX",
"JXDXJXJXDXJXDXJXDXDXJXDXJXDXM 1XR.I K I p.I.oX| 5.Q.;.:.l.:X2X`.9X$X-.-.I.DXJXJXDXJXDXJXDXDXJXDXJXDX",
"DXJXDXDXJXDXJXDXJXJXDXJXDXJXDXDX-.:X~.G.G. .1 s e.{.@XiXG.8XbXBX4Xu.o.JXDXJXDXDXJXDXJXDXJXJXDXJXDXJX",
"JXDXJXJXDXJXDXJXDXDXJXDXJXDXJXJXDXJXC N E h.8X4X@X@X1X/.rXY.u.[ DXJXJXDXJXDXJXJXDXJXDXJXDXDXJXDXJXDX",
"DXJXDXDXJXDXJXDXJXJXDXJXDXJXDXDXJXDXJXGXJXGXDXJXDXJXGXHXJXDXJXDXJXDXDXJXDXJXDXDXJXDXJXDXJXJXDXJXDXJX",
"DXJXDXDXJXDXJXDXJXJXDXJXDXJXDXDXJXDXJXDXJXGXDXJXDXJXDXGXJXDXJXDXJXDXDXJXDXJXDXDXJXDXJXDXJXJXDXJXDXJX",
"JXDXJXJXDXJXDXJXDXDXJXDXJXDXJXJXDXJXDXJXDXGXJXDXJXDXJXGXDXJXDXJXDXJXJXDXJXDXJXJXDXJXDXJXDXDXJXDXJXDX",
"DXJXDXDXJXDXJXDXJXJXDXJXDXJXDXDXJXDXJXDXJXGXDXJXDXJXDXGXJXDXJXDXJXDXDXJXDXJXDXDXJXDXJXDXJXJXDXJXDXJX",
"JXDXJXJXDXJXDXJXDXGXJXDXJXDXJXJXDXJXDXJXDXJXJXDXJXDXJXGXDXJXDXJXDXJXJXDXJXDXJXJXDXJXDXJXDXDXJXDXJXDX"
};
