/* XPM */
static char *_017e129e57f4f50862825007fa66117ZW0oCyrgvVrfdhK0[] = {
/* columns rows colors chars-per-pixel */
"50 50 193 2 ",
"   c #1A1918",
".  c #2C291D",
"X  c #312C1F",
"o  c #3B311F",
"O  c #3D391B",
"+  c #2C2A25",
"@  c #322C22",
"#  c #382F23",
"$  c #312E2D",
"%  c #3D3624",
"&  c #34322D",
"*  c #3C3629",
"=  c #3B3828",
"-  c #2F2F39",
";  c #3B3837",
":  c #3D3B36",
">  c #42331F",
",  c #453521",
"<  c #453926",
"1  c #4A3C25",
"2  c #443B2A",
"3  c #4A3E2A",
"4  c #433F35",
"5  c #413D3A",
"6  c #45412C",
"7  c #4E432B",
"8  c #53452C",
"9  c #554A2E",
"0  c #4C4532",
"q  c #4E4934",
"w  c #47453C",
"e  c #534733",
"r  c #534A33",
"t  c #5B4C31",
"y  c #534A3A",
"u  c #5A4E3B",
"i  c #5D5136",
"p  c #5B523C",
"a  c #614C2E",
"s  c #62553B",
"d  c #655A3C",
"f  c #695A3C",
"g  c #705F3E",
"h  c #73613C",
"j  c #494749",
"k  c #534C43",
"l  c #514F4E",
"z  c #595243",
"x  c #5D574C",
"c  c #545252",
"v  c #5F5855",
"b  c #605645",
"n  c #645E47",
"m  c #6A5F45",
"M  c #655F5A",
"N  c #6D6245",
"B  c #6C604A",
"V  c #736444",
"C  c #72674B",
"Z  c #766A4B",
"A  c #7B6C4A",
"S  c #666254",
"D  c #6C645C",
"F  c #716A55",
"G  c #796D53",
"H  c #726B5C",
"J  c #776A5E",
"K  c #7E7454",
"L  c #7D725C",
"P  c #5D5A64",
"I  c #696567",
"U  c #6C686A",
"Y  c #706963",
"T  c #7A7367",
"R  c #75716C",
"E  c #7E756C",
"W  c #7A7575",
"Q  c #76757C",
"!  c #7E7E7C",
"~  c #976F2A",
"^  c #82765C",
"/  c #85795A",
"(  c #8A7D5B",
")  c #806A6A",
"_  c #847C64",
"`  c #827E6C",
"'  c #8F7F6A",
"]  c #8E825C",
"[  c #988659",
"{  c #BF9A53",
"}  c #8C8263",
"|  c #8D866A",
" . c #8F886E",
".. c #94886A",
"X. c #9B8E6C",
"o. c #878176",
"O. c #86827D",
"+. c #8D887B",
"@. c #9A8773",
"#. c #958F7C",
"$. c #9B9274",
"%. c #A3976E",
"&. c #A49A7C",
"*. c #AEA27E",
"=. c #B4A57C",
"-. c #BFAA7A",
";. c #C5AD6F",
":. c #CEB377",
">. c #7C7B83",
",. c #898783",
"<. c #84838E",
"1. c #9A9483",
"2. c #94958B",
"3. c #858591",
"4. c #8E8E9D",
"5. c #9B9697",
"6. c #9C9C96",
"7. c #9A9B99",
"8. c #A49D84",
"9. c #A69E8D",
"0. c #A99D9B",
"q. c #B29898",
"w. c #A9A387",
"e. c #A6A08F",
"r. c #B8AA83",
"t. c #B4AA8B",
"y. c #BDB38D",
"u. c #ABA695",
"i. c #ADAA96",
"p. c #AAA69A",
"a. c #BBB295",
"s. c #979BAD",
"d. c #ABACA3",
"f. c #A7A6A9",
"g. c #B0ADAD",
"h. c #B8B5AB",
"j. c #A8ABB0",
"k. c #ACB4B8",
"l. c #B4B4B4",
"z. c #B8B7BA",
"x. c #BCBCBD",
"c. c #C3B486",
"v. c #CBBA8A",
"b. c #C5B893",
"n. c #C5BA9B",
"m. c #C5B9A5",
"M. c #BEC1BB",
"N. c #D0C69C",
"B. c #DDCC9E",
"V. c #EDD18D",
"C. c #CBC7AF",
"Z. c #D8CEAE",
"A. c #DFD3A9",
"S. c #C6C1BB",
"D. c #D3CDB8",
"F. c #E0D5A4",
"G. c #E5D9AD",
"H. c #E5DAB5",
"J. c #EEE3B0",
"K. c #F5E8B4",
"L. c #F7ECBE",
"P. c #C1BEC2",
"I. c #BBC3C8",
"U. c #C2C1C2",
"Y. c #C6C7CC",
"T. c #C9CAC9",
"R. c #CBCBCB",
"E. c #D0CAC8",
"W. c #D1D2CE",
"Q. c #C9CCD5",
"!. c #D3D3D3",
"~. c #D3D7DD",
"^. c #D4D8DB",
"/. c #DCDCDC",
"(. c #F0EAC6",
"). c #F8F0CE",
"_. c #E0E0DF",
"`. c #FBF5DA",
"'. c #D1D6E3",
"]. c #D4D9E2",
"[. c #D6DDEC",
"{. c #D7E2F3",
"}. c #DDE7F5",
"|. c #E3E3E3",
" X c #E9E9E8",
".X c #EEEEEE",
"XX c #EEEDF1",
"oX c #E5EEF9",
"OX c #EAF1F9",
"+X c #F0F0F0",
"@X c #FAFBF5",
"#X c #F4F5F8",
"$X c #FFFFFF",
/* pixels */
"$X.X$X.X$X$X.X$X.X$X.X$X.X$XXX.X$X.X$X.X$X.X$X.X$X$X.X$X.X$X.X$X.X$X.X.X$X.X$X.X$X.X$X.X$X$X.X$X.X$X",
".X$X.X$X+X+X$X+X$X+X$X.X$X+X@X$XXX$X$X$X+X$X+X$X+X+X$X+X$X X$X@X$X.X$X$X.X@X.X$X+X$X.X$X+X+X$X.X$X+X",
".X$X.X$X.X.X$X.X$X.X$X.X$X.X$X$X.Xk.y i oX$X.X$X.X.X$X.X$X7.x.9.u .X$X$X.X$X.X$X.X$X.X$X.X.X$X.X$X.X",
"$X.X$X.X$X$X.X$X.X$X.X$X.X$X.X.X}.o.T.T.M. X$X.X$X$X.X$X XU.!./.l.}..X.X$X.X$X.X$X.X$X.X$X$X.X$X.X$X",
".X$X.X$X.X.X$X.X$X.X$X.X$X.X$X$Xt T..X$X!.|..X$X.X+X$X.X X!.$X.X+Xq $X$X.X$X.X$X.X$X.X$X.X.X$X.X$X.X",
".X$X.X$X.X.X$X.X$X.X$X.X$X.X$X@Xd.$X.X$X{.|..X$X.X.X$X.X.X'.$X.X$Xx. X$X.X$X.X$X.X$X.X$X.X.X$X.X$X.X",
"$X.X$X.X$X$X.X$X.X$X.X$X.X$X.X'.W..X$X.XY.|.$X.X$X$X.X$X X*..X$X.X X[..X$X.X$X.X$X.X$X.X$X$X.X$X.X$X",
".X$X.X$X.X.X$X.X$X.X$X.X$X.X$XoX/.$X.Xw.z.$X.X$X.X.X$X.X$Xx.C..X$X|.Q.$X.X$X.X$X.X$X.X$X.X.X$X.X$X.X",
".X$X.X$X.X.X$X.X$X.X$X.X$X.X$X~.|.$X~ I.|.$XXX@X X.X$X.X$X.XT.:.$X XE.$X.X$X.X$X.X$X.X$X.X.X$X.X$X.X",
"$X.X$X.X$X$X.X$X.X$X.X$X.X$X.X~.@X.Xt.|.y.4 q x f.Y.V > 7 / /._ .X$XE..X$X.X$X.X$X.X$X.X$X$X.X$X.X$X",
".X$X.X$X.X.X$X.X$X.X$X.X$X.X$X~. X$XY.R n (.*.|.k OXF %.n.n.O R.@X.Xm.$X.X$X.X$X.X$X.X$X.X.X$X.X$X.X",
".X$X.X$X.X.X$X.X$X.X$X.X$X.X$X'. X$X$.R.e.m.; I.@X#X+.K 3 +.!.y @X.XC.$X.X$X.X$X.X$X.X$X.X.X$X.X$X.X",
"$X.X$X.X$X$X.X$X.X$X.X$X.X$X.XS.#X.X!.j.c.$.L t.8.e._ 8.' f v !..X@Xp.XX$X.X$X.X$X.X$X.X$X$X.X$X.X$X",
".X$X.X$X+X.X$X.X$X.X$X+X$X.X$XE._.$X.Xh.P.%.A.i.h.S.t.L u 0.1..X$X.Xp.$X.X$X.X$X.X$X+X$X+X.X$X.X$X.X",
".X$X.X$X.X.X$X.X$X.X$X.X$X.X$X_.!.$X.X#.$.y.D.Z.{ -...J.v.n.8.T.$X|.R.$X.X$X.X$X.X$X.X$X.X.X$X.X$X.X",
"$X.X$X.X$X$X.X$X.X$X.X$X.X$X.X^.2.W.$ ).& v.A.v.W ` F.G.9 D z b.x..XW..X$X.X$X.X$X.X$X.X$X$X.X$X.X$X",
".X$X.X$X.X+X$X.X$X.X$X.X$X.X$X+X#.E.& *.j % A.B.S * _ ;.2 X z $ M.i. X$X.X$X.X$X.X$X.X$X.X.X$X.X$X.X",
".X$X.X$X.X.X$X.X$X.X$X.X$X.X$X$Xc.].; ^ 5 u J.L.,.x } g # @ k + W.&.+X$X.X$X.X$X.X$X.X$X.X.X$X.X$X.X",
"$X.X$X.X$X$X.X$X.X$X.X$X.X$X.X.Xr.^.+ a.} * $XV.j.! K.9 X G k + T.m..X.X$X.X$X.X$X.X$X.X$X$X.X$X.X$X",
".X$X.X$X.X.X$X.X$X.X$X.X$X.X$X$XF..X  (.w.m @X&.m ..).p 7 } * # /./ $X$X.X$X.X$X.X$X.X$X.X.X$X.X$X.X",
".X$X.X$X.X.X$X.X$X.X$X.X$X.X$X$XR./.` n.=.d b.m Z $ `.N 1 A * V |.g.$X$X.X$X.X$X.X$X.X$X.X.X$X.X$X.X",
"$X.X$X.X$X$X.X$X.X$X.X$X.X$X.X.X.X8 C : 2.b D D M R O.m F u s / W.^..X.X$X.X$X.X$X.X$X.X$X$X.X$X.X$X",
".X$X.X$X.X.X$X.X$X.X$X.X$X.X$X$X Xv.=.6 ) r V 5.,.S y d r r d f Z /.$X$X.X$X.X$X.X$X.X$X.X.X$X.X$X.X",
"+X$X.X$X+X.X$X.X$X+X$X+X$X.X$X$X+Xr.J j J y p s 3 e s.s e 7 r h (  X$X$X+X$X.X$X+X$X+X$X.X+X$X.X$X+X",
"$X.X$X.X$X$X.X$X.X$X.X$X.X$X.X.X$Xx.T.* ] e e T a M s.e 8 7 0 9 F $X.X.X$X.X$X.X$X.X$X.X$X$X.X$X.X$X",
".X$X.X$X.X.X$X.X$X.X$X.X$X.X$X$X.X Xm 0 [ 0 7 ,.8 D 4.e 7 8 7 g.!..X$X$X.X$X.X$X.X$X.X$X.X.X$X.X$X.X",
"$X+X$X.X$X$X+X$X+X$X+X$X+X$X+X.X$X X| z p 8 < Q M Q 3.8 3 8 9 V /.$X+X+X$X.X$X+X$X.X$X.X$X$X+X$X+X$X",
"$X.X$X.X$X$X.X$X.X$X.X$X.X$X.X.X$XXXu.e k 9 < Y W 3.>.1 < i t V. X$X.X.X$X.X$X.X$X.X$X.X$X$X.X$X.X$X",
".X$X.X$X.X.X$X.X$X.X$X.X$X.X$X$X.X$X!.& y s < v <.3.U 1 , 9 A z.$X.X$X$X.X$X.X$X.X$X.X$X.X.X$X.X$X.X",
"$X.X$X.X$X$X.X$X.X$X.X$X.X$X.X.X$X.X$X[ 7 f = z 3.3.v < < 1 } |..X$X.X.X$X.X$X.X$X.X$X.X$X$X.X$X.X$X",
"$X.X$X.X$X$X.X$X.X$X.X$X.X$X.X.X$X.X$XW.r f 1 q >.Q k , o 7 P.$X.X$X.X.X$X.X$X.X$X.X$X.X$X$X.X$X.X$X",
".X$X.X$X.X.X$X.X$X.X$X.X$X.X$X$X.X$X.X$Xy t 3 0 I I q o % 7  X.X$X.X$X$X.X$X.X$X.X$X.X$X.X.X$X.X$X.X",
"$X.X$X.X$X$X.X$X.X$X.X$X.X$X.X.X$X.X$X.X!.7 , < l l * o < f .X$X.X$X.X.X$X.X$X.X$X.X$X.X$X$X.X$X.X$X",
"$X.X$X.X$X$X.X$X.X$X.X$X.X$X+X.X$X.X$X.X+X8 6 * ; : @ X 7 T..X$X.X$X.X.X$X.X$X.X$X.X$X.X$X$X.X$X.X$X",
".X$X.X$X.X.X$X.X$X.X$X.X$X.X$X$X.X$X.X$X+Xz 9 < & - @ X 1 ^.$X.X$X.X$X$X.X$X.X$X.X$X.X$X.X.X$X.X$X.X",
"$X.X$X.X$X$X.X$X.X$X.X$X.X$X.X.X$X.X$X.X$XR.8 < @ - . % N $X.X$X.X$X.X.X$X.X$X.X$X.X$X.X$X$X.X$X.X$X",
"$X.X$X.X$X$X.X$X.X$X.X$X.X$X.X+X$X.X$X+X$X X; 6 o.<.+ } U.$X.X$X.X$X.X+X$X.X$X.X$X.X$X.X$X$X.X$X.X$X",
".X$X.X$X.X.X$X.X$X.X$X.X$X.X$X$X.X$X.X$X.X$XH p j P . t _..X$X.X$X.X$X$X.X$X.X$X.X$X.X$X.X.X$X.X$X.X",
"$X.X$X.X$X$X.X$X.X$X.X$X.X$X.X.X$X.X$X.X$X.X/.4 w I = G .X$X.X$X.X$X.X.X$X.X$X.X$X.X$X.X$X$X.X$X.X$X",
"$X.X$X.X$X$X.X$X.X$X.X$X.X$X.X.X$X.X$X.X$X.X$XN.G.] N A .X$X.X$X.X$X.X.X$X.X$X.X$X.X$X.X$X$X.X$X.X$X",
".X$X.X$X.X.X$X.X$X.X$X.X$X.X$X$X.X$X.X$X.X$XS t O.0.T ( $X.X$X.X$X.X$X$X.X$X.X$X.X$X.X$X.X.X$X.X$X.X",
"$X.X$X.X$X$X.X$X.X$X.X$X.X$X.X.X$X.X$X.X$X9.L X.D @.9 / T 7..X$X.X$X.X.X$X.X$X.X$X.X$X.X$X$X.X$X.X$X",
"$X.X$X.X$X$X.X$X.X$X.X$X.X$X.X.X$X.X$X.Xu.#. .0 b #Xi d  .T B.$X.X$X.X.X$X.X$X.X$X.X$X.X$X$X.X$X.X$X",
".X$X.X$X.X.X$X.X$X.X$X.X$X.X$X$X.X$X.XY _ H.r.@Xd.[.8.q.' C J _.$X.X$X$X.X$X.X$X.X$X.X$X.X.X$X.X$X.X",
"$X.X$X.X$X$X.X$X.X$X.X$X.X$X.X.X$X.X$Xz.X.#.$.8.6.6.0._ _ E . |..X$X.X.X$X.X$X.X$X.X$X.X$X$X.X$X.X$X",
"$X.X$X+X$X$X.X$X.X$X.X$X.X$X+X.X$X.X$X/.R.l.P.7.M c ,.P.l.T.Y.$X.X$X+X.X$X.X$X.X$X.X$X.X$X$X.X$X.X$X",
".X$X.X$X.X.X$X.X$X.X$X.X$X.X$X$X.X$X.X$X.X$X_. X!.!. X].@XXX$X.X$X.X$X$X.X$X.X$X.X$X.X$X.X.X$X.X$X.X",
"$X.X$X.X$X$X.X$X.X$X.X$X.X$X.X.X$X.X$X.X$X.X$X.X$X$X.X$X.X$X.X$X.X$X.X.X$X.X$X.X$X.X$X.X$X$X.X$X.X$X",
"$X+X$X.X$X@X+X$XXX$X+X$X.X$X+X+X$X.X$X+X$X.X$X.X$X@X+X$XXX$X+X$X+X$X+X+X$X.X$X+X$X.X$X.X$X@X+X$X+X$X",
".X$X.X$X.X.X$X.X$X.X$X.X$X.X$X$X.X$X.X$X.X$X.X$X.X.X$X.X$X.X$X.X$X.X$X$X.X$X.X$X.X$X.X$X.XXX$X.X$X.X"
};
