/* XPM */
static char *_00319dc3f334fca9f77aeb2c9359689Tb1P0XgpFz3rPXZe[] = {
/* columns rows colors chars-per-pixel */
"50 48 65 1 ",
"  c #161928",
". c #1C1E29",
"X c #1E2127",
"o c #1E2029",
"O c #22232A",
"+ c #26272A",
"@ c #27282B",
"# c #2A2A2B",
"$ c #33292B",
"% c #3D372E",
"& c #461B29",
"* c #463C30",
"= c #7B3F32",
"- c #454228",
"; c #4D4829",
": c #5A5A5D",
"> c #E52B2F",
", c #EB2B2F",
"< c #F62C2F",
"1 c #F82B2F",
"2 c #DA5231",
"3 c #EF8929",
"4 c #F5BC24",
"5 c #D2C526",
"6 c #D6C528",
"7 c #E3CD2B",
"8 c #E6D626",
"9 c #EFD024",
"0 c #E9DF20",
"q c #F2DD29",
"w c #F4DA2D",
"e c #F5DC2C",
"r c #EEE321",
"t c #F7E427",
"y c #FAED22",
"u c #F9EA24",
"i c #F6E029",
"p c #FBF020",
"a c #F7E147",
"s c #FCF24A",
"d c #F7E350",
"f c #F9E859",
"g c #F7E363",
"h c #B6B8BE",
"j c #F8EB96",
"k c #F9EC96",
"l c #FAED99",
"z c #FEF492",
"x c #ECE9AC",
"c c #F3EECA",
"v c #EFEDDF",
"b c #F5F1D4",
"n c #E6E6E6",
"m c #E9E9E9",
"M c #ECECEC",
"N c gray93",
"B c #F7F5E1",
"V c #FFFDE9",
"C c gray95",
"Z c #F3F3F3",
"A c #F4F4F4",
"S c gray97",
"D c gray98",
"F c gray99",
"G c white",
/* pixels */
"GnnGnGmnGnGGnGnNGsGnnGnGGnGnGGnGnnGnGCnGnGGnGnnGnG",
"nGGnGnGGnGnnGnGSnpnGGnGnxGnGnnGnGGnGnCGnGnnGnGGnGn",
"GnnGnGnnGnGGnGnNGpGnnGnGppGnGGnppnGnGCnGnGGnGnnGnG",
"nGGnGnGGnGnnGnVppppppnppppppnppppppGnCGnGnnGnGGnGn",
"GnnGnGmnGnGGnGnCppppnGnppppnGGppypGnGCnGnGGnGnnGnG",
"CCCCCCCCNSCCCCCCpppCCCSjypCCNCSppfCCCCCCCCCCCCCCCC",
"nGGnGnGGnGnnGnGSpSpGGnGppppGnnppppnGnCGnGnnGnGGnGn",
"GnnGnGmnGnGGnGnNGnGpnGnpGnpnGGpGnpGnGCnGnGGnGnnGnG",
"nGGnGnDGnGnnGnGSnGnGGnGnnGnGnnGnGGnGnCGnGnnGnGGnGn",
"GnnGnGmnGnGGnGnNGnGnnGnGGnGnGGnGnnGnGCnGnGGnGnnGnG",
"nGGnGnDGnGnwGnGSnGnGGnGw##wGnnGnGGnGnGwnGnnGnGGnGn",
"GnnGnGmnGnGw#wnNGnGnnlO#####wGnGnnGni#wGnGGnGnnGnG",
"nGGnGnGGnGnw###0wwwr###########7t0####wnGnnGnGGnGn",
"GnnGnGmnGnGw##########################wGnGGnGnnGnG",
"nGGnGnGGnGnw############pp############wnGnnGnGGnGn",
"GnnGnGnnGnGz##########ppppp###########zGnGGnGnnGnG",
"NSSNSNSSNSNv#########+yp#;pp##########BNSNCSNSSNSN",
"nGGnGnDGnGnn#########pp###Xp##########GnGnnGnGGnGn",
"GnnGnGmnGnGG#########pp####pX#########nGnGGnGnnGnG",
"nGGnGnDGnGnn#########pp###############GnGnnGnGGnGn",
"GnnGnGnnGnGG#########pp###############nGnGGnGnnGnG",
"nGGnGnGGnGnn##########pp=#############GnGnnGnGGnGn",
"GnnGnGmnGnGG#########$4pp>>>##########nGnGGnGnnGnG",
"nGGnGnGGnGnn%#######,>>>pp>>>+#######.GnGnnGnGGnGn",
"GnnGnGmnGnGGw######&>>###pp6>,#######tnGnGGnGnnGnG",
"nGGnGnGGnGnnk######>>#####ppp########aGnGnnGnGGnGn",
"GnnGnGnnGnGGn#####1>#######pp5#######CnGnGGnGnnGnG",
"NDDmDNSDmDNmD#####>>########pp#######CDmDNmDmDDNDm",
"nGGnGnDGnGnnG#####>o.########p#######CGnGnnGnGGnGn",
"GnnGnGmnGnGGnw####>pp##DG G#>pp>####wCnGnGGnGnnGnG",
"nGGnGnGGnGnnGn####>pp##:+Gh#>pp>####nCGnGnnGnGGnGn",
"GnnGnGnnGnGGnG####>py########pp>####GCnGnGGnGnnGnG",
"nGGnGnDGnGnnGni###>yp########p>>###*nCGnGnnGnGGnGn",
"GnnGnGmnGnGGnGn###>2p#######8p>>###cGCnGnGGnGnnGnG",
"nGGnGnDGnGnnGnG###>>pp######pp><###GnCGnGnnGnGGnGn",
"GnnGnGmnGnGGnGnw###>upp####pp>>###wnGCnGnGGnGnnGnG",
"nGGnGnGGnGnnGnGS###>>ppppppp3>>###nGnCGnGnnGnGGnGn",
"GnnGnGmnGnGGnGnNw###>>9pppp>>>###eGnGCnGnGGnGnnGnG",
"mGDmDmDDmGmmDnGSm####>>>>>>>>####GnGnCGnDmmGnGGnDm",
"nGGnGnGGnGnnGnGSng####>>>>>,####wGnGnCGnGnnGnGGnGn",
"GnnGnGmnGnGGnGnmGn-############@nnGnGCnGnGGnGnnGnG",
"nGGnGnDGnGnnGnGDnGn############nGGnGnCGnGnnGnGGnGn",
"GnnGnGmnGnGGnGnNGnGb##########dGnnGnGCnGnGGnGnnGnG",
"nGGnGnDGnGnnGnGSnGnGw########wGnGGnGnCGnGnnGnGGnGn",
"GnnGnGmnGnGGnGnNGnGnnw######qGnGnnGnGCnGnGGnGnnGnG",
"nGGnGnGGnGnnGnGSnGnGGni####ynnGnGGnGnCGnGnnGnGGnGn",
"GnnGnGmnGnGGnGnNGnGnnGnw##wnGGnGnnGnGCnGnGGnGnnGnG",
"nGGnGnDGnGnnGnGSnGnGGnGnwwnGnnGnGGnGnCGnGnnGnGGnGn"
};
