/* XPM */
static char *_9677901c1b7418bce20d7b679737bbc2aGuDpZ1yQ85Mn1S[] = {
/* columns rows colors chars-per-pixel */
"50 50 166 2 ",
"   c #020101",
".  c #0C0200",
"X  c #060B00",
"o  c #0A0D02",
"O  c #0D0D0C",
"+  c #130301",
"@  c #1C0904",
"#  c #0B1301",
"$  c #171606",
"%  c #151A07",
"&  c #131314",
"*  c #1E1F1C",
"=  c #260C04",
"-  c #24170B",
";  c #3F1803",
":  c #321A0D",
">  c #3B1E0C",
",  c #341B11",
"<  c #3A1C11",
"1  c #2C2F07",
"2  c #232B0F",
"3  c #2F2713",
"4  c #242D12",
"5  c #3B2214",
"6  c #362518",
"7  c #2B3313",
"8  c #313B1A",
"9  c #2F2F2F",
"0  c #3B3C39",
"q  c #4A230A",
"w  c #52270F",
"e  c #432717",
"r  c #4B2C1C",
"t  c #572E17",
"y  c #763708",
"u  c #64361B",
"i  c #4C2C2C",
"p  c #4E3425",
"a  c #543624",
"s  c #5B3825",
"d  c #543928",
"f  c #5F3D29",
"g  c #633C26",
"h  c #643E28",
"j  c #38441A",
"k  c #534B08",
"l  c #4C4115",
"z  c #544A19",
"x  c #695C1D",
"c  c #5C711E",
"v  c #7A6401",
"b  c #756314",
"n  c #796719",
"m  c #4F4720",
"M  c #424D27",
"N  c #4F5529",
"B  c #515C2B",
"V  c #41403E",
"C  c #4D533D",
"Z  c #5C5239",
"A  c #64412A",
"S  c #694229",
"D  c #78482C",
"F  c #695D24",
"G  c #6C4732",
"H  c #6B4A36",
"J  c #754C34",
"K  c #794E34",
"L  c #7E5338",
"P  c #58652E",
"I  c #5E6F2F",
"U  c #616B2A",
"Y  c #657235",
"T  c #667931",
"R  c #6A7C36",
"E  c #65733A",
"W  c #6F7F3E",
"Q  c #424241",
"!  c #4C4A49",
"~  c gray34",
"^  c #5F5F5F",
"/  c #615B41",
"(  c #7E6F65",
")  c #717465",
"_  c #757674",
"`  c #777779",
"'  c #787879",
"]  c #8E2A28",
"[  c #CD2E29",
"{  c #CB302B",
"}  c #954D09",
"|  c #96721E",
" . c #BC681A",
".. c #9E5F23",
"X. c #9C572D",
"o. c #9C582E",
"O. c #814F33",
"+. c #98423F",
"@. c #865334",
"#. c #835539",
"$. c #8B5C3D",
"%. c #965B36",
"&. c #995932",
"*. c #945C39",
"=. c #9A5E38",
"-. c #A86321",
";. c #DD7814",
":. c #E77200",
">. c #E87200",
",. c #E07610",
"<. c #C77422",
"1. c #915F43",
"2. c #9C6240",
"3. c #847373",
"4. c #71833E",
"5. c #738145",
"6. c #7D8F48",
"7. c #7E9048",
"8. c #8FAA3F",
"9. c #90AC3F",
"0. c #DDAD2F",
"q. c #C5A03D",
"w. c #DDAD30",
"e. c #DAAE3A",
"r. c #9D8D4F",
"t. c #829843",
"y. c #83964A",
"u. c #87994E",
"i. c #899D4E",
"p. c #879753",
"a. c #8A9C52",
"s. c #A69246",
"d. c #A49351",
"f. c #8CA345",
"g. c #8FAC41",
"h. c #90AB41",
"j. c #90A54E",
"k. c #93AA4B",
"l. c #8EA451",
"z. c #95AA55",
"x. c #92A659",
"c. c #86807C",
"v. c #91A060",
"b. c #97A964",
"n. c #D6AE48",
"m. c #DAB145",
"M. c #C8A754",
"N. c #D2AA5F",
"B. c #DCB65F",
"V. c #C1A96F",
"C. c #FDC44C",
"Z. c #ECC56A",
"A. c #868685",
"S. c #989899",
"D. c gray64",
"F. c #ADAAA7",
"G. c gray",
"H. c #C4C3C3",
"J. c #C8C9C7",
"K. c #CDCDCD",
"L. c #DCDBDB",
"P. c #EAE8E6",
"I. c #001B7A",
"U. c #001B7A",
"Y. c #3F731E",
"T. c #001B7A",
/* pixels */
"T.I.T.T.I.T.I.T.I.Y.T.I.T.I.T.U.I.T.I.T.I.T.T.I.T.I.T.I.I.T.I.T.I.T.T.I.T.I.T.I.T.T.P.T.I.T.I.I.T.I.",
"T.I.T.T.I.T.I.T.I.Y.T.I.T.U.T.U.U.T.U.T.U.T.T.U.T.U.T.U.U.T.I.T.I.T.T.I.T.I.T.I.T.T.U.T.I.T.Y.I.T.U.",
"I.T.I.I.T.I.T.I.T.T.I.T.I.T.I.T.T.I.T.I.T.I.I.T.I.T.I.T.T.I.T.I.T.I.U.T.I.T.I.T.U.I.T.I.T.I.T.T.I.T.",
"T.I.T.T.I.T.I.T.I.Y.T.U.T.I.6 U.I.T.I.T.I.T.T.I.T.I.T.I.I.T.I.T.I.T.T.I.T.I.T.I.T.T.I.T.I.T.I.I.T.I.",
"T.I.T.T.I.T.I.T.^ v.A   D.: z.k.9.T.P.} I.T.T.I.T.I.T.I.I.T.I.T.I.T.T.I.T.I.T.I.T.T.I.T.I.T.I.I.T.I.",
"I.T.I.I.T.I.T.I.h.o.*.=.h.  9.h.h.9.;.-.>.I.I.T.I.T.I.T.T.I.T.I.T.I.I.T.I.T.I.T.I.I.T.I.T.I.T.T.I.T.",
"T.I.T.T.I.T.I.o h.D X., h. .h.h.h.h.  >.,.T.T.I.T.I.T.I.I.T.I.T.I.T.T.I.T.I.T.I.T.T.I.T.I.T.I.I.T.I.",
"T.I.T.T.I.T.I.S.h.X.o.&.y.T.:.;.<.>.. >.! T.T.I.T.I.T.I.I.T.I.T.I.T.T.I.T.I.T.I.T.T.I.T.I.T.I.I.T.I.",
"I.T.I.I.T.I.T.3.M $.L %.5.:.:.... y n I.T.I.I.T.I.T.I.T.T.I.T.I.T.I.U.T.I.T.I.T.Y.I.T.I.T.I.T.T.I.T.",
"T.I.T.T.I.T.I.- B U.T.I.h.h.;.:.:.>.z v G.T.T.I.T.I.T.I.I.T.I.T.I.T.T.I.T.I.T.I.T.T.I.T.I.T.I.I.T.I.",
"T.I.T.T.I.T.I.T.I.Y.T.I.W h.h.9.h.k.F v v T.T.I.T.I.T.I.I.T.I.T.I.T.T.I.T.I.T.I.T.T.I.T.I.T.I.I.T.I.",
"I.T.I.I.T.I.& I.T.T.I.T.I.) T.K.T.h.v X b v I.T.I.T.I.T.T.I.T.I.T.I.U.T.I.T.I.T.I.I.T.I.T.I.T.T.I.T.",
"T.I.T.T.I.T.  T.I.I.T.I.T.0 h.4 h.    v   v v Y.T.I.T.I.I.T.I.T.I.T.T.I.T.I.T.I.T.T.I.T.I.T.I.I.T.I.",
"T.I.T.T.I.T.9 T.I.Y.T.I.T.I.      g.h.  v $ v   T.I.T.I.I.T.I.T.I.T.T.P.T.I.T.I.T.T.I.T.I.T.I.I.T.I.",
"I.T.I.I.T.I.L.I.T.T.I.T.I.Z   8.h.h.h.h.  n l m I.T.I.T.T.I.T.I.T.I.Y.T.I.T.I.T.I.I.T.I.T.I.T.T.I.T.",
"T.I.T.T.I.T.I.T.I.U.T.I.T.I.0.e.$ 4 8.h.T -   b T.I.T.I.I.T.I.T.I.T.T.I.T.I.T.I.T.T.I.T.I.T.I.I.T.I.",
"T.I.T.T.I.T.U.N.I.U.T.I.T.I.w.n.0.# 9.h.z.d./   v I.T.I.I.T.I.T.I.T.T.I.T.I.T.I.T.T.I.T.I.T.I.I.T.I.",
"I.T.I.I.T.I.T.C.L.T.I.T.I.T.m.n.0.# 9.9.k.3 Z.s.x T.I.T.T.I.T.I.T.I.U.T.I.T.I.T.U.I.T.I.T.I.T.T.I.T.",
"T.I.T.T.I.T.I.Y.] U.T.I.T.I.M.z 0.0.h.9.% 6 V.+.X.I.T.I.I.T.I.T.I.T.T.I.T.I.T.I.T.T.I.T.I.T.I.I.T.I.",
"T.I.T.T.I.T.I.T.  i T.I.T.I.o.0.0.0.k.h.C r.      I.T.I.I.T.I.T.P.T.T.I.T.I.T.I.T.T.I.T.I.T.I.I.T.I.",
"I.T.I.I.T.I.T.I.  [ I.T.I.`   o.q.0.h.9.h.  *.o.1   I.T.T.I.T.I.T.I.Y.T.I.T.I.T.I.I.T.I.T.I.T.T.I.T.",
"T.I.T.T.I.T.I.T.I.  {   h.9.9.  o.*.h.8.j.X.e % k h.h.I.G.T.I.T.I.T.T.I.T.I.T.I.T.T.I.T.I.T.Y.I.T.I.",
"T.I.T.T.I.T.I.T.I.  C.P h.h.g.c   X.8.h.h.+   8 h.h.8.%.X.g I.T.I.T.T.I.T.I.T.I.T.T.I.T.I.T.I.I.T.I.",
"I.T.I.I.T.I.T.I.T.X.| X 9.h.9.h.M   9.x.j.    g.8.h.8.X.2.X.T.I.T.I.U.T.I.T.I.T.I.I.T.I.T.I.T.T.I.T.",
"Y.T.Y.T.Y.Y.T.Y.Y.e B.A 9.h.k.g.~ Y.h.t.h.Y.  h.h.9.h o.  *.*.U.Y.T.Y.Y.Y.T.Y.T.Y.Y.T.Y.Y.Y.T.Y.Y.T.",
"T.I.T.T.I.T.I.T.I.&.. &.&.N *.Y.U.T.k.E =.  T.! h.W S *.  2.: ( I.T.T.I.T.I.T.I.T.T.I.T.Y.T.I.I.T.I.",
"I.T.I.I.T.I.T.I.T.r X.X.=.u @ T.T.I.p w X.= I.T.I.  t s X.  X.z.2 I.U.T.I.T.I.T.Y.I.T.I.T.I.T.T.I.T.",
"I.T.I.I.T.I.T.I.T.L.&.o.&.% h.a.T.U.&.O.&.  I.T.I.a :   1.  5 8.y.h.  T.I.T.I.T.Y.I.T.U.T.I.T.T.I.T.",
"T.I.T.T.I.T.I.T.I.U.H.  h.h.h.h.I.T.  h.l.#.T.I.T.I.c.o.. X.  8.h.h.h.X.. I.T.I.T.T.I.T.I.T.I.I.T.I.",
"I.T.I.I.T.I.T.I.T.T.I.o k.9.h.h.L.I.I h.h.  I.T.I.T.I.d   %.X h.h.h.h.X.s G   T.U.I.T.I.T.I.T.T.I.T.",
"I.T.I.I.T.I.T.I.T.T.U.h.h.h.h.p.  I.h.h.h.O I.T.I.T.I.T.&.a.h.8.h.h.8.X.: X.X.X.  I.T.I.T.I.T.T.I.T.",
"T.I.T.T.I.T.I.T.I.U.T.h.h.h.Y . o.T.h.h.a.I T.I.T.I.T.I.I.T.h.h.k.9.j.X.&.X.f = &.K I.T.I.T.I.I.T.I.",
"I.T.I.I.T.I.T.I.T.T.I.*.&.> > $.X.I.8.9.# g.I.T.I.T.I.T.T.I.T.h.h.h.&.*.X.X.=.s q X.@ I.T.I.T.T.I.T.",
"I.T.I.I.T.I.T.I.T.T.F.%.o.o.o.; o.I.h.k.j 8.I.T.I.T.I.T.T.I.T.I.h.7 @.&.$.#.*.t X.%.h.O T.I.T.T.I.T.",
"T.I.T.T.I.T.I.T.I.Y.8.U K X.&.o.%.  o.d %.X.T.I.T.I.T.I.I.T.I.T.I.X.&.X.X.h X.=.&.h.h.f.I.T.I.I.T.I.",
"I.T.I.I.T.I.T.I.T.9.z.t.X.X.s o.*.r o.@.*.H P.T.I.T.I.T.T.I.T.I.T.P.a &.#.X.X.o.J h.6.g.T.I.T.T.I.T.",
"I.T.I.I.T.I.T.I.T.8 l.g.S &.X.i T.o.o.H Y R O T.I.T.I.T.T.I.T.I.T.I.  H - J X.h E k.h.Q T.I.T.T.I.T.",
"T.I.T.T.I.T.I.T.I.U.T.I.T.I.T.Y.I.u.9.j.R l.X I.T.I.T.I.I.T.I.T.I.T.T.r &.h &.X.h.X h.Y.I.T.I.I.T.I.",
"I.T.I.I.T.I.T.I.T.T.I.T.I.T.U.T.K.f.f.u.Y 4 b.T.I.T.I.T.T.I.T.I.T.I.U.T.< J &.%.h.h.z.I.T.I.T.T.I.T.",
"I.T.I.I.T.I.T.I.T.T.I.T.I.T.I.I._ i.D.T.T.~   T.I.T.I.T.T.I.T.I.T.I.Y.T.I.5 &.+ i.h.V I.T.I.T.T.I.T.",
"T.I.T.T.I.T.I.T.I.I.T.I.T.I.X P.T.    h.h.h.k.I.T.I.T.I.I.T.I.T.I.T.T.I.T.I.F.  A.T.I.T.I.T.I.I.T.I.",
"I.T.I.I.T.I.T.I.T.T.I.T.I.T.g.g._ k.h.h.h.h.8.T.I.T.I.T.T.I.T.I.T.I.U.T.I.T.P.T.U.I.T.I.T.I.T.T.I.T.",
"I.T.I.I.T.I.T.I.T.T.I.T.I.T.I.T.T.h.h.h.h.h.4.  I.T.I.T.T.I.T.I.T.I.U.T.I.T.I.T.U.I.T.I.T.I.T.T.I.T.",
"T.I.T.T.I.T.I.T.I.U.T.I.T.I.T.U.I.U.& p.I.O ' I.T.I.T.I.I.T.I.T.I.T.T.I.T.I.T.I.T.T.I.T.I.T.I.I.T.I.",
"I.T.I.I.T.I.T.I.T.T.I.T.I.T.I.T.O * Y.I.T.9 h.h.J.T.I.T.T.I.T.I.T.I.Y.T.I.T.I.T.I.I.T.I.T.I.T.T.I.T.",
"I.T.I.I.T.I.T.I.T.T.I.T.I.T.I.T.h.9.E I.T.I.7.9.7.T.I.T.T.I.T.I.T.I.U.T.I.T.I.T.U.I.T.I.T.I.T.T.I.T.",
"T.I.T.T.I.T.I.T.I.I.T.I.T.I.T.I.  z.A.T.I.T.T.j T.I.T.I.I.T.I.T.I.T.T.I.T.I.T.I.T.T.I.T.I.T.I.I.T.I.",
"U.T.U.U.T.I.T.I.T.T.U.T.I.T.I.T.T.I.T.Y.T.Y.I.T.I.T.Y.T.T.I.T.Y.T.U.U.T.U.T.U.T.U.U.T.U.T.I.T.T.U.T.",
"I.T.I.I.T.I.T.I.T.T.I.T.I.T.I.T.T.I.T.I.T.I.I.T.I.T.I.T.T.I.T.I.T.I.I.T.I.T.I.T.U.I.T.I.T.I.T.T.I.T.",
"T.I.T.T.I.T.I.T.I.Y.T.I.T.I.T.U.I.T.I.T.I.T.T.I.T.I.T.I.I.T.I.T.I.T.T.I.T.I.T.I.T.T.I.T.I.T.I.I.T.I."
};
