/* XPM */
static char *_b7f7cba93294b1f86ece5fcd041f42ahcco51E8T5hCzMmQ[] = {
/* columns rows colors chars-per-pixel */
"50 50 177 2 ",
"   c None",
".  c #010101",
"X  c #202020",
"o  c gray19",
"O  c #4B4B4B",
"+  c #505050",
"@  c #585858",
"#  c #686868",
"$  c #717070",
"%  c #7E7E7E",
"&  c #910C19",
"*  c #920D1A",
"=  c #930F1C",
"-  c #94121F",
";  c #971925",
":  c #981C29",
">  c #9D2A35",
",  c #9E2A36",
"<  c #A13540",
"1  c #B43C48",
"2  c #A6414B",
"3  c #A7434D",
"4  c #A44751",
"5  c #B94451",
"6  c #A75059",
"7  c #BD505D",
"8  c #AA5961",
"9  c #C3525F",
"0  c #C55561",
"q  c #C75764",
"w  c #CA5A66",
"e  c #CC5D69",
"r  c #C96D64",
"t  c #D16470",
"y  c #B58B23",
"u  c #B98F26",
"i  c #BB9127",
"p  c #BD9329",
"a  c #BF952B",
"s  c #BA9332",
"d  c #C39011",
"f  c #C39319",
"g  c #C5992C",
"h  c #C29A30",
"j  c #C49C32",
"k  c #C69F35",
"l  c #C9A237",
"z  c #C6A03F",
"x  c #CBA53A",
"c  c #CEA83D",
"v  c #BFA154",
"b  c #C9A342",
"n  c #D5B044",
"m  c #D8B448",
"M  c #DCB84C",
"N  c #C7A85B",
"B  c #E0BE52",
"V  c #E1BF54",
"C  c #C8AD66",
"Z  c #CBB068",
"A  c #D9BE6E",
"S  c #E3C155",
"D  c #E5C458",
"F  c #E7C65B",
"G  c #E8C85D",
"H  c #EACB60",
"J  c #ECCD63",
"K  c #EFD168",
"L  c #F0D46B",
"P  c #F2D66E",
"I  c #F3D770",
"U  c #F4D973",
"Y  c #F5DA75",
"T  c #F6DC78",
"R  c #B57A80",
"E  c #B97E84",
"W  c #E07A86",
"Q  c #808080",
"!  c gray53",
"~  c #8B8B8B",
"^  c gray55",
"/  c #909090",
"(  c #989898",
")  c #9B9B9B",
"_  c gray61",
"`  c #9D9D9D",
"'  c gray62",
"]  c #9F9F9F",
"[  c #BC858B",
"{  c #A0A0A0",
"}  c gray63",
"|  c #A2A2A2",
" . c gray64",
".. c #A4A4A4",
"X. c #A5A5A5",
"o. c gray66",
"O. c #A9A9A9",
"+. c #AAAAAA",
"@. c gray67",
"#. c #ACACAC",
"$. c gray68",
"%. c #AEAEAE",
"&. c #AFAFAF",
"*. c gray69",
"=. c #B2B2B2",
"-. c gray70",
";. c #B4B4B4",
":. c #B6B6B6",
">. c #B9B9B9",
",. c gray73",
"<. c #BBBBBB",
"1. c #BCBCBC",
"2. c gray74",
"3. c gray",
"4. c #CB8991",
"5. c #CC8B93",
"6. c #D49CA2",
"7. c #DA9BA3",
"8. c #C5A6AA",
"9. c #C4ACAF",
"0. c #C5ADAF",
"q. c #C9B7B9",
"w. c #CEC099",
"e. c #CDC1A1",
"r. c #CFC4AA",
"t. c #CDC8BB",
"y. c #C1C1C1",
"u. c gray76",
"i. c #C3C2C2",
"p. c #C4C3C3",
"a. c #C5C4C4",
"s. c #C6C5C5",
"d. c #C6C6C6",
"f. c #C7C6C6",
"g. c #C8C8C8",
"h. c #C9C8C8",
"j. c gray79",
"k. c #CBCBCB",
"l. c gray80",
"z. c #CDCCCC",
"x. c #CDCDCD",
"c. c #CECDCD",
"v. c #CECECE",
"b. c gray81",
"n. c #D0CFCF",
"m. c #D1D0D0",
"M. c gray82",
"N. c #D2D2D2",
"B. c gray84",
"V. c #D7D7D7",
"C. c #DFDCD5",
"Z. c #D8D8D8",
"A. c gray85",
"S. c #DADADA",
"D. c gray86",
"F. c gray87",
"G. c #DFDFDF",
"H. c #F2EBD2",
"J. c #F4EED5",
"K. c #E1E1E1",
"L. c #E2E2E2",
"P. c #E4E4E4",
"I. c gray90",
"U. c #E6E6E6",
"Y. c #E7E7E7",
"T. c gray91",
"R. c gray92",
"E. c #EFEFEF",
"W. c #F1F1F1",
"Q. c gray95",
"!. c #F3F3F3",
"~. c #F4F4F4",
"^. c gray97",
"/. c #F8F8F8",
"(. c gray98",
"). c #FBFBFB",
"_. c gray99",
/* pixels */
"                                          % Q ' O.&.' % Q                                           ",
"                                    ! O.&.O.&.O.&.O.&.O.&.O.O.!                                     ",
"                                ^ &.&.&.&.&.&.&.&.&.&.&.&.&.=.&.&.~                                 ",
"                              ! :.=.=.=.=.=.=.=.=.=.=.=.=.=.=.=.=.=.^                               ",
"                            =.:.:.:.:.:.:.:.:.:.:.:.:.:.:.:.:.:.:.:.:.=.                            ",
"                          >.,.,.,.,.,.,.,.:.,.,.,.,.,.,.,.,.:.,.,.,.>.>.,.                          ",
"                        2.2.<.2.2.2.2.2.,.2.2.2.v v ,.2.2.,.2.2.,.2.2.,.2.<.                        ",
"                      &.u.u.y.y.u.2.u.u.u.s y y y y y y s u.u.u.u.u.u.u.u.u.;.                      ",
"                    ) s.s.s.a.s.s.s.s.s.y i y i u i i y i i s.a.s.u.s.s.s.s.s.)                     ",
"                    h.h.h.h.j.j.j.h.h.i a a a p s.s.p a p a a j.j.j.h.h.g.g.h.h.                    ",
"                  u.c.c.c.c.c.c.c.l.c.h j h c.c.c.c.c.c.h h h c.c.c.c.c.z.c.c.c.s.                  ",
"                  m.m.m.m.m.m.b.m.m.h k l r.b.b.m.m.m.m.t.j k j m.m.m.c.m.m.m.m.m.&.                ",
"                b.V.V.V.V.V.V.V.B.B.l l x V.V.V.B.V.V.V.V.x x x V.V.V.V.V.V.V.V.V.m.                ",
"                S.S.S.D.S.Z.S.S.S.S.c c c S.S.S.Z.S.S.S.S.S.S.S.S.S.S.S.S.S.S.S.S.S.                ",
"              ,.F.F.G.F.F.G.F.F.G.G.n n n F.G.G.F.G.F.F.G.G.F.F.F.F.F.F.F.F.F.F.F.F.2.              ",
"              K.K.K.K.K.G.K.K.K.G.K.m m m A K.K.K.G.K.K.K.K.K.G.K.K.K.K.K.K.K.K.K.K.K.              ",
"              U.P.Y.P.Y.P.Y.P.Y.U.U.P.M M M C.U.P.U.P.P.U.P.U.P.U.U.P.U.U.P.U.U.P.U.U.              ",
"            s.Y.Y.T.Y.Y.Y.Y.Y.Y.T.Y.T.V B B B B 0 7 9 7 6.Y.T.T.Y.T.T.U.T.T.U.T.T.U.R.s.            ",
"            P.R.R.R.R.B.N.M.M.M.K.Y.R.0 D V S V V 0 9 9 9 9 0 R.R.R.R.R.R.R.R.R.R.R.R.U.            ",
"            E.E.E.M.M.M.M.M.M.N.M.; * q q r G G D F F w q q q q q E.E.E.E.E.E.E.E.E.E.E.            ",
"            Q.~.M.M.M.M.M.M.M.N.* * * ; * 4.~.H H H G H 4.e e e e e Q.Q.Q.Q.Q.~.Q.Q.Q.Q.            ",
"            ~.m.M.M.M.M.M.M.M.* ; * * 6 M.M.M.~.H.J J J H H 7.t e e ~.~.~.~.~.~.~.Q.~.~.            ",
"          S.M.M.M.M.M.M.N.M.* = * * m.N.M.M.M.M.Q.^.K K K K K ^.t ^.^.^.^.^.^.^.~.~./.(.m.          ",
"          O.M.M.M.M.M.M.N.v.= = * M.N.m.M.M.M.M.M.M.^.J.P P L I /./././././././.(.(.(.~.F.          ",
"           .m.m.b.N.N.N.b.* = = 9.N.N.N.b.N.N.N.M.M.M.W.(.U I I I (.(.).(.(.(.(.(.(.(._.G.          ",
"           .m.m.N.N.b.N.v.; = = b.N.b.b.N.N.b.b.M.M.M.M.M._.Y Y Y Y _._._._._._._._._._.{           ",
"          %.m.N.N.b.N.b.* * - v.N.N.N.N.N.b.N.N.M.M.M.M.N.m.m.T Y T _._._._._._._._._.m.X.          ",
"          O.N.b.N.b.N.N.* * * g d d C b.N.N.b.N.M.M.M.M.m.N.m.; - W W W W W _._._.m.m.m.X.          ",
"            m.m.N.b.N.N.* * * d d d b.N.N.. l.. m.. . ) . m.N.; * - * * 1 5 Z.N.m.B.b.b.            ",
"            m.N.N.b.N.b.; - * d d d b.N.m.. . m.$ @ . X . N.m.; - * * - * - N.b.N.b.b.N.            ",
"            N.m.N.N.b.N.* * * d d d N.N.N.. N.u.( O . &.N.% N.b.d d d & - * B.b.b.B.B.b.            ",
"            j.N.b.N.N.N.* * * d d d N.b.N.+ b.X m.# O.N.o b.N.N.d d d & * - b.N.b.b.b.l.            ",
"            ' m.m.m.N.N.- * * d d d N.N.b.N.N.b.N.N.N.b.M.M.M.M.d d d * = = M.M.M.M.m.'             ",
"              m.m.N.b.N.* - - e.d d d m.b.N.N.b.N.b.N.N.M.M.M.d d d w.* = = M.M.M.M.m.              ",
"              b.N.b.N.N.> - * 3 d d d m.N.N.N.N.b.N.b.N.M.M.c.d d d 8 * = : M.M.M.M.M.              ",
"               .m.N.N.b.m.* * - Z d d d N.b.b.N.N.N.b.N.M.M.d d d N * ; = M.M.M.M.M...              ",
"                N.N.N.b.m.* - * * d d d d b N.m.N.b.N.N.b d d d d * = = = M.M.M.m.m.                ",
"                l.b.N.N.m.m.* - * < d d d d d d d d d d d d d d 1 * = = M.M.M.M.m.c.                ",
"                O.b.b.N.m.m.q.- * - ; f d d d d d d d d d d f ; = = = :.M.M.M.M.m.O.                ",
"                  j.N.m.N.m.b.4 * * * * v.d d d d d d d d b.- * = = 2 b.M.M.M.M.h.                  ",
"                    m.m.m.b.N.N.[ - * - * * * 8.m.m.8.* * * - * - E b.b.b.B.m.m.                    ",
"                    ' m.m.N.N.b.b.N.- * * - * * - * * - - - * - b.b.B.B.b.m.m.'                     ",
"                      a.N.N.N.b.b.N.N.l.- * - - - * - * * - l.N.b.m.b.b.b.B.j.                      ",
"                        b.b.N.N.N.N.b.N.m.m.m.R > > R m.m.b.N.b.B.m.b.B.b.b.                        ",
"                          N.N.m.N.b.N.N.N.N.N.b.m.m.N.m.b.b.N.b.b.B.b.b.m.                          ",
"                            b.N.N.b.N.b.b.b.N.N.m.N.m.N.B.b.b.B.b.b.B.m.                            ",
"                              %.N.N.N.b.N.N.b.N.N.N.N.b.b.N.N.m.m.m.%.                              ",
"                                X.b.N.N.N.b.N.N.b.b.N.N.b.B.b.m.m.X.                                ",
"                                     .m.m.m.m.m.m.N.m.b.b.b.m. .                                    ",
"                                          { %.l.b.b.v.%.{                                           "
};
