/* XPM */
static char *_0b158ac04814942d31f10334f6a6d75Nkob1HdAcXmRczcP[] = {
/* columns rows colors chars-per-pixel */
"50 50 89 1 ",
"  c #101318",
". c #16191E",
"X c #1A1D22",
"o c #1B1F22",
"O c #242329",
"+ c #2A2D32",
"@ c #3D4045",
"# c #4C4F54",
"$ c #52555A",
"% c #5D6065",
"& c #606368",
"* c #64676C",
"= c #65696C",
"- c #686C6F",
"; c #686B70",
": c #696C71",
"> c #6B6E73",
", c #6E7176",
"< c #707378",
"1 c #717479",
"2 c #72757A",
"3 c #73767B",
"4 c #74777C",
"5 c #74777D",
"6 c #75787D",
"7 c #76797E",
"8 c #777A7F",
"9 c #787B80",
"0 c #797C80",
"q c #7C7F83",
"w c #7A7D84",
"e c #7C7F84",
"r c #7D8084",
"t c #7F8186",
"y c #7F8287",
"u c #808287",
"i c #808388",
"p c #818489",
"a c #82858A",
"s c #83868B",
"d c #82858D",
"f c #84878C",
"g c #85888D",
"h c #868A8D",
"j c #85888E",
"k c #86898E",
"l c #878A8F",
"z c #888B90",
"x c #8A8D92",
"c c #8B8E93",
"v c #8C8F94",
"b c #8D9095",
"n c #8E9196",
"m c #8F9297",
"M c #909398",
"N c #92959A",
"B c #93969B",
"V c #94979C",
"C c #95989D",
"Z c #96999E",
"A c #979A9F",
"S c #989BA0",
"D c #999CA1",
"F c #9A9DA2",
"G c #9B9EA3",
"H c #9C9FA4",
"J c #9DA0A5",
"K c #9EA1A6",
"L c #9FA2A7",
"P c #A0A3A8",
"I c #A1A4A9",
"U c #A2A5AA",
"Y c #A3A6AB",
"T c #A4A7AC",
"R c #A5A8AD",
"E c #A6A9AE",
"W c #A7AAAF",
"Q c #A8ABB0",
"! c #A9ACB1",
"~ c #AAADB2",
"^ c #ABAEB3",
"/ c #ACAFB4",
"( c #ADB0B5",
") c #AEB1B6",
"_ c #AFB2B7",
"` c #B0B3B8",
"' c #B1B4B9",
"] c #B2B5BA",
"[ c #B3B6BB",
/* pixels */
"y6xCFHNFJRQJPJQ(IVAMfPJMNJQQ`QQ`YPAAP`^GRnFJWYYPGl",
",jxxMFnFAPYAJMRJpPf~bJhPPQTQTQQQ]`YI`[WbbBJPT(TTJp",
"0wNMxnMFMJWRVJf(RNNFbhiPzMITTJIT^W^~I[YBcYsJRTJTGf",
"3pzvxCnznIJPCPW(CJBVV6PfAQP(QJ((]^GAJ~Wsb~lAM~FTMz",
"<ijxCvNnMPCCPCPPMbVjMFz8VJTQQ`JnWWJJWTYA~G>MjWIPVV",
":jF9np6jxJCJMVJACMVAVJMVJ8AJP(TQR^ARYTYMJPxJVFQ(vV",
",jnnuHnvVPMnVNAAMFzNJbfzPVQTQT~TY[~nGYY<YIJAPQTTFn",
":iNxnpyvnFbVz6~PYBJMijJbAPMQJP(P[cI[IWbBIYPCBBQTJF",
"->xCMujMnAMfjzRPhxVVMzMVJFQPP`QABFGF_(~cJRBzAY(VFJ",
":6nxxj<jNNCJbFQTPJQAVMIAVQ(TPPPIJI`BW`cbP^YVJPPQRJ",
"-0xjrrpxNJbPMVJWJzTAbVPTPIPV(VPP`WYJ`WTMWIxWFJITTn",
";6i0pjiNJCfNJI.Q`fAMJAJPJJJTQ(QQ(JQFTIWWYMGMnAPRIF",
",ez5jjNNAAJVJAPRAJPbJVPPbPAQR(LP~`JTQYATQfJJI(TW~C",
"3qjyyzvNnAVIANR^J(TJbb(VPMVbPJP(FWYIIQVn^B(YPQY^~/",
";6yp0xxjNzJJIVPRQ](MAVbxAJJTMAPA~GPWY^~BJTPRT`TTI~",
":056u6pjuMJJJx(~~`JACJhMMAAPJTAIJBA=PTBPAPYRQI~TTI",
";e5p9eiQFlTMJC~G`PTATbibVbJTQ~TQWPYBPWGPWYW^WPTT~T",
";eipi5ivMVTITYJB~TJVAfbAbVbAJAT~YNWbPPYM^WcJIG`PWI",
"5<feeixMGGI~z~TPQ.MFAJzMJB6zIVVQWMAPGYWBQbMJGJYTCJ",
">5iz;eiuMzGINY((TPJQFAQMFJbJAMVIYWJGPJPBJAcAJJYJJW",
">is9jn0nJGYFIB^IQJAAJMJVATiAbVTJPAVAPPFcYBAMPMPYFR",
"8<ifpuiMNIJGG~BTQVJVVVT(VVMMPMzPBPPbBPcBP6fJMCJPVI",
"35e+:n8qVAAJB~JR(PbPbJVVIfVMJFfT`JBVJYbMGAfIBWAMVV",
":9i56ysbMFPFIY_~TJNPBAVM izMzAfJBWTGMGfBMQbYPzPVFF",
"-uq@euzFFBGMPYJWCNVTJANJMMJJMJAi^YPqPMcBCJNJJFBcJA",
"3qzqi8vBGNGMMWIPVVJTJVAzJbAMMPAP^YJAPBMbBICMrVnNAJ",
":qus5<vBJFFlbMR(MMcAPJJNbibAAPJTWPFCWJcAJGCNpnbJJJ",
"5>36-ueMpPMxlIJVMJPAIAJVjfjVPQTQ^GMJAVMWJJFIJcMCII",
"95*53izVcJBMPIPbbbM-VJMuz88zJPh(~sAJFFsNVVjVAAMFYT",
">9esqinNFcVbMFGG6AFFANxz<8zbMbA(QFVPCnBybCBVFBNMIR",
"36pf:fzv=bMJVATAsNVsJn3sVrA=VV(QWABJMBsbsibMTJAMII",
"6uyf:evMAlbBMTY^bFcP8NJbMfbTbAQQYVAMMVNxsnFIBJFVTY",
"<5u8qncjVMCjRbIjSVCFpX[s>5BsGHIWMMMSBMuu8xNI~ICCRT",
"=90v5nnBCFIVPJRxILnPNpvMvMnMMFHTYVviuMj,ynIRIInFRJ",
":<6ujjCCVCJNhJPWTTnSjzNiBMePHIHTNxvMcus>6xnR$~CJQP",
"-3qqunCBCNWFFAYP9FI~yzCnHFAHGFTRJjBMpypu6NFI~RhJ~P",
">8pu0NBNJb~JMIBFITLHMxOn~SMBVBFIFMMFpxq5pCIRPTCI~Y",
">ueiwxANFFVVTJPFvHJVvp+FvHBFAz HbcTrlyc<unI~NIII~T",
";uy:pMNSMnVAJRV6SFVTCxMzIVVHB#MHCbjz88iypCF(IFSI^I",
"&su0jcCCbFJJFFToFNI~M0-VHVAHFBsMFufn8pr0nCFJRJNRTR",
"%puizBBPCIPJJPIRCIIIMVNVMMnJFVFBNiyxin88NFF~~II~RR",
",yrzpnAIJGPrJPTCCFFRHVF#MxhCFMVJbpNb6ffiNFNFCAIY~~",
":zyizbMBnVJbGJICCyCRInVnpnC6BNFMbxNj<pz8NCxxVCIpWT",
",ir3nzVAJVCCJPJJIVCIIIIJHVCCzVFFzfxy00xfxjpNJNFIWI",
":riizxnFFCFVAFIMnNC(ITFCCzCJFBFFspNi8rjNfbjbCNnTIF",
">p8inzVVPJJVJFJFFFRJHJNNFzHFFFIFznVipjznjJNNJNVTII",
":yifbAJCVAJJCjAJHFFIVCSFFCFCJIJJMnnfr6i8fnxnFFFIII",
":06rhxCCNNAAxnxIvVVLHNFSnFVIFIPAMzr866izrbnnynCIJJ",
":660jybBFFnFbbnICILJJNVVBFJFAJIJVyr8rqujlMbANnFPJM",
"6prphnxJmIFmMpVV(IFIPFMTnJAFITFJByp803jp8CMBMAVGIG"
};
