/* XPM */
static char *_28befd05c9d4e90aee9a8d9ec9c7cbficJjdkzk3wX5sy2B[] = {
/* columns rows colors chars-per-pixel */
"50 50 224 2 ",
"   c #060809",
".  c #150B07",
"X  c #09150B",
"o  c #131907",
"O  c #0B0D14",
"+  c #0D0F17",
"@  c #050B18",
"#  c #121614",
"$  c #230F0A",
"%  c #1C210A",
"&  c #142613",
"*  c #26201D",
"=  c #081827",
"-  c #181C28",
";  c #0C1635",
":  c #121431",
">  c #15232E",
",  c #282A2C",
"<  c #283129",
"1  c #242732",
"2  c #293338",
"3  c #443B1A",
"4  c #7A3017",
"5  c #570B20",
"6  c #51242C",
"7  c #3A583F",
"8  c #444718",
"9  c #4F511C",
"0  c #654716",
"q  c #444725",
"w  c #726E3C",
"e  c #1E2945",
"r  c #282F48",
"t  c #3A3A44",
"y  c #2C3D56",
"u  c #1E3570",
"i  c #2E4643",
"p  c #3B454B",
"a  c #394A56",
"s  c #3C5259",
"d  c #2B7544",
"f  c #375166",
"g  c #347A6B",
"h  c #464A45",
"j  c #4E5152",
"k  c #48575C",
"l  c #535657",
"z  c #52635A",
"x  c #606248",
"c  c #686459",
"v  c #534C69",
"b  c #475368",
"n  c #545763",
"m  c #72406F",
"M  c #476974",
"N  c #5E7071",
"B  c #686B68",
"V  c #736B6C",
"C  c #6E7775",
"Z  c #717073",
"A  c #77797D",
"S  c #747A7D",
"D  c #AF3B67",
"F  c #C81C58",
"G  c #D42358",
"H  c #C53258",
"J  c #A24158",
"K  c #827B55",
"L  c #8A716F",
"P  c #B16D75",
"I  c #C54872",
"U  c #2D8951",
"Y  c #24A649",
"T  c #2FAA75",
"R  c #718178",
"E  c #619677",
"W  c #EEEB01",
"Q  c #F3F016",
"!  c #D3D731",
"~  c #F0E628",
"^  c #988451",
"/  c #B7B95E",
"(  c #8F9372",
")  c #BEB67D",
"_  c #EFB750",
"`  c #BED37C",
"'  c #D9D75E",
"]  c #E3DA4C",
"[  c #E1F553",
"{  c #D1D267",
"}  c #DCD665",
"|  c #D7D677",
" . c #DCE16F",
".. c #DBE879",
"X. c #EFF274",
"o. c #4D7090",
"O. c #6D758B",
"+. c #BE5F87",
"@. c #857B83",
"#. c #D27096",
"$. c #3A92BF",
"%. c #509697",
"&. c #798286",
"*. c #669096",
"=. c #7E9C96",
"-. c #4991A1",
";. c #5795B0",
":. c #7795AD",
">. c #6AA7AA",
",. c #79B2B3",
"<. c #3391C9",
"1. c #6C93C3",
"2. c #4DB2D2",
"3. c #6AB4D6",
"4. c #76B9D7",
"5. c #858689",
"6. c #8B928B",
"7. c #92948E",
"8. c #8A8D98",
"9. c #8D9695",
"0. c #939997",
"q. c #999A9C",
"w. c #A0919D",
"e. c #86AC95",
"r. c #9BAA9A",
"t. c #BABE8A",
"y. c #A9AC91",
"u. c #AAB59A",
"i. c #948EA1",
"p. c #9799A4",
"a. c #9B9EA0",
"s. c #A39CA4",
"d. c #9CA3A2",
"f. c #97A9AE",
"g. c #9FB3A6",
"h. c #97A5B3",
"j. c #9BB4B0",
"k. c #A8A6A4",
"l. c #A3ACAC",
"z. c #ABABAC",
"x. c #B1ADAE",
"c. c #A5B6AE",
"v. c #BFBFA6",
"b. c #A6ACB7",
"n. c #ABB4B2",
"m. c #ACBCBB",
"M. c #B5B4B4",
"N. c #B5B3BA",
"B. c #B5BBBD",
"V. c #BCBDBC",
"C. c #DCACBF",
"Z. c #B9C698",
"A. c #A7C1AA",
"S. c #AAC1BE",
"D. c #BCC4B6",
"F. c #C9C98E",
"G. c #CFD788",
"H. c #CBC99C",
"J. c #D7DB95",
"K. c #C7D8A5",
"L. c #C5C6BA",
"P. c #CED2BA",
"I. c #80A3C4",
"U. c #ACBEC6",
"Y. c #BABCC2",
"T. c #C6B6C4",
"R. c #BAC1C6",
"E. c #A9D2DA",
"W. c #89E1EB",
"Q. c #C3C4C4",
"!. c #C4CAC4",
"~. c #C9CBC6",
"^. c #C7C5C9",
"/. c #C4CCCC",
"(. c #CBCCCB",
"). c #CBD0C5",
"_. c #CED0CF",
"`. c #D1D3CD",
"'. c #DCDDCE",
"]. c #CCCCD9",
"[. c #C6D5D6",
"{. c #CED1D0",
"}. c #D3D4D3",
"|. c #D6D8D7",
" X c #D4D5DA",
".X c #DBD4D8",
"XX c #D5DAD9",
"oX c #DADCDC",
"OX c #E4CBD4",
"+X c #E7DCD5",
"@X c #E2DDDF",
"#X c #D6E4DB",
"$X c #DEE1DE",
"%X c #E6E8D5",
"&X c #E1E5DD",
"*X c #F2F3D3",
"=X c #D5D8E3",
"-X c #DEDFE1",
";X c #E4DBE5",
":X c #DEE2E2",
">X c #D9E5E8",
",X c #D7E4F0",
"<X c #E2E4E4",
"1X c #E5E9E6",
"2X c #EBE9E6",
"3X c #E5E6E9",
"4X c #EAE6E9",
"5X c #E5EAEB",
"6X c #EAEBEC",
"7X c #F9EFEA",
"8X c #EBF5EB",
"9X c #FAFBEC",
"0X c #E5ECF2",
"qX c #EDEEF2",
"wX c #E9EAFC",
"eX c #F6E8F4",
"rX c #ECF4F4",
"tX c #EDF5F8",
"yX c #F4F3F4",
"uX c #F6F7F6",
"iX c #FDFFF6",
"pX c #FCF7FC",
"aX c #F7FBFB",
"sX c #FFFFFF",
/* pixels */
"sXsXsXsXsXsXsXsXsXsXsXsXsXsXsXsXsXsXsXsXsXsXsXsXsXsXsXsXsXsXsXsXsXsXsXsXsXsXsXsXsXsXsXsXsXsXsXsXsXsX",
"sXsXsXsXsXsXsXsXsXsXsXsXsXsXsXsXsXsXsXsXsXsXsXsXsXsXsXsXsXsXsXsXsXsXsXsXsXsXsXsXsXsXsXsXsXsXsXsXsXsX",
"sXsXsXsXsXsXsXsXsXsXsXsXsXsXsXsXsXsXsXsXsXsXsXsXsXsXsXsXsXsXsXsXsXsXsXsXsXsXsXsXsXsXsXsXsXsXsXsXsXsX",
"sXsXsXsXsXsXsXsXsXsXsXsXsXsXsXsXsXsXsXsXsXsXsXsXsXsXsXsXsXsXsXsXsXsXsXsXsXsXsXsXsXsXsXsXsXsXsXsXsXsX",
"aXsXsXsXsXsXsXaXsXsXsXaXaXsXsXsXsXsXsXsXsXaXsXsXaXsXsXsXsXsXsXaXsXsXsXaXaXsXsXsXsXsXsXsXsXaXsXsXsXaX",
"sXsXsXsXsXsXsXsXsXsXsXsXsXsXsXsXsXsXsXsXsXsXsXsXsXsXsXsXsXsXsXsXsXsXsXsXsXsXsXsXsXsXsXsXsXsXsXsXsXsX",
"sXsXsXsXsXsXsXsXsXsXsXsXsXsXsXsXsXsXsXsXsXsXsXsXsXsXsXsXsXsXsXsXsXsXsXsXsXsXsXsXsXsXsXsXsXsXsXsXsXsX",
"pXsXsXsXsXsXsXsXsXsXsXsXsXsXsXsXsXsXsXsXsXsXsXsXsXsXsXsXsXsXsXsXsXsXsXsXsXsXsXsXsXsXsXsXsXsXsXsXsXsX",
"sXsXsXsXsXsXsXsXsXsXsXsXsXsXsXsXsXsXsXsXsXpXsXsXaXaXsXsXsXsXsXsXsXsXsXsXsXsXsXsXsXsXsXsXsXsXsXsXsXsX",
"sXsXsXsXsXsXsXsXsXsXsXsXsXsXiXaXtXrXk V ^ K , Q.<X<XoX<XoXoXoX{.;XpXaXsXsXsXsXsXsXsXsXsXsXsXsXsXsXsX",
"sXsXsXsXsXsXsXsXsXsXsXaX8XwXT.n R K.K.g.t X <X2X4X<X<X<X<X<X<X;X<XoX-X|.|.uXpXsXsXsXsXsXsXsXsXsXsXsX",
"sXsXsXsXsXsXsXsXsXsXsXuX6.G.y.l c c.3.2.,.r 8.qX4X3X4X4X4X<X3X3X<X<X<X<X|.<XQ.sXsXsXsXsXsXsXsXsXsXsX",
"sXsXsXsXsXsXsXsXsX7Xh >.>.h  .% :X<XqXwX3X X6XqX6X6X6X6X6X6X6X3X3X3X<X:X<X X0XS.D.yXsXsXsXsXsXsXsXsX",
"aXsXsXsXiXsXpXtXXXt.J.y B ^ V.- 8X0X5X1X1X5X3X3X5X6X6X6X6X3X<X<X<X4X<X<X<X<XoX0./.v.*XyXsXsXsXsXsXsX",
"sXsXsXsXaXaXaX5.g.c.e 8X& i.0X#XwX3X6X2X4X6X2XqX6XqX6XrXqX6X5X3X3X<X<X<X<X<X@XqX: x t.z.sXiXsXsXsXpX",
"pXsXsXsXsX9X( J.g.n O 8X:X<X6X6X6X6X6X2X6XyXC <XV 6Xd.eXeX^.5X3X0X<X<X<X<X<X<X%XO 2Xv Z.r.3XsXiXsXsX",
"sXsXsXsXpX].z.F.- 5X X5X<X3X5X3X6X3X8X3X0.<XT.9.9XT.Y.;XtXR.q.<X-X5X-X<X<X<X<X0X# J.j C K.%XsXpXsXsX",
"sXsXaXpX9Xe.U.V #X:X1X6X;X3X3X6X6X6X5XM.XX_.P H D e u m #.P ;X2XXXrX<X<X3X<X;XyXp.A J., ;.E wX9XsXsX",
"sXsXpXuXO =.,X+X0X:X<X1X$X5X5X6X6X6XS.(.B L 4 3 q 8 q 9 9 0 9 +XM.6X>X<X<X<X-XuX$X1 . ! V  .i uXsXsX",
"pXsXpXyXl.=XoX<X<X<X<X<X6X:X6X5X4X3XrX@X;XJ ~ W Q [ Y ~ W Q _ 6 B s.oX<X<X<X-XoXoX<Xa r s N.A.eXsXsX",
"sXsXsXV.XX|.oX:X&X:X1X<X1X|.1X5X5X5XpXf.4XI . o d X T X d X H 5 0.<X(.<X<X=X X:X`.: 4.>.J.# t Y.sXsX",
"aXsXyXz.(.XXoX&X:X<X1X<X3XyX<X5X5X>XB yXa.L #.z T & E = U 6 G OXd.c ;X<X<X-X3X-X Xo.W.-...) g O.sXsX",
"sXsXyX}.{.|.oX$X<X$X:X1X3X<X<X>X5X5X5XaXN./.T.+.* g R > $ F }.}.<Xx.oX<X;X<X<X>X>X= @ @.h b.;.N sXaX",
"pXsX!.!._.|.oX$X$X:X:X:X&X5X6XoX:X5X5X8XqX4Xw.pXN.X , + ^.3X, <Xq.<X<X<X#X<X$X<X5XM.6X0.. } 6  XsXaX",
"sXsXB.(._.}.|.$X$X:X<X:X<X1X1X6XoX6X4X5X3X7.rX3XA 5.O.3 ].6X5X8.<X6X-X-X6X:XoX|. XoXXX|.A   `.`.sXsX",
"sXsXaXQ._._.|.oX$X:X:X<X<X:X<X1XyXoX:X3X<X6XoX3Xq.q.V.5.5. X<X3X<X<XoX3X:XoX$XoX-X X|. Xz.].P.B.sXaX",
"sXsXaXQ.~.{.|.XXoX$X$X:X$X2X$X:X4X6X|.<X<X<X<X<X<X<X<X<X<X:XoX<X<XoX6X<X$X$XoXoX|.oXXX}._.(.T.x.sXsX",
"sXsXsXk.{._._.|.XXXXoX$X$X>X;X;X:X$X5X|.:X<X$X$X<X&X<X<X-X-X-X-XoX6X:X;XoXoXoXXX|.|.}.}.(.^.Q.M.sXsX",
"sXsXaXuX(._.{.}.|.|.@X:X>X[.> = @ Z :X<XoX<X:X<X:X<X<X:X;X-X-X X4X-X|.oX|.|..X|.|.}.(.(./.(.z.sXsXsX",
"sXsXpXsXQ.(.{.}. X5.<XOX&.2 ; 4.-.+ oX&X<X3X$XoX$X$X:X:X-XoX/.6X|.|.|.|.|.}.}.}.(._.(.^.N.z.B.sXsXsX",
"sXsXsXsXqX(.{.{._.(.( %     E.<.2.@ 3XoX3X3X3X<XoXoX$X$XoX`.oXoX}.|.|.}.}.}._._.~.^.~.V.L.k.pXaXsXsX",
"aXsXsXsXsX}.!._.].=XX ' | u.G.e.-.b A -X+ -     q.|._.~.2XoX}.|. X}.}.`.(.(.~.~.Q.V.^.L.M.uXsXsXsXsX",
"sXsXsXsXsXsXC.[.~.(.~.7.x.z.| ] G.j G.X.w 9 H.| x X l ;X/._.).}.}.}.(.(.~.(.^.T.T.S.{.k.uXaXsXsXsXsX",
"pXsXsXsXsXsXaXY.Q.{.].= ;.;.S.* 1 a c } ' n O.Z.'. Xv O O l.=X}.!.).).(.!._.V.(.M.S.z.yXsXsXsXsXsXsX",
"sXsXsXsXsXsXsXuX/./.P.`.> f O.b l.b.n.7 o.> y p N.# l y *.r.< - # O.Y.{._.}.B.|.&.R.aXsXsXsXsXsXsXsX",
"sXsXsXsXsXsXsXsXsXyX^.(.(.[.- n c.Z.' { -.$.%.H.r.U.h.( H.y.6.f.o.:.p.f.k B.S q.2XsXsXsXsXsXsXsXsXpX",
"sXsXsXsXsXsXsXsXsXsXsX|.^.l B.>X2 =.;.e.e.P.J.{ ` u.F./ G.u.6.=.j.N A R.O.D.:XsXsXsXsXsXsXsXsXsXsXsX",
"aXsXsXsXsXsXsXsXsXsXsXaXsX,Xd.l.p =Xf.j 8.a m.c.1.I.O.s f.n.L.c D.!.q.q.aXaXsXsXsXsXsXsXsXsXsXsXsXsX",
"sXsXsXsXsXsXsXsXsXsXsXsXsXaXsXaXsXD.P.B j.[.&.s M o.0.A q.R.n.N N.aXtXsXsXsXsXsXsXsXsXsXsXsXsXsXsXsX",
"pXsXsXsXsXsXsXsXsXsXsXsXsXsXsXsXsXaXiXsXsXsXyXuXeX;XyXuXsXsXsXsXsXsXsXsXsXsXsXsXsXsXsXsXsXsXsXsXsXsX",
"sXsXsXsXsXsXsXsXsXsXsXsXsXsXsXsXsXsXsXsXsXpXsXaXaXyXsXsXsXsXsXsXsXsXsXsXsXsXsXsXsXsXsXsXsXsXsXsXsXsX",
"sXsXsXsXsXsXsXsXsXsXsXsXsXsXsXsXsXsXsXsXsXsXsXsXsXsXsXsXsXsXsXsXsXsXsXsXsXsXsXsXsXsXsXsXsXsXsXsXsXsX",
"sXsXsXsXsXsXsXsXsXsXsXsXsXsXsXsXsXsXsXsXsXsXsXsXsXsXsXsXsXsXsXsXsXsXsXsXsXsXsXsXsXsXsXsXsXsXsXsXsXsX",
"aXsXsXsXsXsXsXsXsXsXsXsXsXsXsXsXsXsXsXsXsXsXsXsXsXsXsXsXsXsXsXsXsXsXsXsXsXsXsXsXsXsXsXsXsXsXsXsXsXsX",
"sXsXsXsXsXsXsXsXsXsXsXsXsXsXsXsXsXsXsXsXsXsXsXsXsXsXsXsXsXsXsXsXsXsXsXsXsXsXsXsXsXsXsXsXsXsXsXsXsXsX",
"sXsXsXsXsXsXsXsXsXsXsXsXsXsXsXsXsXsXsXsXsXsXsXsXsXsXsXsXsXsXsXsXsXsXsXsXsXsXsXsXsXsXsXsXsXsXsXsXsXsX",
"sXsXsXsXsXsXsXsXsXsXsXsXsXsXsXsXsXsXsXsXsXsXsXsXsXsXsXsXsXsXsXsXsXsXsXsXsXsXsXsXsXsXsXsXsXsXsXsXsXsX",
"sXsXsXsXsXsXsXsXsXsXsXsXsXsXsXsXsXsXsXsXsXsXsXsXsXsXsXsXsXsXsXsXsXsXsXsXsXsXsXsXsXsXsXsXsXsXsXsXsXsX",
"sXsXsXsXsXsXsXsXsXsXsXsXsXsXsXsXsXsXsXsXsXsXsXsXsXsXsXsXsXsXsXsXsXsXsXsXsXsXsXsXsXsXsXsXsXsXsXsXsXsX",
"sXsXsXsXsXsXsXsXsXsXsXsXsXsXsXsXsXsXsXsXsXsXsXsXsXsXsXsXsXsXsXsXsXsXsXsXsXsXsXsXsXsXsXsXsXsXsXsXsXsX"
};
