/* XPM */
static char *_d1a6f8871c44f20beee308489fef6c9paqcxSPfTNXMGEbZ[] = {
/* columns rows colors chars-per-pixel */
"50 50 250 2 ",
"   c #120E0D",
".  c #131415",
"X  c #141619",
"o  c #161A1D",
"O  c #1B1818",
"+  c #1B1B1C",
"@  c #38090B",
"#  c #32130F",
"$  c #241D1B",
"%  c #2A1D1A",
"&  c #25211E",
"*  c #37231C",
"=  c #1C1E22",
"-  c #1C1F28",
";  c #1D2125",
":  c #1E212C",
">  c #232324",
",  c #2B2523",
"<  c #24252A",
"1  c #26292D",
"2  c #2B2828",
"3  c #2B2B2C",
"4  c #312524",
"5  c #382927",
"6  c #332C2B",
"7  c #33332E",
"8  c #3C362C",
"9  c #272937",
"0  c #2B2C33",
"q  c #332E37",
"w  c #2D3133",
"e  c #2E323C",
"r  c #323233",
"t  c #33343B",
"y  c #3A3838",
"u  c #501112",
"i  c #640E0F",
"p  c #6A1213",
"a  c #4E291D",
"s  c #472E27",
"d  c #422D2B",
"f  c #49362B",
"g  c #553329",
"h  c #463837",
"j  c #4C3C35",
"k  c #553A36",
"l  c #663727",
"z  c #6E352F",
"x  c #673D3D",
"c  c #494336",
"v  c #58433B",
"b  c #59523B",
"n  c #69413B",
"m  c #77473C",
"M  c #6E5033",
"N  c #6F6838",
"B  c #333542",
"V  c #3C3D42",
"C  c #35364B",
"Z  c #383A49",
"A  c #473D49",
"S  c #543E48",
"D  c #6D3C40",
"F  c #3E4345",
"G  c #3C4259",
"H  c #3E4463",
"J  c #42444A",
"K  c #484748",
"L  c #584745",
"P  c #4D5049",
"I  c #595447",
"U  c #484854",
"Y  c #584756",
"T  c #4D5254",
"R  c #595858",
"E  c #684847",
"W  c #774947",
"Q  c #675747",
"!  c #77534C",
"~  c #685654",
"^  c #7C5554",
"/  c #775955",
"(  c #5F614C",
")  c #6D694F",
"_  c #74684A",
"`  c #6A6757",
"'  c #756758",
"]  c #7A775B",
"[  c #484869",
"{  c #4F5469",
"}  c #4D5373",
"|  c #775D62",
" . c #5D6262",
".. c #696968",
"X. c #786867",
"o. c #707171",
"O. c #7B7579",
"+. c #921E1D",
"@. c #9B3015",
"#. c #97252C",
"$. c #A42525",
"%. c #AF4D1C",
"&. c #B05C34",
"*. c #C76C2B",
"=. c #E36622",
"-. c #874C46",
";. c #824E4A",
":. c #85514D",
">. c #88534D",
",. c #845552",
"<. c #895552",
"1. c #875956",
"2. c #845C5B",
"3. c #985550",
"4. c #A65E50",
"5. c #837C46",
"6. c #876858",
"7. c #9A6D55",
"8. c #89755B",
"9. c #927056",
"0. c #A86752",
"q. c #A5735D",
"w. c #896764",
"e. c #976C64",
"r. c #897567",
"t. c #977866",
"y. c #8E6A7B",
"u. c #857874",
"i. c #987976",
"p. c #A97766",
"a. c #AE716F",
"s. c #A77975",
"d. c #F79723",
"f. c #F39039",
"g. c #9D866A",
"h. c #908477",
"j. c #A6856A",
"k. c #A88E73",
"l. c #A88876",
"z. c #B58678",
"x. c #B59477",
"c. c #C78976",
"v. c #F09D69",
"b. c #6E6A8F",
"n. c #8C758F",
"m. c #997A84",
"M. c #8B7BA0",
"N. c #7F8583",
"B. c #868586",
"V. c #988885",
"C. c #888694",
"Z. c #949094",
"A. c #99989A",
"S. c #AA8B86",
"D. c #B58B83",
"F. c #A89588",
"G. c #B99884",
"H. c #BA9994",
"J. c #B09399",
"K. c #BAA693",
"L. c #9394AF",
"P. c #AB99AA",
"I. c #9DA1A0",
"U. c #A9A8AC",
"Y. c #B6A9A5",
"T. c #BEB3A7",
"R. c #AEA8B4",
"E. c #B4AAB8",
"W. c #B8B8BB",
"Q. c #C19B8A",
"!. c #CC9790",
"~. c #C7A58B",
"^. c #C6A796",
"/. c #D4A694",
"(. c #CDB296",
"). c #D7B69A",
"_. c #F1BB8C",
"`. c #D99BA0",
"'. c #D0AAA6",
"]. c #C8B4A4",
"[. c #D8B6A6",
"{. c #C4B9BA",
"}. c #D8BDB4",
"|. c #E1BDA4",
" X c #F2B2A9",
".X c #FECA90",
"XX c #DAC6AA",
"oX c #CDC6BA",
"OX c #D7C3B6",
"+X c #E7C6A8",
"@X c #EBC8B4",
"#X c #F3D2B8",
"$X c #9397CA",
"%X c #A59CCD",
"&X c #9CA4D6",
"*X c #BCB7C5",
"=X c #A6A9D1",
"-X c #B0B3EC",
";X c #C3B8C6",
":X c #C4BBCC",
">X c #C8BFD1",
",X c #BEC2C8",
"<X c #C9C8C7",
"1X c #C5C4CC",
"2X c #CBCACD",
"3X c #D8C9C9",
"4X c #D7D6CA",
"5X c #C8C5D3",
"6X c #CCCCD3",
"7X c #CDCCDA",
"8X c #D3C9D6",
"9X c #D2CCDC",
"0X c #CED2D5",
"qX c #CDD2DC",
"wX c #D3D2D6",
"eX c #DAD5D4",
"rX c #D4D5DB",
"tX c #D5D9DD",
"yX c #DADCDD",
"uX c #EDD3C7",
"iX c #E2DBD9",
"pX c #ECECD6",
"aX c #CED0E9",
"sX c #D4D5E2",
"dX c #D5D9E4",
"fX c #DBDCE4",
"gX c #D9DCE8",
"hX c #C9CAFC",
"jX c #D1D4FF",
"kX c #E4DEE5",
"lX c #DEE1E5",
"zX c #DDE2EC",
"xX c #DEE4F0",
"cX c #E1E3E6",
"vX c #E3E5EB",
"bX c #EAE6E8",
"nX c #E6EAEC",
"mX c #EAECED",
"MX c #F4EDEA",
"NX c #ECF0ED",
"BX c #F1F3EE",
"VX c #E5EBF2",
"CX c #EAEEF2",
"ZX c #E8ECF7",
"AX c #EDF1F2",
"SX c #EEF6F8",
"DX c #F2F3F4",
"FX c #F4F6F9",
"GX c #F6F9F8",
"HX c #FAFCFC",
/* pixels */
"e e C C C Z V Z B t w 0 e Z H H G G K E ^ W E E x S E ~ / E k k k E v v L ~ X.o.~ S h 8 y 7 h y r r ",
"0 9 q C t t B B B B t 0 0 C H H H G Y E ^ W W W m W W ! ^ W D E n n n n E ! X.X.~ L k j k j j j h Z ",
"< < 9 9 9 0 9 9 e 0 w 3 9 C H H [ [ Y ^ :.:.<.:.;.;.;.;.:.-.W W W W m W x m ^ ^ ! x x L L k k n S V ",
"% < > 2 < < - < 0 w 7 < 0 B H H [ [ S W <.<.<.;.<.<.<.<.<.-.>.>.:.;.;.;.-.W ;.,.;.m x x v v n M L V ",
"$ > ; < > > = : w 7 7 3 1 C U } b.H Y W <.3.1.<.<.>.<.<.<.-.<.>.<.<.1.<.-.-.-.;.;.W m D k k l z L A ",
"O O $ $ O X X = 7 7 7 3 < C G } [ H [ W <.2.2.,.oX,.1.w.w.<.<.<.1.2.w.<.<.;.W :.W -.z k g g l z k A ",
". . O + X . X - 7 7 7 3 < B G } [ H S D ,.,.2.2.4XBX1.w.w.<.<.<.w.w.w.w.<.^ 1.2.^ ! x k d g a l k C ",
". X X X X X = - 3 7 7 < ; 9 Z { [ H S S | ^ ^ {.4XuX;X2.2.,.,.^ r.h.k.l.2.2./ / ^ ^ x h 5 d s a d Z ",
". . . . o ; ; : 1 w 3 ; = - q A C A B k E E OX].).g.pX6.! ! g.g.b 8.g.x.k.` ~ / ~ E k d & * * a 5 C ",
". . X o ; 1 1 w w 3 3 > = - 9 q B B < g k k HX~.).+X+XpXm n 8.h.b Q I ) ` r.E E E L h 5 $ % * * , q ",
"; ; = o ; w w w 1 w 7 > = - 0 9 q 9 a.4 c.}.MX).(.|.+X4X X/.k.( f c c f ' ) L L j h 5 , O O % % $ 0 ",
": : ; ; 1 e e w 1 3 w > - : < q q @X-.!.z uXs.}.x.|.#XK.3.@Xc.O % & f c b & L y q d , $ O O O O . 6 ",
"w w ; > w y y w 1 w 3 < < - 9 q  X4.< <.a.r.g /.a * #XXX8.a.m /.% 5 v 8.t./ I 6 4 4 % O . X . . . , ",
"V t 1 ; w w w 1 ; 3 1 < 9 9 9 uX`.'.s.!.-.w.4 #X* % XXXXM a a.z.[.Q 9.~.+X@Xh 2 4 $ & O X . X . . E ",
"F F : ; ; w w 1 > 3 r h 9 : 9 }.Q.D.a.3.s.t.k.@X+X/._.XX~ s.a.a.c.#X9.x./.#XV 6 , $ $ = X X O . . ^.",
"P F 1 o ; 3 3 & ; 2 I I 6 B '.'.p.Q.a.4 3.^.3.# c.#X#X).% ).p.c.z./.9.j.c.uXT.6 , > = O X O X . o ].",
"P J 1 o $ < > & = 2 6.1.j V !.[.H.K.m.4.& x.E n [.~.#X).l z.!.^.Q.z.@Xz.j.G.).w 3 & & + o = + X 8 ].",
"U F < . + > ; > > h }.)./.l.H.}.H.D.a.-.o m z 4Xs.z.+Xj.M q.Q.G.^.s.}.V.T.# 8 7 3 4 & ; + ; > X c G.",
"P F 1 o ; = > > < I }.@XAXmXH.H.H.s.z < ; ! e.!.e.~.(.9.l 2 D.D.Q.H.n.Y.Y.B.y 3 7 7 , ; > > > O / ~.",
"T F 1 o ; > + > 7 ` G.}.kXeXs.s.s.s.j.e.4 s.s.S.#XG.x.M q.< z.a.l.w.Q u.V.O.h.W.7 7 , , , < > o p.~.",
"P K w o ; ; + > y r.O.H.eX;XW :.,.<.e.a.4./ z.^.@Xg.t.n `.!.s.2.:.W y K u.O.u.Z.T.6 , , < , < + j.x.",
"P K 7 ; = ; ; > h T.S.V.z.F.G.F B r 3 7 1 d ! j ] _ 6.0.;.,.! e.q.j.Q t 0 / V.V.F.T.A.> & 2 < o 7.p.",
"F b y 3 ; ; ; 2 iXV.i.~ / K.[.V V V J y t * $ % * s f 5 > , ^.p.q.q.6.9.q S L O.h.h.Y.(.& ; ; o 4 6.",
"( b c 7 ; ; ; HXu.H.| 0 h @X@XL J J T T J u.4 d Q c g.$ , , G.q.q.7.m 7.z.k K e.h.u.h.XXK.; ; = o 6.",
"( ( c 8 1 1 NXT U ` 2 6 s.@X@XJ G T {  .T oX2.W k.j.g.$ & ..q.q.7.>.M q.~.' h E ' O.o.O.].].= O O t.",
"( N N c w w o.F.u.! f E z.@X+XZ T T  ...R uXE x k.k.9.O <X(.j.p.9.a 9.M |.L A d W I X.F.u.].[.o % k.",
") N N b y W.P ] / n f z.a.[.G.B F T ..o...OXl.W x.5.6.lXCXeXj.q.9.g ! r.p.K 7 j d < J r.u.l.G.; X.G.",
"] ] 5.N <Xl.X.~ d s v G.(.XX' 6XNXF ..o.R ].l.k.).g.x.OXCXNXx.eXoX,X2XI...wX$.R   k 6.R y F l...eX~.",
") 5.g.4Xr.~ Y v % * p.F.6XtXxXlXqXqXxXcXnXK.D.l.(.x.k.mXHXGXlXqXqX6X,XA.sXlXp u.~ P , j h I l.sXmXK.",
"` g.N y.K / r 4   X.d.dXtXzXdXtXqXqXxXmX2XcXG.l.x.~.k.qXW.lXlXzXdXqXaXqXdX6Xp S.h.w.w.j 6 b k.nXnX4X",
"` ] 5.s.s./ j 6 V.H.f.dXdXzXdXaXqX6XzXlXAXzXVXU.eXGXCXlXzXdXlXzXaX6XsXsXsX1Xi Y 6.! v j 6 f nXmXAXmX",
"] ] 5.w./ t.V X.T X.sX7XqX7X7XqXaXzXzXdX9XVXVXVXSXGXGXVXzXlXtXzXqX,X5XsX2X1Xu / d 4 g & % FXFXDXFXGX",
"` ] ) I ! w.~ S ~ 4.>X>X;X9X9X9XgXaXkX7X>X9XzXFXFXHXHX8XE.kXvXZXdX6XsXZ.Z.R.@ d f 4 s $ nXDXFXFXDXDX",
"` ` ) N m 5 d 5 d &.;XE.E.>XsXkX9X9XZXgXgX5X8X>X5X1X5XeXp dXZXvXCXdXR.*XZ.n.@ 5 4 5 5 vXcXnXDXFXDXDX",
"~ ` I b rXD x k d d m.P.;X;X>X*.9XaX;XbXVXgXsX7X5XvXcXCX#.gXzXlXdXU.L.O.V.` @ & s + vXcXvXlXmXDXDXAX",
"~ Q b b CXZX4 k d d a.m.P.>X>Xc.9X9X9Xm.aXZXbXkX2XtXdX#.a.VXVXfX6Xh.C.R.b.u.@   4 , nXyXyXyXcXmXDXAX",
"/ Q h A.nXnXHXHXx g $.m.P.E.>X>X9XsXm.sXaX;X*XW.E.W.gX-.ZXZXyXlX0XO.B.X.( ..u.AX, R lX0X1X<XyXnXNXNX",
"| ~ h <XvXvXGXHXHXGX@.m.m.P.!.9X9XsX:X;X8XvXfX9XsXgXvXCX3XZXzXlX6X# b.R ..uXHXBX, U.lX6XA.W.2X2XcXNX",
"M.M.b.kXcXcXFXFXGXGXFXFXFXm.%.3X9XaXsXgX7XE.:XsXCXCXCXJ.VXfXmXfX0X# ' ~ GXkXGXMX= eXlX6Xh.R.J.W.lXnX",
"%X%X%XcXlXtXCXCXFXFXFXDXFXFX%.3X5XsXgXsXgXsXsX5X9XfXZXvXkXZXnXcXtX@ # FXGX`.GXMXs pXlX1Xu.V.W.6XyXnX",
"-X-XaXlXfXwXvXmXFXDXDXAXAXFXMX`.9X9XaXsXgXVXZXZXFXlX2XdXVXVXnXVXlXi i.SXGXSXGXtXF..XyXI._ {.;X6XqXlX",
"hXhXaXkXfXwXyXfXeXbXDXDXAXDXkX*.9X9X9XsXgX5X>X&.E.,XzXzXmXNXnXNXtXp AXmXBXGXNXqX4X_.^.h.z oX2X<X6XtX",
"jXjXgX8XyX2XwXwX3XAXDXDXDXDXCX*.>X8X7X< 0 v.=.=.qX0XtXnXVXnXNXVXeXp SXNXNXNXnXN.bXoX&.6.E 3XwX1XW.,X",
"jXjXiXtXeX<X{.9XkXCXDXDXDXDXBX*.>X5X*XgX0 =.=.{ 0 1 ; nXnXNXAXNX-.p @XmXnXnXlXZ.cX{.9.n.n.3X6X0XA.W.",
"hXjXkX8XrXY.W.eXyXnXmXDXAXAXAXbX;X>Xn.O B.t sX: 1 o.N.xXnXnXAXnX+.{.f.tXW.NXu 0X<XU.A.$XL.OXtXW.w R ",
"-XjXmXbXrXS.<XyXyXfXnXCXmXCXmXvX8X>X5X{ . o 6X< . J R.zXlXnXAXNX$.f.3X3 ; NXT.NX<XV.=X&X=XOXrXU.F R ",
"-X'.uXDXrX7.3XkXeX1XlXiXuXnXmXNXsX>X. >Xo = 0 o o : *XlXnXcXAXVX$.1 <Xw 1 NX4XNXoXB.-X-X=XOXwX6XO.1 ",
"$Xa.d.uX4X4.wXcXOXV.K.v.[.Z.,XDXgX>X*Xo C.0 > 6Xo . ,XdXvXvXAXAX$.: T K t NXoXNX<XI.&X-X&X}.1XrXU R ",
"M.$X}..X}.m.eXeX[.[.A.3XJ W.<XFXkX5X*X:XB J 1XA.R.R.,XtXlXnXNXAX+.T J  .w BX<XBX4XL.$X&X$XT.W.0XI.W.",
"b.*XfXmX3X;XkX3XQ./.P W.J wXyXGXkX8X:X*Xb.;X>XU : R >XsXlXnXmXAXiXDXDXBXNXBXoXNXyX&X$X&X$XT.<X2X1XU."
};
